<svg width="1366" height="768" viewBox="0 0 1366 768" fill="none" xmlns="http://www.w3.org/2000/svg">
<g clip-path="url(#clip0_61_44)">
<rect width="1366" height="768" fill="white"/>
<path d="M227 181.5C169.526 165.825 105.938 68.2557 46.9999 105.5C-24.2963 150.564 46.9241 278.895 75 338.5C88.7526 367.697 -30 561 46.9999 521C191 446.195 101 695.5 289 616C477 536.5 302 378.5 361.5 291.5C421 204.5 458.516 258.777 480.5 228C537.664 151.044 275.372 194.692 227 181.5Z" fill="#CDE6A4"/>
<path d="M323.778 619.979C348.404 618.852 364.38 590.472 374.894 572.495C385.794 553.868 398.165 548.449 414.199 536.042C428.242 525.195 417.527 518.972 403.418 513.909C362.233 499.137 305.847 511.416 290.594 558.04C282.741 582.016 292.414 621.417 323.778 619.979Z" fill="#CBAAD5"/>
<path d="M284.895 167.343C276.973 146.282 254.52 137.786 233.476 139.138C211.715 140.53 199.295 161.275 199.612 181.155C197.979 189.525 199.622 198.618 204.45 205.583C211.966 216.424 225.699 221.189 238.413 221.704C269.206 222.944 296.946 199.39 284.895 167.343ZM229.046 180.69C229.036 180.673 229.033 180.667 229.023 180.65C229.046 180.654 229.063 180.654 229.083 180.65C229.089 180.667 229.099 180.69 229.106 180.71C229.083 180.7 229.066 180.693 229.046 180.69Z" fill="#FFDD95"/>
<path d="M110.515 579.256C110.515 593.203 99.2066 604.512 85.2561 604.512C71.3055 604.512 60 593.2 60 579.256C60 565.309 71.3088 554 85.2561 554C99.2033 553.997 110.515 565.309 110.515 579.256Z" fill="#FFDD95"/>
<path d="M421.347 589.672C421.347 598.323 414.329 605.344 405.672 605.344C397.018 605.344 390 598.323 390 589.672C390 581.015 397.015 574 405.672 574C414.329 574.003 421.347 581.015 421.347 589.672Z" fill="#FFDD95"/>
<path d="M-63.298 362.341C-85.9684 401.449 -36.0466 437.532 -1.11748 441.13C42.3205 445.609 101.177 421.181 124.863 383.435C139.799 359.62 131.492 331.858 131.96 305.032C132.537 271.775 134.592 220.481 84.5349 225.319C41.3871 229.075 46.6244 283.967 25.0027 308.488C6.37887 333.859 -50.4424 340.155 -63.298 362.341Z" fill="#F68B79"/>
<path d="M777.43 183.829C780.931 192.01 794.53 193.194 803.193 194.078C812.17 194.995 815.916 198.381 822.978 201.968C829.155 205.111 830.383 200.55 830.716 195.012C831.686 178.846 819.697 161.56 798.713 163.341C787.92 164.255 772.971 173.41 777.43 183.829Z" fill="#FFDD95"/>
<path d="M603.347 123.672C603.347 132.323 596.329 139.344 587.672 139.344C579.018 139.344 572 132.323 572 123.672C572 115.015 579.015 108 587.672 108C596.329 108.003 603.347 115.015 603.347 123.672Z" fill="#CBAAD5"/>
<path d="M809.949 218.533C800.034 208.8 781.53 201.946 754.674 202.382C675.406 203.687 676.506 282.053 753.06 277.247C812.994 273.501 831.214 239.402 809.949 218.533Z" fill="#F68B79"/>
<path d="M454 415.096C448.304 415.096 445.456 414.456 445.456 413.176L443.44 374.68L431.728 413.656C431.472 414.424 429.296 414.808 425.2 414.808C421.104 414.808 418.992 414.456 418.864 413.752L406.768 374.296L405.424 412.6C405.36 413.56 404.144 414.232 401.776 414.616C399.408 414.936 397.424 415.096 395.824 415.096C394.288 415.096 392.784 415 391.312 414.808C388.24 414.36 386.736 413.56 386.8 412.408L389.008 350.008C389.008 348.472 392.912 347.704 400.72 347.704C403.024 347.704 405.84 347.896 409.168 348.28C412.496 348.6 414.352 349.272 414.736 350.296L425.488 380.536L434.896 350.2C435.472 348.536 439.888 347.704 448.144 347.704C450.512 347.704 453.328 347.896 456.592 348.28C459.92 348.6 461.584 349.208 461.584 350.104L464.368 413.08C464.368 413.784 463.12 414.296 460.624 414.616C458.128 414.936 455.92 415.096 454 415.096ZM509.702 412.408C505.67 414.776 500.486 415.96 494.15 415.96C487.814 415.96 482.47 413.816 478.118 409.528C473.766 405.176 471.59 399.192 471.59 391.576C471.59 383.896 473.67 377.72 477.83 373.048C482.054 368.376 487.366 366.04 493.766 366.04C500.166 366.04 505.094 367.672 508.55 370.936C512.07 374.2 513.83 378.168 513.83 382.84C513.83 393.208 507.878 398.392 495.974 398.392H489.35C489.35 400.312 489.862 401.656 490.886 402.424C491.974 403.128 493.542 403.48 495.59 403.48C500.07 403.48 504.326 402.456 508.358 400.408C508.422 400.344 508.71 400.792 509.222 401.752C510.758 404.504 511.526 406.84 511.526 408.76C511.526 410.616 510.918 411.832 509.702 412.408ZM497.702 384.664C497.702 381.976 496.39 380.632 493.766 380.632C492.55 380.632 491.494 381.016 490.598 381.784C489.766 382.488 489.35 383.544 489.35 384.952V387.928H494.534C496.646 387.928 497.702 386.84 497.702 384.664ZM527.301 400.792C527.685 399.768 530.405 399.256 535.461 399.256C540.517 399.256 543.045 399.928 543.045 401.272L542.853 409.432L537.285 422.488C536.453 424.344 533.861 425.272 529.509 425.272C525.221 425.272 522.501 424.568 521.349 423.16C521.093 422.84 520.965 422.52 520.965 422.2C520.965 421.944 520.997 421.688 521.061 421.432L526.917 409.528L527.301 400.792ZM610.933 414.52C610.933 414.968 608.181 415.192 602.677 415.192C597.237 415.192 594.517 414.904 594.517 414.328V386.392C594.517 383.192 593.461 381.592 591.349 381.592C590.261 381.592 588.821 382.296 587.029 383.704V414.424C587.029 415.064 584.277 415.384 578.773 415.384C573.333 415.384 570.613 415.032 570.613 414.328V382.936H568.213C566.101 382.936 565.045 380.728 565.045 376.312C565.045 374.328 565.429 372.312 566.197 370.264C567.221 367.448 568.885 366.04 571.189 366.04C573.493 366.04 575.701 366.648 577.813 367.864C579.989 369.08 581.301 370.232 581.749 371.32C585.717 367.8 590.101 366.04 594.901 366.04C599.765 366.04 603.669 367.544 606.613 370.552C610.069 367.544 614.229 366.04 619.093 366.04C629.653 366.04 634.933 372.472 634.933 385.336V414.52C634.933 414.968 632.181 415.192 626.677 415.192C621.237 415.192 618.517 414.904 618.517 414.328V386.392C618.517 383.192 617.461 381.592 615.349 381.592C614.197 381.592 612.725 382.296 610.933 383.704V414.52ZM639.741 367.48C639.741 366.776 642.653 366.424 648.477 366.424C654.365 366.424 657.405 366.744 657.597 367.384L664.509 390.04L671.133 367.192C671.389 366.68 673.373 366.424 677.085 366.424C685.597 366.424 689.661 366.84 689.277 367.672L666.717 431.896C666.653 432.28 664.893 432.472 661.437 432.472C658.045 432.472 654.877 432.344 651.933 432.088C648.989 431.896 647.581 431.64 647.709 431.32L656.061 411.16L639.741 367.48ZM696.68 397.72C701.864 400.856 705.96 402.424 708.968 402.424C710.888 402.424 711.848 401.752 711.848 400.408C711.848 399.448 710.184 398.2 706.856 396.664C698.856 393.4 694.856 388.056 694.856 380.632C694.856 375.896 696.584 372.28 700.04 369.784C703.496 367.288 707.624 366.04 712.424 366.04C717.288 366.04 721.384 366.552 724.712 367.576C728.104 368.6 729.8 369.944 729.8 371.608C729.8 373.016 729.096 374.872 727.688 377.176C726.344 379.48 725.416 380.728 724.904 380.92C722.152 379.384 719.176 378.616 715.976 378.616C714.248 378.616 713.384 379.224 713.384 380.44C713.384 381.208 713.704 381.88 714.344 382.456C715.048 382.968 716.296 383.64 718.088 384.472C719.88 385.24 721.352 385.944 722.504 386.584C723.72 387.224 725.064 388.12 726.536 389.272C729.608 391.704 731.144 394.872 731.144 398.776C731.144 403.896 729.448 408.056 726.056 411.256C722.664 414.392 717.544 415.96 710.696 415.96C706.152 415.96 702.024 415.192 698.312 413.656C694.6 412.12 692.744 410.008 692.744 407.32C692.744 405.528 693.16 403.64 693.992 401.656C694.888 399.672 695.784 398.36 696.68 397.72ZM774.171 412.408C770.139 414.776 764.955 415.96 758.619 415.96C752.283 415.96 746.939 413.816 742.587 409.528C738.235 405.176 736.059 399.192 736.059 391.576C736.059 383.896 738.139 377.72 742.299 373.048C746.523 368.376 751.835 366.04 758.234 366.04C764.635 366.04 769.563 367.672 773.019 370.936C776.539 374.2 778.299 378.168 778.299 382.84C778.299 393.208 772.347 398.392 760.443 398.392H753.819C753.819 400.312 754.331 401.656 755.355 402.424C756.443 403.128 758.011 403.48 760.059 403.48C764.539 403.48 768.795 402.456 772.827 400.408C772.891 400.344 773.179 400.792 773.691 401.752C775.227 404.504 775.995 406.84 775.995 408.76C775.995 410.616 775.387 411.832 774.171 412.408ZM762.171 384.664C762.171 381.976 760.859 380.632 758.234 380.632C757.019 380.632 755.963 381.016 755.067 381.784C754.235 382.488 753.819 383.544 753.819 384.952V387.928H759.003C761.115 387.928 762.171 386.84 762.171 384.664ZM802.042 414.232C802.042 414.808 798.778 415.096 792.25 415.096C787.13 415.032 784.57 414.776 784.57 414.328V348.952C784.57 347.992 787.674 347.512 793.882 347.512C799.322 347.704 802.042 348.024 802.042 348.472V414.232ZM814.47 379.768H809.766C808.806 379.768 808.326 377.656 808.326 373.432C808.326 369.144 808.806 367 809.766 367H814.47V364.888C814.47 358.104 815.878 353.432 818.694 350.872C821.574 348.248 825.574 346.936 830.694 346.936C835.814 346.936 840.326 347.864 844.23 349.72C844.742 349.912 844.998 350.616 844.998 351.832C844.998 352.984 844.454 354.872 843.366 357.496C842.278 360.12 841.35 361.624 840.582 362.008C838.406 360.664 836.166 359.992 833.862 359.992C831.366 359.992 830.118 361.656 830.118 364.984V367H838.086C839.238 367 839.814 369.048 839.814 373.144C839.814 377.624 839.078 379.864 837.606 379.864H831.462V413.848C831.462 414.616 828.614 415 822.918 415C817.286 415 814.47 414.616 814.47 413.848V379.768ZM894.004 368.056L894.1 367.096C894.1 365.496 893.556 364.216 892.468 363.256C891.444 362.296 890.164 361.816 888.628 361.816C887.092 361.816 885.812 362.328 884.788 363.352C883.764 364.376 883.252 365.784 883.252 367.576C883.252 372.44 886.676 374.872 893.524 374.872C895.06 374.872 896.788 374.744 898.708 374.488C911.316 372.888 917.684 372.088 917.812 372.088C919.604 372.088 920.5 373.912 920.5 377.56C920.5 380.504 919.892 383.416 918.676 386.296L908.884 387.448C910.548 391.48 911.38 395.128 911.38 398.392C911.38 403.448 909.428 407.64 905.524 410.968C901.684 414.296 896.052 415.96 888.628 415.96C881.268 415.96 875.444 414.168 871.156 410.584C866.868 406.936 864.724 402.296 864.724 396.664C864.724 390.968 867.444 386.104 872.884 382.072C868.852 377.592 866.836 372.408 866.836 366.52C866.836 360.632 868.884 355.896 872.98 352.312C877.076 348.664 882.388 346.84 888.916 346.84C895.444 346.84 900.596 348.44 904.372 351.64C908.212 354.84 910.132 359.16 910.132 364.6C910.132 365.688 909.076 366.744 906.964 367.768C904.916 368.792 902.452 369.304 899.572 369.304C896.692 369.304 894.836 368.888 894.004 368.056ZM883.444 387.64C882.74 389.496 882.388 391.16 882.388 392.632C882.388 394.04 882.612 395.288 883.06 396.376C884.084 398.872 886.132 400.12 889.204 400.12C891.38 400.12 892.948 399.352 893.908 397.816C894.932 396.216 895.444 394.232 895.444 391.864C895.444 390.776 895.412 389.976 895.348 389.464C895.284 388.888 895.252 388.536 895.252 388.408C893.076 388.792 890.932 388.984 888.82 388.984C886.708 388.984 884.916 388.536 883.444 387.64ZM953.761 398.488V364.312H946.945C945.857 364.312 945.089 362.936 944.641 360.184C944.449 358.84 944.353 357.464 944.353 356.056C944.353 354.648 944.449 353.272 944.641 351.928C945.089 349.176 945.857 347.8 946.945 347.8H979.201C980.289 347.8 981.025 349.176 981.409 351.928C981.665 353.272 981.793 354.648 981.793 356.056C981.793 357.464 981.665 358.84 981.409 360.184C981.025 362.936 980.289 364.312 979.201 364.312H972.769V398.488H979.489C980.577 398.488 981.345 399.864 981.793 402.616C982.049 403.96 982.177 405.336 982.177 406.744C982.177 408.152 982.049 409.528 981.793 410.872C981.345 413.624 980.577 415 979.489 415H947.137C946.049 415 945.313 413.624 944.929 410.872C944.673 409.528 944.545 408.152 944.545 406.744C944.545 405.336 944.673 403.96 944.929 402.616C945.313 399.864 946.049 398.488 947.137 398.488H953.761Z" fill="black"/>
<path d="M1259.89 197.343C1251.97 176.282 1229.52 167.786 1208.48 169.138C1186.72 170.53 1174.3 191.275 1174.61 211.155C1172.98 219.525 1174.62 228.618 1179.45 235.583C1186.97 246.424 1200.7 251.189 1213.41 251.704C1244.21 252.944 1271.95 229.39 1259.89 197.343ZM1204.05 210.69C1204.04 210.673 1204.03 210.667 1204.02 210.65C1204.05 210.654 1204.06 210.654 1204.08 210.65C1204.09 210.667 1204.1 210.69 1204.11 210.71C1204.08 210.7 1204.07 210.693 1204.05 210.69Z" fill="#FFDD95"/>
<path d="M952.106 746.252C1009.35 757.347 1009.35 624.204 1051.17 604.79C1097.4 582.596 1134.83 657.486 1185.46 638.073C1260.32 607.559 1218.48 524.349 1249.3 477.191C1286.73 421.72 1350.57 493.836 1394.6 457.778C1447.44 413.401 1385.8 346.829 1339.57 327.41C1284.52 299.666 1225.09 330.185 1170.05 307.99C1117.22 285.802 1082 230.336 1033.56 307.996C1004.63 354.379 1010.21 420.647 972.155 460.193C947.385 485.938 907.291 491.875 888.397 526.456C857.237 583.472 893.756 734.95 952.106 746.252Z" fill="#FFDD95"/>
<path d="M1263.9 275.555C1256.98 271.836 1249.43 267.696 1243.07 261.581C1211.51 231.234 1224.66 175.423 1179.23 153.229C1150.89 139.381 1104.07 147.325 1077.62 155.067C995.817 179.007 1041.39 263.507 1087.08 314.686C1135.31 368.701 1235.22 377.047 1274.53 320.904C1294.97 291.681 1281.46 284.986 1263.9 275.555Z" fill="#CDE6A4"/>
<path d="M1104.39 639.865C1102.15 630.947 1097.67 622.735 1090.5 617.725C1072.79 605.348 1041.21 619.394 1037.81 641.454C1032.76 674.213 1097.13 709.973 1105.29 664.138C1106.62 656.724 1106.43 648.001 1104.39 639.865Z" fill="#F68B79"/>
<path d="M1249.51 610.056C1249.97 608.448 1250.5 606.858 1251.11 605.297C1258.5 586.174 1274.51 577.552 1274.64 555.595C1274.74 539.702 1258.42 513.795 1276.8 501.224C1309.57 478.791 1359.12 555.773 1365.07 577.4C1375.75 616.274 1346.27 674.294 1305.51 682.663C1265.88 690.799 1239.02 646.567 1249.51 610.056Z" fill="#CBAAD5"/>
<path d="M1127.52 222.256C1127.52 236.203 1116.21 247.512 1102.26 247.512C1088.31 247.512 1077 236.2 1077 222.256C1077 208.309 1088.31 197 1102.26 197C1116.2 196.997 1127.52 208.309 1127.52 222.256Z" fill="#CBAAD5"/>
<path d="M549.745 568.406C549.728 568.472 549.708 568.541 549.695 568.613C549.771 568.475 549.781 568.406 549.745 568.406Z" fill="#CDE6A4"/>
<path d="M735.347 549.672C735.347 558.323 728.329 565.344 719.672 565.344C711.018 565.344 704 558.323 704 549.672C704 541.015 711.015 534 719.672 534C728.329 534.003 735.347 541.015 735.347 549.672Z" fill="#F68B79"/>
<path d="M769.11 538.205C768.277 537.387 767.485 536.527 766.743 535.629C757.617 524.661 758.583 511.705 744.755 504.394C734.748 499.101 711.825 500.894 711.245 485.138C710.204 457.036 778.744 451.04 794.804 454.395C823.66 460.44 848.525 498.166 837.471 526.69C826.724 554.425 787.988 556.851 769.11 538.205Z" fill="#CDE6A4"/>
<path d="M608.285 559.775C608.229 559.059 608.186 558.34 608.153 557.621C606.903 529.499 652.353 474.36 625.138 458.916C592.435 440.368 550.448 468.889 533.618 496.783C512.702 531.445 533.994 579.108 553.617 611.042C574.649 645.266 581.446 684.561 609.667 714.121C620.112 725.061 636.523 743.434 651.756 746.758C670.98 750.957 683.216 735.271 700.82 731.673C750.676 721.486 823.13 784.953 841.348 701.071C848.647 667.458 836.454 623.753 802.438 609.374C772.288 596.63 744.083 613.321 721.436 632.301C705.606 645.566 694.412 656.829 674.133 644.722C644.078 626.774 611.111 596.01 608.285 559.775Z" fill="#CBAAD5"/>
<path d="M515.759 535.745C506.841 537.988 498.629 542.46 493.62 549.63C481.242 567.347 495.289 598.922 517.349 602.326C550.108 607.378 585.868 543.004 540.032 534.842C532.619 533.519 523.895 533.707 515.759 535.745ZM550.434 565.698C550.998 564.319 550.734 564.854 550.434 565.698Z" fill="#CDE6A4"/>
</g>
<defs>
<clipPath id="clip0_61_44">
<rect width="1366" height="768" fill="white"/>
</clipPath>
</defs>
</svg>
