<svg width="124" height="48" viewBox="0 0 124 48" fill="none" xmlns="http://www.w3.org/2000/svg">
<path d="M9.08189 44.3529C5.11989 44.3529 1.70188 44.2419 0.856882 44.2119C0.683882 44.2059 0.54888 44.0609 0.55488 43.8879C0.56088 43.7149 0.708885 43.5819 0.878885 43.5859C9.24489 43.8819 22.1459 43.8099 23.3939 42.3979C23.4439 42.3419 23.4389 42.3159 23.4369 42.3029C23.2819 41.3239 20.6949 41.5319 18.6169 41.6989C16.3539 41.8809 14.9419 41.9609 14.4389 41.3359C14.3169 41.1839 14.1959 40.9179 14.3179 40.5169C14.5369 39.8009 15.7379 38.8609 23.6219 38.9389C27.8639 38.9829 32.0729 39.3139 32.1149 39.3169C32.2879 39.3309 32.4159 39.4819 32.4029 39.6539C32.3889 39.8269 32.2429 39.9559 32.0659 39.9419C25.2079 39.3969 15.3529 39.2719 14.9179 40.6999C14.8669 40.8669 14.9109 40.9219 14.9279 40.9429C15.2479 41.3419 17.0889 41.1939 18.5669 41.0749C21.1449 40.8679 23.8099 40.6529 24.0559 42.2049C24.0799 42.3559 24.0659 42.5849 23.8629 42.8139C22.7409 44.0829 15.2529 44.3529 9.08189 44.3529Z" fill="#F36750"/>
<path d="M114.457 40.4179H73.8389C73.8389 27.5119 80.2699 16.6609 88.9859 13.5369C90.6339 12.9449 92.3639 12.6309 94.1479 12.6309C97.7049 12.6309 101.049 13.8819 103.958 16.0819C105.77 17.4509 107.409 19.1849 108.828 21.2159C111.846 25.5379 113.858 31.1889 114.344 37.4629C114.419 38.4339 114.457 39.4219 114.457 40.4179Z" fill="#CDE6A4"/>
<path d="M66.2326 12.456L60.6396 8.94299C60.6396 8.94299 61.2406 5.67999 62.2366 3.31499C62.9196 1.70099 63.7846 0.504983 64.7736 1.06198C65.3896 1.41198 65.7886 2.30199 66.0386 3.43899C66.7766 6.79599 66.2326 12.321 66.2326 12.456Z" fill="#CDE6A4"/>
<path d="M43.7629 12.456L49.3559 8.94299C49.3559 8.94299 48.7549 5.67999 47.7589 3.31499C47.0759 1.70099 46.2109 0.504983 45.2219 1.06198C44.6059 1.41198 44.2069 2.30199 43.9569 3.43899C43.2179 6.79599 43.7629 12.321 43.7629 12.456Z" fill="#CDE6A4"/>
<path d="M44.392 23.123C44.392 23.123 41.1 15.728 35.564 15.952L37.808 26.487H44.392V23.123Z" fill="#CDE6A4"/>
<path d="M67.5139 17.0861V39.8581C67.5139 40.0461 67.5079 40.2281 67.4979 40.4131H42.6629C42.6569 40.2281 42.6499 40.0461 42.6499 39.8581V17.0861C42.6499 11.2341 46.7459 6.2951 52.2089 4.9911C53.1299 4.7691 54.0929 4.6521 55.0799 4.6521C61.9189 4.6521 67.5139 10.2471 67.5139 17.0861Z" fill="#CDE6A4"/>
<path d="M112.758 41.98H54.457C55.72 28.944 61.976 16.204 70.642 10.625C74.55 8.10396 78.954 6.68896 83.608 6.68896C85.902 6.68896 88.134 7.03396 90.277 7.68496C102.114 11.273 111.209 25.959 112.758 41.98Z" fill="#CDE6A4"/>
<path d="M59.101 13.866C59.101 12.014 57.264 10.512 54.998 10.512C52.732 10.512 50.895 12.014 50.895 13.866C50.895 15.718 52.732 17.22 54.998 17.22C57.264 17.22 59.101 15.719 59.101 13.866Z" fill="#CBAAD5"/>
<path d="M39.7479 45.175C45.5778 45.175 50.3039 40.4489 50.3039 34.619C50.3039 28.7891 45.5778 24.063 39.7479 24.063C33.918 24.063 29.1919 28.7891 29.1919 34.619C29.1919 40.4489 33.918 45.175 39.7479 45.175Z" fill="#F68B79"/>
<path d="M34.9421 37.596C31.8201 37.596 29.4181 37.116 29.3541 37.103C29.1841 37.068 29.0761 36.902 29.1111 36.733C29.1461 36.563 29.3121 36.455 29.4821 36.49C29.6461 36.524 45.9111 39.765 48.4391 29.022C48.4791 28.853 48.6481 28.75 48.8161 28.789C48.9841 28.829 49.0891 28.997 49.0491 29.166C47.3801 36.257 40.1581 37.596 34.9421 37.596Z" fill="#F36750"/>
<path d="M39.7479 45.4888C39.6599 45.4888 39.5729 45.4518 39.5109 45.3798C39.3979 45.2488 39.413 45.0508 39.544 44.9378C44.634 40.5498 47.0259 36.3158 46.6549 32.3518C46.1859 27.3458 41.3679 24.5038 41.3189 24.4758C41.1689 24.3888 41.1179 24.1978 41.2049 24.0478C41.2909 23.8978 41.4829 23.8468 41.6329 23.9338C41.8429 24.0558 46.7799 26.9698 47.2789 32.2938C47.6709 36.4708 45.206 40.8848 39.954 45.4128C39.894 45.4638 39.8209 45.4888 39.7479 45.4888Z" fill="#F36750"/>
<path d="M30.78 40.5019C30.622 40.5019 30.486 40.3829 30.469 40.2219C28.867 25.4829 39.165 23.7779 39.269 23.7629C39.44 23.7389 39.6 23.8559 39.625 24.0269C39.651 24.1979 39.533 24.3569 39.362 24.3829C39.337 24.3869 36.876 24.7799 34.643 26.9039C31.684 29.7179 30.456 34.2999 31.093 40.1549C31.112 40.3269 30.987 40.4819 30.815 40.4999C30.802 40.5009 30.791 40.5019 30.78 40.5019Z" fill="#F36750"/>
<path d="M44.5679 39.1289C41.9119 39.1289 39.5459 38.4959 37.4959 37.2339C32.4689 34.1369 31.1859 28.4179 31.1339 28.1759C31.0979 28.0069 31.2049 27.8399 31.3739 27.8039C31.5429 27.7669 31.7099 27.8749 31.7459 28.0439C31.7579 28.1009 33.0319 33.7509 37.8299 36.7039C40.9879 38.6469 44.9589 39.0169 49.6349 37.8039C49.8019 37.7599 49.9729 37.8609 50.0169 38.0289C50.0599 38.1959 49.9599 38.3679 49.7919 38.4109C47.9449 38.8899 46.2009 39.1289 44.5679 39.1289Z" fill="#F36750"/>
<path d="M35.8992 44.765C35.7582 44.765 35.6312 44.67 35.5952 44.528C33.4682 36.022 33.9142 30.129 36.9182 27.013C39.9072 23.912 44.2732 24.793 44.4572 24.832C44.6262 24.868 44.7342 25.034 44.6992 25.203C44.6632 25.372 44.4982 25.481 44.3282 25.445C44.2862 25.436 40.1092 24.601 37.3652 27.453C34.5252 30.404 34.1342 36.098 36.2032 44.376C36.2452 44.544 36.1432 44.714 35.9752 44.756C35.9502 44.762 35.9242 44.765 35.8992 44.765Z" fill="#F36750"/>
<path d="M46.43 43.105C46.266 43.105 46.128 42.977 46.117 42.811C45.339 29.996 34.048 26.08 33.934 26.042C33.77 25.987 33.681 25.81 33.736 25.645C33.79 25.481 33.969 25.393 34.132 25.447C34.25 25.486 45.939 29.541 46.742 42.773C46.752 42.946 46.621 43.094 46.448 43.105C46.443 43.105 46.436 43.105 46.43 43.105Z" fill="#F36750"/>
<path d="M34.3831 44.024C34.3641 44.024 34.3441 44.022 34.3241 44.018C34.1541 43.986 34.0421 43.822 34.0751 43.651C36.4341 31.246 47.3441 27.259 47.4541 27.22C47.6181 27.162 47.7961 27.248 47.8541 27.411C47.9121 27.574 47.8261 27.753 47.6631 27.811C47.5561 27.849 36.9821 31.725 34.6911 43.768C34.6621 43.92 34.5301 44.024 34.3831 44.024Z" fill="#F36750"/>
<path d="M40.0429 45.5949C39.8819 45.5949 39.7209 45.5919 39.5589 45.5849C37.7829 45.5109 34.4189 44.9559 31.8319 42.0669C31.1169 41.2689 31.0119 40.2379 31.5279 39.0869C32.0209 37.9859 33.0739 36.7939 34.4299 35.6279C34.1699 35.0859 33.9619 34.5239 33.8169 33.9549C32.9829 30.6699 34.4709 27.9349 37.8989 26.4529C38.7319 26.0929 39.4979 25.8639 40.1959 25.7669C40.0229 25.2179 39.8499 24.6819 39.6799 24.1609C39.6269 23.9959 39.7159 23.8199 39.8809 23.7659C40.0469 23.7119 40.2229 23.8019 40.2759 23.9669C40.2819 23.9839 40.4969 24.6449 40.8319 25.7139C41.7559 25.6909 42.5509 25.9359 43.1929 26.4449C44.1159 27.1769 44.6119 28.3659 44.8609 29.6409C45.9889 29.2559 46.9709 29.0359 47.6879 29.0359C47.6899 29.0359 47.6909 29.0359 47.6929 29.0359C48.3949 29.0369 48.8449 29.2499 49.0309 29.6689C49.5109 30.7499 49.1099 32.5199 47.9299 34.5249C47.0559 36.0109 45.7849 37.5409 44.3879 38.6829C45.4159 43.5649 44.8529 44.0959 44.6079 44.3279C43.7859 45.1049 41.9909 45.5949 40.0429 45.5949ZM34.7249 36.1979C33.4919 37.2699 32.5429 38.3529 32.0989 39.3439C31.6809 40.2789 31.7459 41.0329 32.2979 41.6499C34.7309 44.3669 37.9069 44.8899 39.5839 44.9599C41.8509 45.0549 43.5529 44.4629 44.1759 43.8739C44.5639 43.5079 44.3649 41.6679 43.8329 39.1109C42.7679 39.8829 41.6529 40.4069 40.6029 40.5009C38.6339 40.6759 36.1449 38.7369 34.7249 36.1979ZM35.2149 35.7839C36.5049 38.1569 38.7969 40.0319 40.5479 39.8759C41.5639 39.7849 42.6539 39.2429 43.6919 38.4479C43.2469 36.4169 42.6209 34.0079 41.9269 31.5519C39.6159 32.6849 37.1389 34.2069 35.2149 35.7839ZM42.4989 31.2789C42.6989 31.9809 42.8999 32.7009 43.0959 33.4249C43.5889 35.2419 43.9619 36.7499 44.2399 38.0019C45.4729 36.9369 46.5969 35.5529 47.3889 34.2069C48.4489 32.4049 48.8489 30.8039 48.4569 29.9229C48.3569 29.6969 47.9339 29.6629 47.6909 29.6619C47.6889 29.6619 47.6879 29.6619 47.6859 29.6619C47.0059 29.6619 46.0589 29.8809 44.9619 30.2629C45.2839 32.6669 44.8509 35.1559 44.8209 35.3229C44.7899 35.4929 44.6269 35.6069 44.4569 35.5759C44.2869 35.5449 44.1729 35.3829 44.2039 35.2119C44.2109 35.1729 44.6279 32.7769 44.3559 30.4849C43.7659 30.7119 43.1409 30.9789 42.4989 31.2789ZM40.3859 26.3729C39.7199 26.4519 38.9729 26.6709 38.1469 27.0279C33.8809 28.8729 33.9839 32.0629 34.4239 33.7999C34.5449 34.2769 34.7159 34.7509 34.9279 35.2109C36.9069 33.6029 39.4109 32.0739 41.7529 30.9399C41.3119 29.3979 40.8469 27.8489 40.3859 26.3729ZM41.0269 26.3399C41.3899 27.5109 41.8489 29.0249 42.3239 30.6689C42.9939 30.3589 43.6459 30.0849 44.2629 29.8539C44.0479 28.6699 43.6149 27.5779 42.8029 26.9349C42.3219 26.5539 41.7279 26.3559 41.0269 26.3399Z" fill="#F36750"/>
<path d="M61.7408 43.939C58.6008 43.995 55.1368 44.321 51.8838 44.735C49.9438 44.983 48.0758 45.262 46.3958 45.531C44.6628 45.81 43.1268 46.083 41.9238 46.302C41.0868 46.456 40.4068 46.581 39.9308 46.672C37.7588 47.08 35.6968 47.221 33.9478 46.857C31.5318 46.359 29.7578 45.105 29.3308 43.322C29.2678 43.052 29.2368 42.78 29.2368 42.504C29.2368 39.943 31.9608 37.264 35.9058 35.938C36.8398 35.537 38.1808 35.151 39.7988 34.794C41.0178 34.518 42.3878 34.255 43.8578 34.01C44.5688 33.891 45.3058 33.775 46.0548 33.662C46.8608 33.54 47.6848 33.424 48.5178 33.311C57.6438 32.07 67.8518 31.324 67.8518 31.324C67.8518 31.324 71.4558 43.763 61.7408 43.939Z" fill="#CDE6A4"/>
<path d="M34.38 46.9921C34.332 46.9921 34.285 46.9701 34.254 46.9281C33.888 46.4291 33.788 45.9141 33.956 45.3951C34.545 43.5841 38.27 42.3771 38.428 42.3271C38.511 42.3011 38.599 42.3471 38.625 42.4291C38.651 42.5111 38.606 42.6001 38.523 42.6261C38.486 42.6381 34.793 43.8341 34.254 45.4931C34.117 45.9161 34.199 46.3251 34.507 46.7431C34.558 46.8131 34.543 46.9111 34.473 46.9621C34.445 46.9821 34.413 46.9921 34.38 46.9921Z" fill="#AA888E"/>
<path d="M54.0518 10.9069C54.0518 11.4299 54.4758 11.8549 54.9998 11.8549C55.5228 11.8549 55.9467 11.4309 55.9467 10.9069C55.9467 10.3829 54.9998 11.2639 54.9998 11.2639C54.9998 11.2639 54.0518 10.3839 54.0518 10.9069Z" fill="#3A2127"/>
<path d="M53.0157 6.69493C52.9337 6.69493 52.8647 6.63092 52.8597 6.54792L52.5857 2.31693C52.5807 2.23093 52.6457 2.15593 52.7317 2.14993C52.8167 2.14493 52.8927 2.20992 52.8987 2.29592L53.1727 6.52693C53.1777 6.61293 53.1127 6.68793 53.0267 6.69393C53.0227 6.69493 53.0187 6.69493 53.0157 6.69493Z" fill="#AA888E"/>
<path d="M52.5006 6.82386C52.4456 6.82386 52.3916 6.79486 52.3626 6.74186L51.2786 4.75086C51.2376 4.67486 51.2656 4.57987 51.3416 4.53787C51.4176 4.49687 51.5126 4.52386 51.5546 4.60086L52.6386 6.59187C52.6796 6.66787 52.6516 6.76286 52.5756 6.80486C52.5516 6.81786 52.5266 6.82386 52.5006 6.82386Z" fill="#AA888E"/>
<path d="M56.9918 6.6949C56.9888 6.6949 56.9848 6.6949 56.9818 6.6949C56.8958 6.6889 56.8298 6.6149 56.8358 6.5279L57.1098 2.2969C57.1158 2.2109 57.1918 2.1459 57.2768 2.1509C57.3628 2.1569 57.4288 2.2309 57.4228 2.3179L57.1488 6.54891C57.1428 6.63091 57.0738 6.6949 56.9918 6.6949Z" fill="#AA888E"/>
<path d="M57.506 6.8239C57.481 6.8239 57.455 6.81791 57.431 6.80491C57.355 6.76391 57.327 6.66791 57.368 6.59191L58.452 4.6009C58.494 4.5249 58.589 4.49691 58.665 4.53791C58.741 4.57891 58.769 4.6749 58.728 4.7509L57.644 6.7419C57.615 6.7939 57.561 6.8239 57.506 6.8239Z" fill="#AA888E"/>
<path d="M36.967 27.739C35.649 29.514 34.074 30.88 32.502 31.726C30.33 32.896 28.165 33.077 26.693 31.985C24.156 30.102 24.644 25.149 27.781 20.921C30.919 16.693 35.519 14.792 38.055 16.675C40.592 18.558 40.105 23.511 36.967 27.739Z" fill="#CDE6A4"/>
<path d="M32.8201 31.589C32.8081 31.589 32.7951 31.588 32.7831 31.584C32.1821 31.437 31.7741 31.107 31.5691 30.602C30.8561 28.837 32.9341 25.518 33.0221 25.377C33.0691 25.304 33.1661 25.282 33.2381 25.328C33.3111 25.374 33.3331 25.471 33.2871 25.544C33.2661 25.577 31.2061 28.867 31.8591 30.484C32.0251 30.896 32.3511 31.156 32.8561 31.279C32.9401 31.3 32.9921 31.384 32.9711 31.468C32.9541 31.541 32.8901 31.589 32.8201 31.589Z" fill="#AA888E"/>
<path d="M44.849 27.257C44.71 27.257 44.583 27.164 44.546 27.023C44.502 26.856 44.602 26.685 44.769 26.64C44.786 26.635 46.311 26.22 47.132 25.09C46.127 24.016 45.731 21.734 45.93 20.709C46.03 20.193 46.277 20.054 46.466 20.028C46.849 19.975 47.221 20.346 47.666 21.233C48.351 22.597 48.458 23.819 47.984 24.866C47.972 24.894 47.959 24.921 47.946 24.948C48.269 25.119 48.724 25.132 49.373 24.56C50.54 23.531 50.726 21.448 50.906 19.434C51.105 17.205 51.311 14.899 52.834 13.765C53.796 13.048 55.157 12.883 56.995 13.258C57.164 13.293 57.274 13.458 57.239 13.628C57.204 13.798 57.038 13.907 56.869 13.872C55.216 13.534 54.019 13.664 53.208 14.268C51.91 15.235 51.717 17.398 51.53 19.49C51.339 21.627 51.141 23.837 49.787 25.031C48.839 25.867 48.09 25.742 47.622 25.483C46.669 26.778 45.008 27.227 44.928 27.248C44.902 27.253 44.875 27.257 44.849 27.257ZM46.573 20.692C46.36 21.205 46.601 23.417 47.456 24.507C47.797 23.661 47.679 22.654 47.106 21.513C46.838 20.978 46.661 20.771 46.573 20.692Z" fill="#F36750"/>
<path d="M55.9969 14.3359C55.9969 13.5839 55.5469 12.9739 54.9909 12.9739C54.4349 12.9739 53.9849 13.5839 53.9849 14.3359H55.9969Z" fill="#CBAAD5"/>
<path d="M55.1561 12.759V11.855C55.1561 11.768 55.0861 11.698 54.9991 11.698C54.9121 11.698 54.8421 11.768 54.8421 11.855V12.757C54.2711 12.853 53.8281 13.485 53.8281 14.256C53.8281 14.343 53.8981 14.413 53.9851 14.413C54.0721 14.413 54.1421 14.343 54.1421 14.256C54.1421 13.591 54.5231 13.051 54.9911 13.051C55.4591 13.051 55.8401 13.592 55.8401 14.256C55.8401 14.343 55.9101 14.413 55.9971 14.413C56.0841 14.413 56.1541 14.343 56.1541 14.256C56.1541 13.492 55.7191 12.865 55.1561 12.759Z" fill="#3A2127"/>
<path d="M73.8401 40.5759C73.7531 40.5759 73.6831 40.5059 73.6831 40.4189C73.6831 27.7229 79.9541 16.6079 88.9321 13.3879C90.6251 12.7809 92.3801 12.4729 94.1481 12.4729C94.2351 12.4729 94.3051 12.5429 94.3051 12.6299C94.3051 12.7169 94.2351 12.7869 94.1481 12.7869C92.4161 12.7869 90.6971 13.0889 89.0381 13.6839C80.1811 16.8599 73.9961 27.8539 73.9961 40.4199C73.9971 40.5059 73.9271 40.5759 73.8401 40.5759Z" fill="#AA888E"/>
<path d="M67.513 40.9979C67.482 40.9979 67.4511 40.9889 67.4241 40.9699C67.3531 40.9209 67.335 40.8229 67.384 40.7519C69.304 37.9689 67.593 20.9079 67.576 20.7359C67.567 20.6499 67.63 20.5729 67.716 20.5639C67.801 20.5559 67.879 20.6179 67.888 20.7039C67.96 21.4109 69.628 38.0529 67.642 40.9299C67.612 40.9739 67.563 40.9979 67.513 40.9979Z" fill="#AA888E"/>
<path d="M112.81 29.4411C112.778 29.3341 118.073 30.527 121.164 36.103C122.327 38.2 123.127 40.9271 123.127 44.4541H62.688C62.688 44.4541 71.852 14.86 114.166 35.908C114.166 35.908 114.002 33.4041 112.81 29.4411Z" fill="#CBAAD5"/>
<path d="M52.892 9.11507C52.892 9.91107 52.121 10.5821 51.037 10.8421C50.902 10.8771 50.764 10.9021 50.62 10.9201C50.441 10.9391 50.253 10.9551 50.059 10.9551C49.714 10.9551 49.385 10.9141 49.081 10.8391C48 10.5851 47.229 9.90807 47.229 9.11507C47.229 8.32807 47.997 7.65107 49.078 7.39407C49.385 7.31907 49.714 7.27808 50.059 7.27808C50.253 7.27808 50.441 7.29108 50.62 7.31308C50.764 7.33208 50.902 7.35708 51.037 7.39108C52.121 7.64808 52.892 8.32507 52.892 9.11507Z" fill="white"/>
<path d="M51.8829 9.11507C51.8829 9.84507 51.5439 10.4821 51.0369 10.8421C50.9019 10.8771 50.7639 10.9021 50.6199 10.9201C50.4409 10.9391 50.2529 10.9551 50.0589 10.9551C49.7139 10.9551 49.3849 10.9141 49.0809 10.8391C48.5729 10.4781 48.2349 9.84207 48.2349 9.11507C48.2349 8.39407 48.5699 7.75807 49.0779 7.39407C49.3849 7.31907 49.7139 7.27808 50.0589 7.27808C50.2529 7.27808 50.4409 7.29108 50.6199 7.31308C50.7639 7.33208 50.9019 7.35708 51.0369 7.39108C51.5439 7.75108 51.8829 8.39107 51.8829 9.11507Z" fill="#3A2127"/>
<path d="M50.0598 11.1101C48.4118 11.1101 47.0718 10.2151 47.0718 9.11607C47.0718 8.01607 48.4128 7.12207 50.0598 7.12207C50.2408 7.12207 50.4308 7.13307 50.6388 7.15707C52.0358 7.34107 53.0478 8.16507 53.0478 9.11607C53.0478 10.0821 52.0578 10.8881 50.6418 11.0751C50.4298 11.0981 50.2398 11.1101 50.0598 11.1101ZM50.0598 7.43507C48.5848 7.43507 47.3848 8.18907 47.3848 9.11607C47.3848 10.0431 48.5848 10.7971 50.0598 10.7971C50.2288 10.7971 50.4068 10.7861 50.6038 10.7641C51.8378 10.6011 52.7348 9.90807 52.7348 9.11607C52.7348 8.32407 51.8378 7.63107 50.6008 7.46807C50.4068 7.44607 50.2288 7.43507 50.0598 7.43507Z" fill="#AA888E"/>
<path d="M62.767 9.11507C62.767 9.91107 61.996 10.5821 60.912 10.8421C60.777 10.8771 60.639 10.9021 60.495 10.9201C60.316 10.9391 60.128 10.9551 59.934 10.9551C59.589 10.9551 59.26 10.9141 58.956 10.8391C57.875 10.5851 57.104 9.90807 57.104 9.11507C57.104 8.32807 57.872 7.65107 58.953 7.39407C59.26 7.31907 59.589 7.27808 59.934 7.27808C60.128 7.27808 60.316 7.29108 60.495 7.31308C60.639 7.33208 60.777 7.35708 60.912 7.39108C61.996 7.64808 62.767 8.32507 62.767 9.11507Z" fill="white"/>
<path d="M61.7579 9.11507C61.7579 9.84507 61.4189 10.4821 60.9119 10.8421C60.7769 10.8771 60.6389 10.9021 60.4949 10.9201C60.3159 10.9391 60.1279 10.9551 59.9339 10.9551C59.5889 10.9551 59.2599 10.9141 58.9559 10.8391C58.4479 10.4781 58.1099 9.84207 58.1099 9.11507C58.1099 8.39407 58.4449 7.75807 58.9529 7.39407C59.2599 7.31907 59.5889 7.27808 59.9339 7.27808C60.1279 7.27808 60.3159 7.29108 60.4949 7.31308C60.6389 7.33208 60.7769 7.35708 60.9119 7.39108C61.4199 7.75108 61.7579 8.39107 61.7579 9.11507Z" fill="#3A2127"/>
<path d="M59.9348 11.1101C58.2878 11.1101 56.9468 10.2151 56.9468 9.11607C56.9468 8.01607 58.2878 7.12207 59.9348 7.12207C60.1158 7.12207 60.3058 7.13307 60.5138 7.15707C61.9118 7.34107 62.9228 8.16507 62.9228 9.11607C62.9228 10.0821 61.9328 10.8881 60.5168 11.0751C60.3048 11.0981 60.1158 11.1101 59.9348 11.1101ZM59.9348 7.43507C58.4598 7.43507 57.2598 8.18907 57.2598 9.11607C57.2598 10.0431 58.4598 10.7971 59.9348 10.7971C60.1038 10.7971 60.2818 10.7861 60.4788 10.7641C61.7128 10.6011 62.6098 9.90807 62.6098 9.11607C62.6098 8.32407 61.7128 7.63107 60.4758 7.46807C60.2818 7.44607 60.1038 7.43507 59.9348 7.43507Z" fill="#AA888E"/>
<path d="M117.43 37.8261C117.404 37.8261 117.378 37.8201 117.354 37.8061C112.742 35.2541 109.418 33.8641 109.385 33.8501C109.305 33.8171 109.268 33.7251 109.301 33.6451C109.334 33.5651 109.425 33.5271 109.506 33.5611C109.539 33.5751 112.88 34.9721 117.506 37.5321C117.582 37.5741 117.609 37.6691 117.567 37.7451C117.539 37.7971 117.485 37.8261 117.43 37.8261Z" fill="#3A2127"/>
<path d="M97.7207 46.6071C90.6707 46.6071 88.5947 45.9021 87.8477 44.8541C87.2087 43.9571 87.6217 42.8581 88.0997 41.5851L88.1807 41.3701C89.9087 36.7421 90.0277 33.2721 88.5347 31.0571C86.9907 28.7661 84.1827 28.6641 84.1547 28.6641C83.9817 28.6591 83.8457 28.5161 83.8497 28.3431C83.8537 28.1731 83.9927 28.0371 84.1627 28.0371C84.1647 28.0371 84.1677 28.0371 84.1707 28.0371C84.2987 28.0401 87.3207 28.1421 89.0507 30.6991C90.6697 33.0921 90.5747 36.7561 88.7697 41.5891L88.6887 41.8051C88.2567 42.9551 87.9147 43.8641 88.3607 44.4891C89.2387 45.7211 93.1827 46.1491 101.546 45.9231C101.724 45.9131 101.863 46.0551 101.868 46.2281C101.873 46.4011 101.736 46.5451 101.563 46.5501C100.139 46.5881 98.8637 46.6071 97.7207 46.6071Z" fill="#F36750"/>
</svg>
