<svg width="111" height="71" viewBox="0 0 111 71" fill="none" xmlns="http://www.w3.org/2000/svg">
<path d="M12.7937 36.7819C12.0057 36.8059 11.3847 37.4529 11.3927 38.2409C11.4447 43.6289 11.8117 62.7449 14.3767 66.4829C17.3697 70.8449 35.1577 69.0929 37.6377 67.5309C40.1177 65.9699 41.4917 37.8689 41.0587 36.8259C40.3487 35.1189 18.6197 36.6049 12.7937 36.7819Z" fill="#CDE6A4"/>
<path d="M12.0679 40.5709C12.0679 40.5709 8.04887 39.7299 7.79187 41.0909C7.53487 42.4519 9.07487 43.2219 9.07487 43.2219C9.07487 43.2219 -2.55613 49.8929 1.37787 57.1619C5.31187 64.4309 15.4029 63.0869 15.4029 63.0869L14.9749 58.2739C14.9749 58.2739 6.76487 59.8129 5.99587 54.5109C5.22587 49.2089 13.0939 44.6759 13.0939 44.6759L12.0679 40.5709Z" fill="#CDE6A4"/>
<path d="M12.419 58.6428C10.872 58.6428 8.94503 58.4018 7.55803 57.4098C6.59603 56.7218 6.01903 55.7538 5.84203 54.5328C5.06603 49.1868 12.692 44.7268 13.017 44.5398C13.092 44.4968 13.188 44.5228 13.231 44.5978C13.274 44.6728 13.248 44.7688 13.173 44.8118C13.095 44.8568 5.40603 49.3528 6.15203 54.4888C6.31703 55.6228 6.85103 56.5198 7.74103 57.1558C10.277 58.9688 14.901 58.1278 14.948 58.1198C15.035 58.1038 15.115 58.1598 15.131 58.2448C15.147 58.3298 15.091 58.4118 15.006 58.4278C14.912 58.4448 13.821 58.6428 12.419 58.6428Z" fill="#D39188"/>
<path d="M52.55 23.3148C56.881 28.9958 57.983 35.4388 55.012 37.7038C52.04 39.9688 46.12 37.1998 41.789 31.5188C37.458 25.8368 36.356 19.3948 39.327 17.1298C42.299 14.8638 48.219 17.6328 52.55 23.3148Z" fill="#CBAAD5"/>
<path d="M76.6569 15.2799V38.0519C76.6569 43.9029 72.5609 48.8429 67.0979 50.1459C66.1759 50.3689 65.2139 50.4849 64.2269 50.4849C57.3879 50.4849 51.7939 44.8909 51.7939 38.0519V15.2799C51.7939 11.6129 53.4019 8.30292 55.9499 6.02192C56.7989 5.26092 57.7519 4.61492 58.7859 4.10992C60.4309 3.30092 62.2769 2.84692 64.2269 2.84692C67.6459 2.84692 70.7519 4.24492 73.0059 6.49792C75.2589 8.75092 76.6569 11.8609 76.6569 15.2799Z" fill="#CBAAD5"/>
<path d="M67.0979 31.2638V47.9528C66.1759 48.1748 65.2139 48.2908 64.2269 48.2908C57.3879 48.2908 51.7939 42.6968 51.7939 35.8578V19.1688C52.7149 18.9468 53.6779 18.8308 54.6649 18.8308C58.0839 18.8308 61.1929 20.2288 63.4469 22.4818C65.6999 24.7348 67.0979 27.8438 67.0979 31.2638Z" fill="#FFDD95"/>
<path d="M72.136 10.0139L67.438 7.24287C67.438 7.24287 67.942 4.66987 68.779 2.80487C69.352 1.53287 70.08 0.588869 70.91 1.02787C71.427 1.30387 71.762 2.00587 71.972 2.90187C72.594 5.55187 72.136 9.90787 72.136 10.0139Z" fill="#CBAAD5"/>
<path d="M59.9897 10.0149C59.9557 9.88893 58.8577 2.98994 56.8417 2.53194C54.8257 2.07394 55.2847 8.71093 55.2847 8.71093L59.9897 10.0149Z" fill="#CBAAD5"/>
<path d="M89.7167 69.8299L36.6467 69.8579C36.6467 69.8579 29.6957 54.7299 42.2037 41.2879C44.8367 38.4579 48.3337 35.6999 52.9407 33.1769C57.3977 30.7319 61.3497 27.4629 64.4867 23.4639L75.3277 9.64893C75.3277 9.64893 76.7037 12.0369 78.3987 16.2649C78.9347 17.5999 79.5017 19.1199 80.0687 20.8059C80.3007 21.4989 80.5387 22.2099 80.7797 22.9399C81.0677 23.8079 81.3627 24.7009 81.6637 25.6129C81.9117 26.3749 82.1617 27.1489 82.4127 27.9349C82.5817 28.4519 82.7477 28.9789 82.9177 29.5079C83.3507 30.8679 83.7857 32.2599 84.2217 33.6669C84.6107 34.9329 84.9987 36.2149 85.3817 37.4999C85.6297 38.3269 85.8737 39.1579 86.1117 39.9849C86.4937 41.2979 86.8667 42.6079 87.2247 43.9059C87.3027 44.1849 87.3787 44.4609 87.4537 44.7399C88.0307 46.8519 88.5697 48.9299 89.0517 50.9299C89.1737 51.4349 89.2927 51.9329 89.4087 52.4279C89.5777 53.1579 89.7407 53.8759 89.8917 54.5779C91.7007 62.9569 92.1837 69.2789 89.7167 69.8299Z" fill="#CBAAD5"/>
<path d="M43.6448 69.8579H23.2448C22.2128 69.8579 21.4358 68.8909 21.6858 67.8899C22.1238 66.1339 23.1328 64.6149 24.4948 63.5279C26.1118 62.2369 28.2258 61.5569 30.4688 61.8159L43.6458 63.3349V69.8579H43.6448Z" fill="#CBAAD5"/>
<path d="M25.8328 70.0149C25.7458 70.0149 25.6758 69.9449 25.6758 69.8579C25.6758 68.3729 26.3428 66.9888 27.5038 66.0618C28.5198 65.2498 29.7928 64.8859 31.0868 65.0349C31.1728 65.0449 31.2348 65.1229 31.2248 65.2089C31.2148 65.2949 31.1388 65.3579 31.0508 65.3469C29.8388 65.2079 28.6498 65.5479 27.6988 66.3069C26.6118 67.1749 25.9878 68.4689 25.9878 69.8579C25.9898 69.9449 25.9198 70.0149 25.8328 70.0149Z" fill="#3A2127"/>
<path d="M46.7997 26.3159C46.6257 28.5199 46.0157 30.5139 45.1337 32.0659C43.9147 34.2109 42.1757 35.5139 40.3497 35.3699C37.2007 35.1219 34.9827 30.6658 35.3957 25.4178C35.8087 20.1688 38.6967 16.1148 41.8457 16.3628C44.9947 16.6118 47.2127 21.0679 46.7997 26.3159Z" fill="#CBAAD5"/>
<path d="M57.3013 10.6749C57.3013 11.2429 56.1223 11.7009 54.6653 11.7009C54.4863 11.7009 54.3103 11.6929 54.1433 11.6819C52.9383 11.5869 52.0303 11.1749 52.0303 10.6749C52.0303 10.1789 52.9383 9.76293 54.1433 9.66793C54.3113 9.65693 54.4863 9.64893 54.6653 9.64893C56.1223 9.64893 57.3013 10.1099 57.3013 10.6749Z" fill="white"/>
<path d="M54.665 11.8569C54.482 11.8569 54.303 11.8489 54.132 11.8369C53.007 11.7479 51.873 11.3539 51.873 10.6739C51.873 9.99394 53.007 9.59994 54.13 9.51094C54.303 9.49894 54.482 9.49194 54.665 9.49194C56.257 9.49194 57.457 10.0009 57.457 10.6749C57.457 11.3489 56.257 11.8569 54.665 11.8569ZM54.665 9.80494C54.49 9.80494 54.317 9.81194 54.153 9.82394C52.922 9.92094 52.186 10.3329 52.186 10.6749C52.186 11.0169 52.922 11.4279 54.155 11.5259C54.317 11.5369 54.49 11.5449 54.665 11.5449C56.126 11.5449 57.144 11.0869 57.144 10.6759C57.144 10.2629 56.126 9.80494 54.665 9.80494Z" fill="#3A2127"/>
<path d="M57.3009 10.6749C57.3009 11.2429 56.1219 11.7009 54.6649 11.7009C54.4859 11.7009 54.3099 11.6929 54.1429 11.6819C53.9479 11.3809 53.8379 11.0369 53.8379 10.6749C53.8379 10.3129 53.9489 9.96893 54.1429 9.66793C54.3109 9.65693 54.4859 9.64893 54.6649 9.64893C56.1219 9.64893 57.3009 10.1099 57.3009 10.6749Z" fill="#3A2127"/>
<path d="M65.2622 10.6749C65.2622 11.2429 64.0832 11.7009 62.6262 11.7009C62.4472 11.7009 62.2712 11.6929 62.1042 11.6819C60.8992 11.5869 59.9912 11.1749 59.9912 10.6749C59.9912 10.1789 60.8992 9.76293 62.1042 9.66793C62.2722 9.65693 62.4472 9.64893 62.6262 9.64893C64.0832 9.64893 65.2622 10.1099 65.2622 10.6749Z" fill="white"/>
<path d="M62.626 11.8569C62.443 11.8569 62.264 11.8489 62.093 11.8369C60.968 11.7479 59.834 11.3539 59.834 10.6739C59.834 9.99394 60.968 9.59994 62.091 9.51094C62.264 9.49894 62.443 9.49194 62.626 9.49194C64.218 9.49194 65.418 10.0009 65.418 10.6749C65.418 11.3489 64.218 11.8569 62.626 11.8569ZM62.626 9.80494C62.451 9.80494 62.278 9.81194 62.114 9.82394C60.883 9.92094 60.147 10.3329 60.147 10.6749C60.147 11.0169 60.883 11.4279 62.116 11.5259C62.278 11.5369 62.451 11.5449 62.626 11.5449C64.087 11.5449 65.105 11.0869 65.105 10.6759C65.105 10.2629 64.087 9.80494 62.626 9.80494Z" fill="#3A2127"/>
<path d="M65.2618 10.6749C65.2618 11.2429 64.0828 11.7009 62.6258 11.7009C62.4468 11.7009 62.2708 11.6929 62.1038 11.6819C61.9088 11.3809 61.7988 11.0369 61.7988 10.6749C61.7988 10.3129 61.9098 9.96893 62.1038 9.66793C62.2718 9.65693 62.4468 9.64893 62.6258 9.64893C64.0828 9.64893 65.2618 10.1099 65.2618 10.6749Z" fill="#3A2127"/>
<path d="M59.0189 12.3278C59.0189 12.8668 58.5819 13.3038 58.0429 13.3038C57.5039 13.3038 57.0669 12.8668 57.0669 12.3278C57.0669 11.7888 58.0429 12.6958 58.0429 12.6958C58.0429 12.6958 59.0189 11.7888 59.0189 12.3278Z" fill="#3A2127"/>
<path d="M58.9817 15.4307L58.1987 14.3247V13.3037C58.1987 13.2167 58.1287 13.1467 58.0417 13.1467C57.9547 13.1467 57.8847 13.2167 57.8847 13.3037V14.3217L57.0407 15.4257C56.9887 15.4947 57.0017 15.5927 57.0697 15.6457C57.0977 15.6677 57.1317 15.6777 57.1647 15.6777C57.2117 15.6777 57.2587 15.6567 57.2897 15.6157L58.0357 14.6387L58.7237 15.6107C58.7547 15.6537 58.8027 15.6767 58.8517 15.6767C58.8827 15.6767 58.9147 15.6677 58.9417 15.6477C59.0147 15.5997 59.0317 15.5017 58.9817 15.4307Z" fill="#3A2127"/>
<path d="M39.502 51.5918C37.304 51.8318 35.232 51.6038 33.542 51.0258C31.208 50.2278 29.603 48.7618 29.405 46.9408C29.062 43.8008 33.027 40.7918 38.261 40.2198C43.495 39.6488 48.016 41.7308 48.358 44.8708C48.701 48.0118 44.736 51.0208 39.502 51.5918Z" fill="#CBAAD5"/>
<path d="M31.756 50.3518C31.701 50.3518 31.648 50.3228 31.619 50.2708C31.318 49.7298 31.283 49.2058 31.515 48.7128C32.326 46.9898 36.172 46.2588 36.336 46.2288C36.421 46.2118 36.503 46.2688 36.519 46.3538C36.535 46.4388 36.479 46.5208 36.393 46.5368C36.355 46.5438 32.541 47.2688 31.799 48.8468C31.61 49.2488 31.641 49.6648 31.893 50.1188C31.935 50.1948 31.908 50.2898 31.832 50.3318C31.808 50.3458 31.782 50.3518 31.756 50.3518Z" fill="#3A2127"/>
<path d="M57.1798 5.20792C57.1298 5.20792 57.0808 5.18391 57.0508 5.14091C57.0018 5.06991 57.0188 4.97192 57.0908 4.92292C57.6078 4.56492 58.1548 4.24392 58.7158 3.96892C60.4438 3.12092 62.2978 2.69092 64.2258 2.69092C64.3128 2.69092 64.3828 2.76092 64.3828 2.84792C64.3828 2.93492 64.3128 3.00492 64.2258 3.00492C62.3458 3.00492 60.5388 3.42392 58.8538 4.25092C58.3068 4.51992 57.7738 4.83292 57.2698 5.18192C57.2418 5.19892 57.2108 5.20792 57.1798 5.20792Z" fill="#3A2127"/>
<path d="M46.8119 26.1599C46.7259 26.1549 46.6499 26.2179 46.6439 26.3039C46.4769 28.4219 45.9079 30.3879 44.9979 31.9889C44.6619 32.5789 44.2919 33.0889 43.8999 33.5259C43.4239 33.6749 43.0199 33.6279 42.6689 33.3729C41.2569 32.3499 41.2549 28.4679 41.2549 28.4289C41.2549 28.3419 41.1849 28.2719 41.0989 28.2719C41.0129 28.2719 40.9419 28.3419 40.9409 28.4279C40.9399 28.5939 40.9419 32.5099 42.4839 33.6269C42.7579 33.8259 43.0639 33.9249 43.3969 33.9249C43.4409 33.9249 43.4899 33.9039 43.5339 33.9009C42.5609 34.8299 41.4649 35.2999 40.3609 35.2139C40.2779 35.2079 40.1989 35.2719 40.1929 35.3579C40.1859 35.4439 40.2509 35.5199 40.3369 35.5259C40.4329 35.5329 40.5299 35.5369 40.6259 35.5369C42.3559 35.5369 44.0349 34.3159 45.2699 32.1429C46.2029 30.5019 46.7859 28.4909 46.9559 26.3279C46.9629 26.2429 46.8979 26.1669 46.8119 26.1599Z" fill="#3A2127"/>
<path d="M60.5309 8.64493C60.5279 8.64493 60.5239 8.64493 60.5209 8.64493C60.4339 8.63893 60.3689 8.56493 60.3749 8.47793L60.6489 4.24693C60.6549 4.16093 60.7299 4.09793 60.8149 4.10093C60.9019 4.10693 60.9669 4.18093 60.9609 4.26793L60.6869 8.49893C60.6809 8.58093 60.6119 8.64493 60.5309 8.64493Z" fill="#3A2127"/>
<path d="M61.045 8.77286C61.02 8.77286 60.994 8.76686 60.97 8.75386C60.894 8.71286 60.866 8.61786 60.907 8.54186L61.991 6.55086C62.032 6.47486 62.1271 6.44686 62.2041 6.48786C62.2801 6.52886 62.308 6.62386 62.267 6.70086L61.183 8.69186C61.154 8.74386 61.1 8.77286 61.045 8.77286Z" fill="#3A2127"/>
<path d="M56.5544 8.6449C56.4724 8.6449 56.4034 8.5809 56.3984 8.4979L56.1244 4.2669C56.1184 4.1809 56.1844 4.1059 56.2704 4.0999C56.3554 4.0979 56.4314 4.1599 56.4364 4.2459L56.7104 8.4769C56.7164 8.5629 56.6504 8.6379 56.5644 8.6439C56.5614 8.6439 56.5574 8.6449 56.5544 8.6449Z" fill="#3A2127"/>
<path d="M56.0396 8.77284C55.9836 8.77284 55.9306 8.74284 55.9016 8.69084L54.8176 6.69984C54.7756 6.62384 54.8046 6.52884 54.8806 6.48684C54.9566 6.44484 55.0516 6.47384 55.0936 6.54984L56.1776 8.54084C56.2186 8.61684 56.1906 8.71183 56.1146 8.75283C56.0906 8.76683 56.0656 8.77284 56.0396 8.77284Z" fill="#3A2127"/>
<path d="M110.499 38.0348C110.455 38.9308 110.392 39.8468 110.305 40.7768C110.27 41.1558 110.227 41.5318 110.177 41.9048C109.234 49.1668 105.739 55.8298 100.267 60.7788C98.083 62.7528 95.6541 64.3888 93.0591 65.6588C88.8341 67.7238 84.164 68.8208 79.375 68.8208C77.037 68.8208 75.144 66.9278 75.144 64.5898C75.144 62.2518 77.037 60.3588 79.375 60.3588C82.271 60.3588 85.0421 59.8258 87.5891 58.8478C89.4791 58.1238 91.247 57.1558 92.851 55.9768C97.257 52.7388 100.432 47.9288 101.542 42.2968C101.692 41.5418 101.805 40.7738 101.877 39.9898C102.306 35.4168 102.112 31.4338 101.297 28.0518C101.234 27.7948 101.169 27.5408 101.1 27.2938C100.229 24.1098 98.7741 21.4958 96.7531 19.4738C95.1011 17.8188 95.1011 15.1428 96.7531 13.4878C98.4051 11.8358 101.084 11.8358 102.736 13.4878C103.51 14.2618 104.228 15.0828 104.883 15.9548C106.522 18.1138 107.804 20.5648 108.732 23.3078C109.352 25.1258 109.813 27.0718 110.12 29.1398C110.521 31.8888 110.65 34.8568 110.499 38.0348Z" fill="#CBAAD5"/>
<path d="M79.3738 68.9769C79.2868 68.9769 79.2168 68.9069 79.2168 68.8199C79.2168 68.7329 79.2868 68.6629 79.3738 68.6629C84.0748 68.6629 88.7828 67.5749 92.9898 65.5179C93.0678 65.4799 93.1618 65.5119 93.1998 65.5899C93.2378 65.6679 93.2058 65.7619 93.1278 65.7999C88.8778 67.8779 84.1218 68.9769 79.3738 68.9769Z" fill="#3A2127"/>
<path d="M87.5901 59.0048C87.5271 59.0048 87.4681 58.9668 87.4441 58.9048C87.4131 58.8238 87.4531 58.7328 87.5341 58.7028C89.3961 57.9888 91.1551 57.0288 92.7601 55.8498C92.8291 55.7988 92.9281 55.8138 92.9791 55.8838C93.0301 55.9538 93.0151 56.0518 92.9451 56.1028C91.3171 57.2988 89.5341 58.2718 87.6451 58.9958C87.6271 59.0018 87.6081 59.0048 87.5901 59.0048Z" fill="#3A2127"/>
<path d="M36.6457 70.0149C36.5867 70.0149 36.5297 69.9809 36.5027 69.9239C36.4847 69.8859 34.7497 66.0499 34.5757 60.6179C34.4157 55.6039 35.5877 48.1619 42.0847 41.1789C44.9017 38.1509 48.5277 35.4119 52.8617 33.0369C52.9377 32.9949 53.0327 33.0229 53.0747 33.0989C53.1167 33.1749 53.0887 33.2699 53.0127 33.3119C48.7077 35.6709 45.1087 38.3889 42.3137 41.3929C35.8937 48.2929 34.7317 55.6439 34.8877 60.5949C35.0567 65.9669 36.7697 69.7549 36.7867 69.7929C36.8227 69.8719 36.7887 69.9649 36.7097 70.0009C36.6897 70.0109 36.6677 70.0149 36.6457 70.0149Z" fill="#3A2127"/>
<path d="M32.2619 34.7839C32.2619 34.7839 20.7889 37.7189 24.2729 39.2539C27.7569 40.7879 32.2619 34.7839 32.2619 34.7839Z" fill="#45282A"/>
<path d="M30.8738 30.7868C30.8738 30.7868 13.2248 25.0158 18.8338 22.9728C24.4428 20.9288 30.8738 30.7868 30.8738 30.7868Z" fill="#45282A"/>
<path d="M53.1686 64.1399C54.9746 65.8679 62.1306 69.3769 65.5736 64.7709C69.0166 60.1639 59.7536 57.1439 59.4466 52.7309C59.1396 48.3179 59.5736 36.7659 51.9536 41.0719C44.3336 45.3769 44.6776 56.0159 53.1686 64.1399Z" fill="#FFDD95"/>
<path d="M82.9187 29.5099C79.4867 31.7849 74.0677 34.3799 70.0597 31.6099C65.3527 28.3539 73.7897 20.2079 78.3997 16.2649C78.9357 17.5999 79.5027 19.1199 80.0697 20.8059C80.3017 21.4989 80.5397 22.2099 80.7807 22.9399C81.0687 23.8079 81.3637 24.7009 81.6647 25.6129C82.0757 26.8769 82.4957 28.1779 82.9187 29.5099Z" fill="#FFDD95"/>
<path d="M89.0528 50.9318C86.0218 58.7988 71.7368 64.4488 69.1418 56.8428C66.2178 48.2778 79.9008 49.1138 81.4678 44.7258C83.0348 40.3378 74.3658 36.4708 75.1428 31.6658C75.5848 28.9298 79.2988 28.1248 82.4138 27.9368C82.5828 28.4538 82.7488 28.9808 82.9188 29.5098C83.3518 30.8698 83.7868 32.2618 84.2228 33.6688C84.6118 34.9348 84.9998 36.2168 85.3828 37.5018C85.6308 38.3288 85.8748 39.1598 86.1128 39.9868C86.4948 41.2998 86.8678 42.6098 87.2258 43.9078C87.3038 44.1868 87.3798 44.4628 87.4548 44.7418C88.0308 46.8538 88.5698 48.9318 89.0528 50.9318Z" fill="#F68B79"/>
<path d="M69.6948 53.5388C65.7478 52.3708 63.8778 47.8558 65.8288 44.2318C67.2298 41.6298 69.5968 39.0038 73.1118 40.5338C79.3798 43.2618 75.7138 55.2448 69.8688 53.5888C69.8098 53.5728 69.7518 53.5558 69.6948 53.5388Z" fill="#FFDD95"/>
<path d="M71.7007 32.1358C73.3217 29.7208 71.8037 27.8118 70.2397 26.7608C68.6757 25.7108 65.3827 25.0008 63.7617 27.4158C62.1407 29.8308 62.8037 34.4548 64.3677 35.5048C65.9317 36.5568 70.0797 34.5508 71.7007 32.1358Z" fill="#F68B79"/>
<path d="M110.305 40.7769C110.27 41.1559 110.227 41.5319 110.177 41.9049C109.378 42.6669 108.61 43.1049 107.927 43.1049C104.075 43.1049 105.968 29.4149 105.968 22.8899C105.968 20.4889 105.404 18.0639 104.884 15.9539C106.523 18.1129 107.805 20.5639 108.733 23.3069C110.405 28.2249 110.932 34.0639 110.305 40.7769Z" fill="#FFDD95"/>
<path d="M110.499 38.0348C107.772 39.8278 104.444 41.3948 101.542 42.2968C101.692 41.5418 101.805 40.7738 101.877 39.9898C102.306 35.4168 102.112 31.4338 101.297 28.0518C102.839 28.9168 104.372 29.5278 105.732 29.5278C107.302 29.5278 108.791 29.3268 110.12 29.1388C110.521 31.8888 110.65 34.8568 110.499 38.0348Z" fill="#F68B79"/>
</svg>
