<svg width="155" height="85" viewBox="0 0 155 85" fill="none" xmlns="http://www.w3.org/2000/svg">
<path d="M10.5609 59.054C7.39086 58.175 6.25987 52.267 8.03687 45.857C9.81287 39.447 13.8229 34.964 16.9939 35.842C20.1639 36.721 21.2939 42.629 19.5179 49.039C17.7409 55.449 13.7309 59.933 10.5609 59.054Z" fill="#A3BB7D"/>
<path d="M10.56 59.211C10.546 59.211 10.532 59.209 10.518 59.205C10.435 59.182 10.386 59.096 10.409 59.012L16.842 35.801C16.865 35.718 16.951 35.669 17.035 35.692C17.118 35.715 17.167 35.801 17.144 35.885L10.711 59.096C10.692 59.166 10.629 59.211 10.56 59.211Z" fill="#3A2127"/>
<path d="M27.0609 47.03C26.8969 47.03 26.7589 46.903 26.7479 46.737C26.2599 39.193 24.5539 27.124 22.0549 26.857C21.2709 26.771 19.5809 27.935 17.0899 36.664C17.0419 36.831 16.8679 36.927 16.7029 36.879C16.5369 36.831 16.4399 36.658 16.4879 36.492C18.5399 29.303 20.3319 26.04 22.1219 26.234C25.9659 26.646 27.2409 44.646 27.3739 46.697C27.3849 46.87 27.2539 47.019 27.0809 47.03C27.0749 47.03 27.0679 47.03 27.0609 47.03Z" fill="#3A2127"/>
<path d="M22.725 49.2189C22.107 49.2189 21.6021 48.7139 21.6021 48.0959V37.6999C21.6021 37.0819 22.107 36.5769 22.725 36.5769C23.343 36.5769 23.8481 37.0819 23.8481 37.6999V48.0959C23.8481 48.7139 23.343 49.2189 22.725 49.2189Z" fill="#F0AF55"/>
<path d="M151.663 62.1369C151.607 62.1589 151.306 62.2659 150.801 62.4319C149.654 62.7989 147.448 63.4439 144.627 63.9619C142.211 64.4039 139.34 64.7549 136.3 64.7549C136.137 64.7549 135.974 64.7549 135.811 64.7519H135.783C123.905 64.5949 115.502 59.2079 111.484 49.1689C107.964 40.3649 104.156 37.2089 101.583 36.1149C99.417 35.1939 97.788 35.6419 97.772 35.6449C95.609 36.5259 93.14 35.4819 92.262 33.3189C91.381 31.1529 92.425 28.6839 94.591 27.8059C95.064 27.6119 99.396 25.9879 104.896 28.3289C110.788 30.8329 115.646 36.7879 119.341 46.0239C119.98 47.6219 120.767 49.0299 121.713 50.2489C124.772 54.2259 129.464 56.2099 135.917 56.2879C136.046 56.2909 136.18 56.2909 136.309 56.2909C140.499 56.2909 144.32 55.4699 146.586 54.8559C146.758 54.8089 146.924 54.7619 147.078 54.7179C148.115 54.4199 148.723 54.2009 148.742 54.1949C150.933 53.3859 153.365 54.5109 154.173 56.7049C154.979 58.8969 153.857 61.3289 151.663 62.1369Z" fill="#F68B79"/>
<path d="M15.625 45.5119L22.984 80.3179H38.467L42.814 44.9329L15.625 45.5119Z" fill="#3A2127"/>
<path d="M101.837 81.7878H52.3931C46.6981 81.7878 41.8691 77.9108 40.4111 72.6678C40.3701 72.5238 40.3331 72.3768 40.2981 72.2288C40.0101 71.0408 39.9001 69.7868 39.9881 68.4988C40.0511 67.5958 40.2071 66.7188 40.4581 65.8848C41.9911 60.6538 46.9331 56.9248 52.5961 56.9248H101.836C102.025 56.9248 102.025 81.7878 101.837 81.7878Z" fill="#FFDD95"/>
<path d="M111.257 80.3299C105.18 80.3299 99.5641 78.9039 94.9941 76.4839C93.9571 75.9349 92.973 75.3339 92.048 74.6849C91.396 74.2309 90.7791 73.7539 90.1891 73.2529C89.3431 72.5349 88.562 71.7739 87.863 70.9709C87.308 70.3409 86.8011 69.6889 86.3461 69.0149C86.2181 68.8239 86.0921 68.6359 85.9731 68.4409C85.5501 67.7669 85.1771 67.0709 84.8571 66.3599L84.1301 66.3509L75.9471 66.2509L72.688 66.2099L57.2271 66.0219C57.2431 65.8589 57.2581 65.6989 57.2801 65.5359C57.3271 65.0879 57.387 64.6399 57.459 64.1949C58.258 59.0019 60.289 53.9089 62.988 49.3519C64.402 46.9669 65.9971 44.7289 67.6921 42.7009L68.3821 41.8959C69.8961 40.1629 71.4821 38.5989 73.0831 37.2449H73.0861C74.2391 36.2699 75.3991 35.4049 76.5461 34.6659C76.7691 34.5219 76.991 34.3839 77.217 34.2459C78.204 33.6499 79.2171 33.1239 80.2601 32.6759C81.6771 32.0619 83.1401 31.5849 84.6421 31.2589C86.2251 30.9109 87.8511 30.7329 89.5121 30.7329C90.3331 30.7329 91.1451 30.7769 91.9471 30.8649C92.6551 30.9399 93.3541 31.0499 94.0471 31.1879C94.7681 31.3349 95.4791 31.5139 96.1811 31.7269C105.336 34.5039 109.99 41.3669 111.131 54.0449C111.197 54.5179 111.257 80.3299 111.257 80.3299Z" fill="#FFDD95"/>
<path d="M96.813 74.6549C88.429 72.3639 81.967 67.1959 79.673 60.7929C79.081 59.1449 78.7671 57.4138 78.7671 55.6308C78.7671 53.9918 79.033 52.3939 79.535 50.8639C84.863 48.7549 91.9121 52.1459 95.8391 58.9439C99.0201 64.4529 99.236 70.6209 96.813 74.6549Z" fill="#F68B79"/>
<path d="M109.462 82.9937H90.8537C89.8217 82.9937 89.0447 82.0267 89.2947 81.0257C89.7327 79.2697 90.7417 77.7507 92.1037 76.6637C93.7207 75.3727 95.8357 74.6927 98.0777 74.9517L111.255 76.4707V81.2017C111.255 82.1917 110.452 82.9937 109.462 82.9937Z" fill="#FFDD95"/>
<path d="M93.4431 83.1507C93.3561 83.1507 93.2861 83.0807 93.2861 82.9937C93.2861 81.5087 93.9521 80.1247 95.1141 79.1977C96.1311 78.3857 97.4021 78.0207 98.6971 78.1707C98.7831 78.1807 98.8441 78.2587 98.8351 78.3447C98.8251 78.4307 98.7471 78.4927 98.6611 78.4827C97.4511 78.3437 96.2611 78.6847 95.3101 79.4437C94.2231 80.3117 93.6001 81.6057 93.6001 82.9947C93.5991 83.0807 93.5291 83.1507 93.4431 83.1507Z" fill="#3A2127"/>
<path d="M89.2949 81.1828C89.2819 81.1828 89.2699 81.1808 89.2569 81.1778C89.1729 81.1568 89.1219 81.0718 89.1429 80.9878C89.5769 79.2478 90.5939 77.6688 92.0069 76.5408C93.7349 75.1618 95.8979 74.5408 98.0969 74.7958C98.1829 74.8058 98.2449 74.8838 98.2349 74.9698C98.2249 75.0558 98.1439 75.1178 98.0609 75.1078C95.9449 74.8638 93.8649 75.4608 92.2029 76.7868C90.8439 77.8718 89.8659 79.3908 89.4489 81.0648C89.4289 81.1348 89.3649 81.1828 89.2949 81.1828Z" fill="#3A2127"/>
<path d="M100.041 75.5359C100.032 75.5359 100.023 75.5349 100.014 75.5339C89.9929 73.7749 82.1419 68.1469 79.5249 60.8459C78.9179 59.1559 78.6099 57.4019 78.6099 55.6309C78.6099 52.1629 79.8139 48.7379 82.0919 45.7269C83.4649 43.9099 85.2039 42.2599 87.2609 40.8229C87.3309 40.7739 87.4289 40.7899 87.4789 40.8619C87.5279 40.9329 87.5109 41.0309 87.4399 41.0799C85.4109 42.4989 83.6949 44.1259 82.3419 45.9169C80.1049 48.8739 78.9229 52.2329 78.9229 55.6319C78.9229 57.3659 79.2238 59.0849 79.8188 60.7409C82.3988 67.9359 90.1579 73.4859 100.068 75.2259C100.153 75.2409 100.21 75.3219 100.195 75.4069C100.182 75.4829 100.116 75.5359 100.041 75.5359Z" fill="#3A2127"/>
<path d="M100.042 75.5358C100.033 75.5358 100.024 75.5348 100.014 75.5338C98.9059 75.3388 97.8149 75.0938 96.7719 74.8068C96.6879 74.7838 96.6389 74.6978 96.6619 74.6138C96.6849 74.5308 96.7709 74.4808 96.8549 74.5048C97.8889 74.7898 98.9699 75.0318 100.069 75.2258C100.154 75.2408 100.211 75.3218 100.196 75.4068C100.182 75.4818 100.116 75.5358 100.042 75.5358Z" fill="#3A2127"/>
<path d="M79.5352 51.0209C79.5192 51.0209 79.5022 51.0179 79.4862 51.0129C79.4042 50.9859 79.3592 50.8969 79.3872 50.8149C79.9752 49.0369 80.8852 47.3249 82.0942 45.7269C83.4672 43.9109 85.2062 42.2599 87.2632 40.8229C87.3332 40.7739 87.4312 40.7899 87.4812 40.8619C87.5312 40.9329 87.5132 41.0309 87.4422 41.0799C85.4132 42.4989 83.6972 44.1259 82.3442 45.9169C81.1562 47.4879 80.2622 49.1689 79.6852 50.9139C79.6622 50.9789 79.6002 51.0209 79.5352 51.0209Z" fill="#3A2127"/>
<path d="M45.6048 59.4978L43.9978 65.9038C43.9978 65.9038 40.7088 66.3438 38.1518 66.1298C36.4058 65.9808 35.0009 65.5288 35.2229 64.4158C35.3649 63.7218 36.0878 63.0668 37.0908 62.4768C40.0548 60.7338 45.4768 59.5398 45.6048 59.4978Z" fill="#F68B79"/>
<path d="M43.0929 81.8129L39.9509 76.0029C39.9509 76.0029 36.6559 76.3899 34.2309 77.2299C32.5759 77.8059 31.3259 78.5919 31.8169 79.6149C32.1259 80.2519 32.9879 80.7089 34.1059 81.0319C37.4099 81.9879 42.9579 81.8039 43.0929 81.8129Z" fill="#FFDD95"/>
<path d="M57.674 81.7878C57.674 81.7878 57.279 81.8068 56.605 81.8318C54.552 81.9068 49.901 82.0478 45.874 81.9418C43.442 81.8788 41.232 81.7228 39.96 81.4088C37.772 80.8698 38.076 76.4348 38.829 72.4448C39.475 68.9978 40.456 65.8818 40.456 65.8818L40.459 65.8848L46.605 71.5638L49.068 73.8388L56.775 80.9568L57.674 81.7878Z" fill="#FFDD95"/>
<path d="M49.4518 72.4708C50.0078 72.4708 50.4588 72.0198 50.4588 71.4638C50.4588 70.9078 50.0078 70.4568 49.4518 70.4568C48.8958 70.4568 49.8317 71.4638 49.8317 71.4638C49.8317 71.4638 48.8958 72.4708 49.4518 72.4708Z" fill="#3A2127"/>
<path d="M56.844 79.9298C56.844 80.2808 56.822 80.6228 56.775 80.9578C56.737 81.2428 56.684 81.5188 56.615 81.7888C56.615 81.8048 56.609 81.8168 56.606 81.8328C54.553 81.9078 49.902 82.0488 45.875 81.9428C45.7 81.3098 45.605 80.6328 45.605 79.9308C45.605 79.8748 45.605 79.8178 45.608 79.7648C45.664 77.0918 47.075 74.8159 49.068 73.8419C49.732 73.5189 50.46 73.3398 51.224 73.3398C54.327 73.3388 56.844 76.2908 56.844 79.9298Z" fill="#CBAAD5"/>
<path d="M60.9651 56.9248V56.9778C60.9651 61.9138 51.9981 69.2198 46.6051 71.5638C46.1571 71.7578 45.7311 71.9178 45.3391 72.0398C43.5751 72.5888 41.9201 72.7728 40.4121 72.6668C39.8641 72.6318 39.3371 72.5568 38.8291 72.4438C39.4751 68.9968 40.4561 65.8808 40.4561 65.8808L40.4591 65.8838C41.9921 60.6528 46.9341 56.9238 52.5971 56.9238L60.9651 56.9248Z" fill="#F68B79"/>
<path d="M40.9771 73.881C40.8951 73.881 40.8261 73.817 40.8211 73.734C40.8161 73.648 40.8811 73.573 40.9671 73.567L45.1981 73.293C45.2821 73.288 45.3591 73.353 45.3651 73.439C45.3701 73.525 45.3051 73.6 45.2191 73.605L40.9881 73.879C40.9841 73.881 40.9811 73.881 40.9771 73.881Z" fill="#3A2127"/>
<path d="M43.3463 75.205C43.2913 75.205 43.2373 75.175 43.2083 75.123C43.1673 75.047 43.1953 74.952 43.2713 74.91L45.2623 73.8259C45.3383 73.7849 45.4333 73.812 45.4753 73.889C45.5163 73.965 45.4883 74.06 45.4123 74.102L43.4213 75.186C43.3973 75.199 43.3723 75.205 43.3463 75.205Z" fill="#3A2127"/>
<path d="M45.2082 69.632C45.2052 69.632 45.2012 69.632 45.1982 69.632L40.9672 69.358C40.8812 69.352 40.8152 69.278 40.8212 69.191C40.8272 69.105 40.9042 69.0399 40.9882 69.0449L45.2192 69.3189C45.3052 69.3249 45.3712 69.3989 45.3652 69.4859C45.3592 69.5679 45.2902 69.632 45.2082 69.632Z" fill="#3A2127"/>
<path d="M45.3373 69.1169C45.3123 69.1169 45.2863 69.1109 45.2623 69.0979L43.2713 68.0139C43.1953 67.9729 43.1673 67.8779 43.2083 67.8009C43.2503 67.7249 43.3443 67.6969 43.4213 67.7379L45.4123 68.8219C45.4883 68.8629 45.5163 68.9579 45.4753 69.0349C45.4473 69.0869 45.3933 69.1169 45.3373 69.1169Z" fill="#3A2127"/>
<path d="M88.6208 57.9779C89.9348 61.9799 96.8998 63.726 100.902 62.412C104.904 61.098 102.429 56.832 101.115 52.831C99.8008 48.829 97.2238 43.388 93.2218 44.702C89.2208 46.015 87.3068 53.9759 88.6208 57.9779Z" fill="#CBAAD5"/>
<path d="M49.6262 66.7688C49.6262 67.1138 49.5852 67.4428 49.5102 67.7468C49.4472 68.0168 49.3602 68.2638 49.2502 68.4898L49.2472 68.4928C48.9122 69.1668 48.3822 69.5988 47.7862 69.5988C47.1972 69.5988 46.6672 69.1668 46.3322 68.4958C46.2192 68.2728 46.1312 68.0228 46.0662 67.7498C45.9912 67.4428 45.9502 67.1138 45.9502 66.7688C45.9502 66.5748 45.9632 66.3868 45.9842 66.2078C46.0032 66.0638 46.0282 65.9258 46.0622 65.7908C46.1282 65.5178 46.2192 65.2648 46.3312 65.0388C46.6662 64.3678 47.1932 63.9358 47.7852 63.9358C48.3812 63.9358 48.9072 64.3688 49.2422 65.0418C49.3552 65.2678 49.4462 65.5178 49.5122 65.7908C49.5462 65.9258 49.5722 66.0638 49.5902 66.2078C49.6102 66.3868 49.6262 66.5748 49.6262 66.7688Z" fill="white"/>
<path d="M49.6262 66.7689C49.6262 67.1139 49.5852 67.4429 49.5102 67.7469C49.4472 68.0169 49.3602 68.2639 49.2502 68.4899L49.2472 68.4929C48.8432 68.7659 48.3382 68.9289 47.7862 68.9289C47.2412 68.9289 46.7362 68.7659 46.3322 68.4969C46.2192 68.2739 46.1312 68.0239 46.0662 67.7509C45.9912 67.4439 45.9502 67.1149 45.9502 66.7699C45.9502 66.5759 45.9632 66.3879 45.9842 66.2089C46.0032 66.0649 46.0282 65.9269 46.0622 65.7919C46.1282 65.5189 46.2192 65.2659 46.3312 65.0399C46.7352 64.7669 47.2402 64.6079 47.7852 64.6079C48.3342 64.6079 48.8382 64.7709 49.2422 65.0439C49.3552 65.2699 49.4462 65.5199 49.5122 65.7929C49.5462 65.9279 49.5722 66.0659 49.5902 66.2099C49.6102 66.3869 49.6262 66.5749 49.6262 66.7689Z" fill="#3A2127"/>
<path d="M47.786 69.7548C46.686 69.7548 45.792 68.4148 45.792 66.7668C45.792 66.5868 45.803 66.3978 45.827 66.1878C46.011 64.7908 46.835 63.7788 47.786 63.7788C48.752 63.7788 49.558 64.7688 49.745 66.1848C49.769 66.3968 49.78 66.5858 49.78 66.7668C49.78 68.4138 48.886 69.7548 47.786 69.7548ZM47.786 64.0918C46.994 64.0918 46.301 64.9888 46.138 66.2258C46.116 66.4208 46.105 66.5988 46.105 66.7668C46.105 68.2418 46.859 69.4418 47.786 69.4418C48.713 69.4418 49.467 68.2418 49.467 66.7668C49.467 66.5978 49.456 66.4198 49.434 66.2228C49.271 64.9898 48.578 64.0918 47.786 64.0918Z" fill="#3A2127"/>
<path d="M49.6262 76.1719C49.6262 76.5169 49.5852 76.8459 49.5102 77.1499C49.4472 77.4199 49.3602 77.6669 49.2502 77.8929L49.2472 77.8959C48.9122 78.5699 48.3822 79.0019 47.7862 79.0019C47.1972 79.0019 46.6672 78.5689 46.3322 77.8989C46.2192 77.6769 46.1312 77.4259 46.0662 77.1529C45.9912 76.8459 45.9502 76.5169 45.9502 76.1719C45.9502 75.9779 45.9632 75.7899 45.9842 75.6109C46.0032 75.4669 46.0282 75.3289 46.0622 75.1939C46.1282 74.9209 46.2192 74.6669 46.3312 74.4419C46.6662 73.7709 47.1932 73.3389 47.7852 73.3389C48.3812 73.3389 48.9072 73.7709 49.2422 74.4449C49.3552 74.6709 49.4462 74.9209 49.5122 75.1939C49.5462 75.3289 49.5722 75.4669 49.5902 75.6109C49.6102 75.7889 49.6262 75.9769 49.6262 76.1719Z" fill="white"/>
<path d="M49.6262 76.172C49.6262 76.517 49.5852 76.846 49.5102 77.15C49.4472 77.42 49.3602 77.667 49.2502 77.893L49.2472 77.896C48.8432 78.169 48.3382 78.332 47.7862 78.332C47.2412 78.332 46.7362 78.169 46.3322 77.899C46.2192 77.677 46.1312 77.426 46.0662 77.153C45.9912 76.846 45.9502 76.517 45.9502 76.172C45.9502 75.978 45.9632 75.79 45.9842 75.611C46.0032 75.467 46.0282 75.329 46.0622 75.194C46.1282 74.921 46.2192 74.667 46.3312 74.442C46.7352 74.169 47.2402 74.01 47.7852 74.01C48.3342 74.01 48.8382 74.173 49.2422 74.446C49.3552 74.672 49.4462 74.922 49.5122 75.195C49.5462 75.33 49.5722 75.468 49.5902 75.612C49.6102 75.789 49.6262 75.977 49.6262 76.172Z" fill="#3A2127"/>
<path d="M47.786 79.1569C46.686 79.1569 45.792 77.8169 45.792 76.1689C45.792 75.9889 45.803 75.7999 45.827 75.5899C46.011 74.1929 46.835 73.1809 47.786 73.1809C48.752 73.1809 49.558 74.1709 49.745 75.5869C49.769 75.7989 49.78 75.9879 49.78 76.1689C49.78 77.8169 48.886 79.1569 47.786 79.1569ZM47.786 73.4939C46.994 73.4939 46.301 74.3909 46.138 75.6279C46.116 75.8229 46.105 76.0009 46.105 76.1689C46.105 77.6439 46.859 78.8439 47.786 78.8439C48.713 78.8439 49.467 77.6439 49.467 76.1689C49.467 75.9999 49.456 75.8219 49.434 75.6259C49.271 74.3919 48.578 73.4939 47.786 73.4939Z" fill="#FFDD95"/>
<path d="M53.4688 72.4649L51.8627 71.4659L53.4667 70.5009C53.5407 70.4559 53.5648 70.3599 53.5208 70.2859C53.4768 70.2119 53.3798 70.1879 53.3058 70.2329L51.5198 71.3079H50.4587C50.3717 71.3079 50.3018 71.3779 50.3018 71.4649C50.3018 71.5519 50.3717 71.6219 50.4587 71.6219H51.5187L53.3038 72.7329C53.3298 72.7489 53.3578 72.7559 53.3868 72.7559C53.4388 72.7559 53.4908 72.7299 53.5198 72.6819C53.5648 72.6069 53.5428 72.5099 53.4688 72.4649Z" fill="#3A2127"/>
<path d="M82.1129 83.9409C78.9849 83.6609 75.5059 83.6139 72.2279 83.6769C70.2729 83.7149 68.3859 83.7929 66.6859 83.8809C64.9329 83.9729 63.3769 84.0789 62.1569 84.1689C61.3089 84.2319 60.6189 84.2839 60.1359 84.3229C57.9329 84.4959 55.8679 84.4149 54.1679 83.8659C51.8189 83.1119 50.1889 81.6749 49.9569 79.8569C49.9229 79.5819 49.9219 79.3079 49.9509 79.0339C50.2249 76.4879 54.3509 73.9329 57.2849 73.2199C58.2709 72.9799 59.6309 72.6809 61.2779 72.4989C62.5199 72.3549 63.9099 72.2399 65.3969 72.1549C66.1169 72.1129 66.8619 72.0759 67.6189 72.0439C68.4329 72.0089 69.2649 71.9819 70.1059 71.9589C79.3129 71.7019 89.5419 72.0539 89.5419 72.0539C89.5419 72.0539 91.7919 84.8069 82.1129 83.9409Z" fill="#FFDD95"/>
<path d="M82.9998 84.1378C82.7078 84.1378 82.4078 84.1238 82.0988 84.0968C82.0128 84.0888 81.9487 84.0128 81.9567 83.9268C81.9647 83.8398 82.0418 83.7759 82.1268 83.7849C84.4158 83.9889 86.2137 83.4058 87.4617 82.0498C90.5277 78.7188 89.3598 71.7658 89.3478 71.6958C89.3328 71.6108 89.3897 71.5288 89.4747 71.5148C89.5587 71.4998 89.6408 71.5568 89.6558 71.6428C89.7068 71.9338 90.8628 78.8168 87.6918 82.2628C86.5458 83.5088 84.9698 84.1378 82.9998 84.1378Z" fill="#3A2127"/>
<path d="M49.9558 80.0128C49.8778 80.0128 49.8098 79.9548 49.8008 79.8748C49.7658 79.5898 49.7638 79.3008 49.7948 79.0158C50.0788 76.3828 54.3268 73.7758 57.2478 73.0658C58.1568 72.8448 59.5608 72.5298 61.2608 72.3418C62.4878 72.1998 63.8768 72.0838 65.3888 71.9968C66.1098 71.9538 66.8548 71.9178 67.6128 71.8858C68.4278 71.8508 69.2598 71.8228 70.1018 71.8008C70.1038 71.8008 70.1058 71.8008 70.1058 71.8008C70.1908 71.8008 70.2598 71.8678 70.2628 71.9528C70.2648 72.0398 70.1968 72.1108 70.1098 72.1138C69.2698 72.1368 68.4388 72.1638 67.6258 72.1988C66.8698 72.2308 66.1258 72.2668 65.4068 72.3098C63.9008 72.3968 62.5178 72.5118 61.2968 72.6528C59.6148 72.8388 58.2238 73.1508 57.3228 73.3698C54.4908 74.0578 50.3768 76.5508 50.1078 79.0488C50.0798 79.3098 50.0818 79.5748 50.1128 79.8368C50.1228 79.9228 50.0618 80.0008 49.9758 80.0108C49.9688 80.0128 49.9618 80.0128 49.9558 80.0128Z" fill="#3A2127"/>
<path d="M54.5996 84.0477C54.5456 84.0477 54.4926 84.0197 54.4636 83.9697C54.1526 83.4347 54.1086 82.9107 54.3316 82.4137C55.1106 80.6767 58.9436 79.8757 59.1066 79.8417C59.1906 79.8247 59.2736 79.8787 59.2916 79.9637C59.3086 80.0487 59.2546 80.1317 59.1696 80.1487C59.1306 80.1567 55.3316 80.9507 54.6176 82.5417C54.4356 82.9477 54.4736 83.3627 54.7346 83.8117C54.7786 83.8867 54.7526 83.9827 54.6776 84.0257C54.6536 84.0407 54.6266 84.0477 54.5996 84.0477Z" fill="#3A2127"/>
<path d="M66.4169 57.1348L55.512 57.0808C55.426 57.0808 55.356 57.0098 55.356 56.9228C55.356 56.8358 55.4249 56.7508 55.5139 56.7668L66.418 56.8208C66.504 56.8208 66.5739 56.8918 66.5739 56.9788C66.5729 57.0658 66.5029 57.1348 66.4169 57.1348Z" fill="#3A2127"/>
<path d="M73.5193 18.0908C71.8193 22.6948 62.8963 23.6398 53.5893 20.2028C44.2823 16.7658 38.1153 10.2478 39.8163 5.64383C41.5163 1.03983 50.4393 0.0948298 59.7463 3.53183C69.0533 6.96883 75.2193 13.4868 73.5193 18.0908Z" fill="#A3BB7D"/>
<path d="M73.5188 18.2478C73.5008 18.2478 73.4829 18.2448 73.4649 18.2378L39.7619 5.79084C39.6809 5.76084 39.6389 5.67084 39.6689 5.58984C39.6989 5.50884 39.7899 5.46785 39.8699 5.49685L73.5738 17.9438C73.6548 17.9738 73.6969 18.0638 73.6669 18.1448C73.6429 18.2088 73.5828 18.2478 73.5188 18.2478Z" fill="#3A2127"/>
<path d="M33.8181 47.0299C33.6821 47.0299 33.5582 46.9419 33.5172 46.8049C33.1292 45.4929 24.1122 14.5739 32.4052 6.81286C34.5612 4.79586 37.6961 4.52686 41.7231 6.01386C41.8851 6.07386 41.9681 6.25386 41.9081 6.41686C41.8481 6.57986 41.6681 6.66286 41.5051 6.60186C37.7201 5.20386 34.8021 5.42786 32.8331 7.27086C24.8201 14.7679 34.0231 46.3089 34.1171 46.6269C34.1661 46.7929 34.0712 46.9669 33.9052 47.0159C33.8772 47.0249 33.8471 47.0299 33.8181 47.0299Z" fill="#3A2127"/>
<path d="M4.37999 44.9329C-0.583009 42.7459 -1.02101 32.839 3.40099 22.806C7.82299 12.773 15.431 6.41295 20.393 8.59995C25.356 10.7869 25.794 20.6939 21.372 30.7269C16.95 40.7599 9.34199 47.1199 4.37999 44.9329Z" fill="#CDE6A4"/>
<path d="M4.37993 45.09C4.35893 45.09 4.33794 45.086 4.31694 45.077C4.23794 45.042 4.20195 44.95 4.23595 44.87L20.2489 8.537C20.2839 8.458 20.3769 8.422 20.4559 8.457C20.5349 8.492 20.5709 8.584 20.5369 8.664L4.52391 44.997C4.49691 45.055 4.43993 45.09 4.37993 45.09Z" fill="#3A2127"/>
<path d="M30.5028 45.5359C30.4968 45.5359 30.4918 45.5359 30.4858 45.5359C30.3128 45.5269 30.1808 45.3789 30.1898 45.2059C30.8188 33.4239 31.3848 2.5929 26.5208 1.4329C25.4318 1.1719 23.4448 2.4509 20.1198 9.9949C20.0498 10.1529 19.8648 10.2249 19.7068 10.1549C19.5488 10.0849 19.4768 9.8999 19.5468 9.7419C22.3958 3.2769 24.7258 0.359904 26.6668 0.822904C29.4258 1.4809 30.9028 8.9719 31.1808 23.7219C31.3828 34.4479 30.8218 45.1319 30.8158 45.2389C30.8068 45.4059 30.6688 45.5359 30.5028 45.5359Z" fill="#3A2127"/>
<path d="M77.3993 58.1031C83.6194 52.4696 79.4289 37.7084 68.0395 25.133C56.6501 12.5577 42.3747 6.93026 36.1546 12.5638C29.9345 18.1973 34.125 32.9585 45.5144 45.5338C56.9038 58.1092 71.1791 63.7366 77.3993 58.1031Z" fill="#CDE6A4"/>
<path d="M77.3941 58.2648C77.3511 58.2648 77.3091 58.2478 77.2781 58.2138L36.0331 12.6738C35.9751 12.6098 35.9801 12.5108 36.0441 12.4528C36.1081 12.3948 36.2071 12.3998 36.2651 12.4638L77.5101 58.0038C77.5681 58.0678 77.5631 58.1668 77.4991 58.2248C77.4701 58.2518 77.4321 58.2648 77.3941 58.2648Z" fill="#3A2127"/>
<path d="M28.8451 46.5159C28.7021 46.5159 28.5721 46.4169 28.5401 46.2709C28.2211 44.8459 20.7922 11.3369 27.6532 7.77987C29.7512 6.69187 32.7522 8.34987 36.8262 12.8469C36.9422 12.9749 36.9332 13.1739 36.8042 13.2899C36.6762 13.4059 36.4782 13.3959 36.3612 13.2679C32.5602 9.07087 29.7271 7.40987 27.9411 8.33687C21.5061 11.6729 29.0741 45.7899 29.1521 46.1339C29.1901 46.3029 29.0841 46.4709 28.9151 46.5079C28.8911 46.5139 28.8671 46.5159 28.8451 46.5159Z" fill="#3A2127"/>
<path d="M150.801 62.432C148.67 63.115 142.887 64.754 136.3 64.754C136.137 64.754 135.974 64.754 135.811 64.751H135.783C138.193 63.353 139.381 60.905 136.607 58.787C132.298 55.496 126.578 58.238 121.955 56.515C118.899 55.374 120.328 52.281 121.714 50.25C124.773 54.227 129.465 56.211 135.918 56.289C136.047 56.292 136.181 56.292 136.31 56.292C140.82 56.292 144.901 55.339 147.079 54.719C149.256 56.678 150.529 59.589 150.801 62.432Z" fill="#FFDD95"/>
<path d="M151.663 62.1369C151.607 62.1589 151.306 62.2659 150.801 62.4319C149.654 62.7989 147.448 63.4439 144.627 63.9619C144.52 63.3039 144.467 62.6269 144.467 61.9369C144.467 59.3389 145.241 56.9129 146.586 54.8569C146.758 54.8099 146.924 54.7629 147.078 54.7189C148.115 54.4209 148.723 54.2019 148.742 54.1959C150.933 53.3869 153.365 54.5119 154.173 56.7059C154.979 58.8969 153.857 61.3289 151.663 62.1369Z" fill="#CBAAD5"/>
</svg>
