<svg width="128" height="85" viewBox="0 0 128 85" fill="none" xmlns="http://www.w3.org/2000/svg">
<path d="M6.20174 84.575H122.285C126.589 84.575 129.349 79.999 127.342 76.192L121.913 65.895C120.924 64.019 118.977 62.844 116.856 62.844H13.8657C12.0587 62.844 10.3587 63.698 9.27974 65.148L1.61574 75.445C-1.19126 79.216 1.50074 84.575 6.20174 84.575Z" fill="#CBAAD5"/>
<path d="M121.345 83.4781H5.26198C5.17498 83.4781 5.10498 83.4081 5.10498 83.3211C5.10498 83.2341 5.17498 83.1641 5.26198 83.1641H121.345C121.432 83.1641 121.502 83.2341 121.502 83.3211C121.502 83.4081 121.432 83.4781 121.345 83.4781Z" fill="#3A2127"/>
<path d="M44.6198 56.8989C45.4878 57.5789 46.2997 58.2779 47.0577 58.9829C52.9157 64.4269 55.6387 70.3569 56.5477 72.6789C56.7987 73.3279 56.9118 73.6939 56.9118 73.6939L59.3308 61.2199L61.5307 49.8709L52.0348 49.5109L49.6557 49.4199L49.3138 49.4069L47.3517 49.3319C43.2437 49.1799 41.3818 54.3609 44.6198 56.8989Z" fill="#FFDD95"/>
<path d="M33.4737 72.17H52.0817C53.1137 72.17 53.8907 71.2029 53.6407 70.2019C53.2027 68.4459 52.1937 66.9269 50.8317 65.8399C49.2147 64.5489 47.1007 63.869 44.8577 64.128L31.6807 65.647V70.378C31.6807 71.368 32.4827 72.17 33.4737 72.17Z" fill="#FFDD95"/>
<path d="M49.4927 72.327C49.4057 72.327 49.3357 72.257 49.3357 72.17C49.3357 70.78 48.7127 69.486 47.6257 68.618C46.6747 67.859 45.4857 67.518 44.2747 67.658C44.1907 67.667 44.1107 67.606 44.1007 67.52C44.0907 67.434 44.1527 67.356 44.2387 67.346C45.5327 67.198 46.8047 67.562 47.8217 68.373C48.9837 69.3 49.6497 70.684 49.6497 72.169C49.6497 72.257 49.5797 72.327 49.4927 72.327Z" fill="#3A2127"/>
<path d="M23.4449 76.8719H42.0529C43.0849 76.8719 43.8619 75.9049 43.6119 74.9029C43.1739 73.1469 42.1649 71.6279 40.8029 70.5409C39.1859 69.2499 37.0719 68.5699 34.8289 68.8289L21.6519 70.3479V75.0789C21.6519 76.0689 22.4539 76.8719 23.4449 76.8719Z" fill="#FFDD95"/>
<path d="M39.4639 77.028C39.3769 77.028 39.3069 76.958 39.3069 76.871C39.3069 75.481 38.6839 74.187 37.5969 73.32C36.6459 72.561 35.4559 72.221 34.2459 72.36C34.1629 72.37 34.0819 72.308 34.0719 72.222C34.0619 72.136 34.1239 72.058 34.2099 72.048C35.5039 71.9 36.7759 72.263 37.7929 73.075C38.9549 74.002 39.6209 75.386 39.6209 76.871C39.6209 76.958 39.5499 77.028 39.4639 77.028Z" fill="#3A2127"/>
<path d="M43.6107 75.06C43.5407 75.06 43.4767 75.013 43.4587 74.941C43.0417 73.267 42.0637 71.748 40.7047 70.664C39.0417 69.337 36.9617 68.741 34.8457 68.985L21.6687 70.504C21.5827 70.514 21.5047 70.452 21.4947 70.366C21.4847 70.28 21.5467 70.202 21.6327 70.192L34.8097 68.673C37.0077 68.42 39.1717 69.04 40.8997 70.419C42.3127 71.546 43.3287 73.125 43.7627 74.865C43.7837 74.949 43.7327 75.034 43.6487 75.055C43.6367 75.058 43.6237 75.06 43.6107 75.06Z" fill="#3A2127"/>
<path d="M67.901 70.973C68.5 71.735 69.308 72.358 70.393 72.753C71.158 73.032 72.06 73.198 73.12 73.217C76.26 73.273 79.724 73.599 82.977 74.013C84.917 74.261 86.785 74.54 88.465 74.809C90.198 75.088 91.734 75.36 92.937 75.58C93.774 75.734 94.454 75.859 94.93 75.95C95.19 76 95.45 76.044 95.707 76.085C97.594 76.383 99.374 76.455 100.913 76.135C103.329 75.637 105.103 74.383 105.53 72.6C105.593 72.33 105.624 72.058 105.624 71.782C105.624 69.221 102.844 66.702 98.955 65.216C98.005 64.853 96.68 64.429 95.062 64.072C94.072 63.846 92.981 63.633 91.818 63.43C91.552 63.38 91.279 63.336 91.003 63.289C90.31 63.173 89.593 63.06 88.862 62.95C88.843 62.947 88.824 62.944 88.806 62.941C88.001 62.819 87.176 62.703 86.343 62.59C84.948 62.402 83.532 62.223 82.128 62.057C74.337 61.139 67.009 60.603 67.009 60.603C67.009 60.603 65.052 67.347 67.901 70.973Z" fill="#F68B79"/>
<path d="M100.48 76.271C100.448 76.271 100.415 76.261 100.387 76.241C100.317 76.19 100.302 76.092 100.354 76.022C100.661 75.603 100.744 75.194 100.607 74.771C100.068 73.111 96.3749 71.917 96.3379 71.905C96.2549 71.879 96.2099 71.791 96.2359 71.708C96.2619 71.626 96.3509 71.581 96.4329 71.606C96.5909 71.656 100.316 72.863 100.905 74.674C101.073 75.192 100.973 75.708 100.607 76.207C100.576 76.249 100.529 76.271 100.48 76.271Z" fill="#3A2127"/>
<path d="M21.6499 70.7601C27.7269 70.7601 33.3429 69.3341 37.9129 66.9141C38.9499 66.3661 39.9339 65.7641 40.8589 65.1151C41.5109 64.6611 42.1279 64.1841 42.7179 63.6831C43.5639 62.9651 44.3449 62.2041 45.0439 61.4011C45.5989 60.7711 46.1069 60.1191 46.5609 59.4451C46.6889 59.2541 46.8149 59.0661 46.9339 58.8711C47.3569 58.1971 47.7299 57.5011 48.0499 56.7901L48.7769 56.7811L56.9599 56.6811L60.2189 56.6401L75.6789 56.4521C75.6629 56.2891 75.6479 56.1291 75.6259 55.9661C75.5789 55.5181 75.5189 55.0701 75.4469 54.6251C74.6479 49.4321 72.6169 44.3391 69.9179 39.7821C68.5049 37.3971 66.9089 35.1591 65.2139 33.1321L64.5249 32.3271C63.0109 30.5941 61.4249 29.0301 59.8239 27.6761H59.8209C58.6679 26.7011 57.5079 25.8361 56.3609 25.0971C56.1379 24.9531 55.9159 24.8151 55.6899 24.6771C54.7029 24.0811 53.6899 23.5551 52.6469 23.1071C51.2299 22.4931 49.7669 22.0161 48.2649 21.6901C46.6819 21.3421 45.0559 21.1641 43.3949 21.1641C42.5739 21.1641 41.7619 21.2081 40.9599 21.2961C40.2519 21.3711 39.5529 21.4811 38.8599 21.6191C38.1389 21.7661 37.4279 21.9451 36.7259 22.1581C27.5709 24.9351 22.9169 31.7981 21.7759 44.4761C21.7089 44.9471 21.6499 70.7601 21.6499 70.7601Z" fill="#FFDD95"/>
<path d="M22.0407 18.737C22.1817 23.933 24.6447 28.703 28.8007 31.822L30.1107 32.806C30.8727 33.38 31.7657 33.655 32.6497 33.655C33.9347 33.655 35.2037 33.069 36.0377 31.963C37.4387 30.095 37.0627 27.444 35.1947 26.039L33.8817 25.055C31.8037 23.494 30.5717 21.109 30.4997 18.508C30.4687 17.295 30.6907 16.117 31.1427 15.035C31.6217 13.879 32.3647 12.832 33.3307 11.979C33.3867 11.929 33.4407 11.882 33.4967 11.835C34.9917 10.581 37.4897 9.45297 40.8467 9.03597C42.2167 8.86997 43.7267 8.81997 45.3727 8.92897C46.1187 8.97897 46.8927 9.06097 47.6917 9.17997C48.0337 9.22697 48.3777 9.28697 48.7257 9.34897C49.1297 9.42097 49.5467 9.50597 49.9827 9.60297C50.1987 9.64997 50.4217 9.70298 50.6437 9.75698C51.7567 10.03 52.9597 10.384 54.2387 10.838C58.5257 12.358 63.6877 15.028 69.2917 19.654C70.1507 20.362 71.0187 21.118 71.8997 21.923C72.4577 22.434 73.0217 22.967 73.5857 23.518C75.2597 25.148 77.9387 25.116 79.5687 23.446C81.2017 21.772 81.1707 19.093 79.4967 17.463C77.4877 15.501 75.5037 13.765 73.5607 12.226C72.9177 11.715 72.2787 11.229 71.6487 10.762C68.8687 8.71497 66.1857 7.06698 63.6437 5.74398C63.5807 5.71298 63.5187 5.67798 63.4557 5.64698C62.5527 5.17998 61.6697 4.75397 60.8047 4.36797C60.4817 4.22097 60.1657 4.08297 59.8487 3.94797C56.2007 2.39697 52.9447 1.51597 50.2487 1.02397C48.6627 0.732974 47.1017 0.544973 45.5787 0.456973C44.1937 0.375973 42.8397 0.378979 41.5267 0.459979C40.3737 0.531979 39.2487 0.666971 38.1607 0.863971C36.9757 1.07697 35.8347 1.36498 34.7447 1.72298C32.2057 2.55398 29.9467 3.76998 28.0597 5.35198C24.0937 8.67898 21.9037 13.559 22.0407 18.737Z" fill="#FFDD95"/>
<path d="M26.2518 29.6271C26.2088 29.6271 26.1658 29.6091 26.1348 29.5741C23.5028 26.5951 21.9938 22.7481 21.8848 18.7411C21.8828 18.6541 21.9508 18.5821 22.0368 18.5801C22.1268 18.5841 22.1958 18.6461 22.1978 18.7321C22.3048 22.6651 23.7858 26.4421 26.3688 29.3661C26.4258 29.4311 26.4198 29.5301 26.3548 29.5871C26.3258 29.6141 26.2888 29.6271 26.2518 29.6271Z" fill="#3A2127"/>
<path d="M41.2467 36.0491C41.2467 36.0491 46.0107 38.9571 48.6657 45.6771C51.3207 52.3931 65.2137 33.1311 65.2137 33.1311L64.5247 32.3261C63.0107 30.5931 61.4247 29.0291 59.8237 27.6751H59.8207C58.6677 26.7001 57.5077 25.8351 56.3607 25.0961C56.1377 24.9521 55.9157 24.8141 55.6897 24.6761C54.7027 24.0801 53.6897 23.5541 52.6467 23.1061C51.2297 22.4921 49.7667 22.0151 48.2647 21.6891C46.6817 21.3411 45.0557 21.1631 43.3947 21.1631C42.5737 21.1631 41.7617 21.2071 40.9597 21.2951C40.2517 21.3701 39.5527 21.4801 38.8597 21.6181C35.6377 23.3451 32.4657 26.4541 29.9057 31.7881C21.0227 50.2781 41.2467 36.0491 41.2467 36.0491Z" fill="#F68B79"/>
<path d="M58.5447 47.582L64.1377 44.069C64.1377 44.069 63.5367 40.806 62.5407 38.441C61.8577 36.827 60.9927 35.631 60.0037 36.188C59.3877 36.538 58.9887 37.428 58.7387 38.565C58.0007 41.922 58.5447 47.447 58.5447 47.582Z" fill="#FFDD95"/>
<path d="M62.6857 38.379C62.0867 36.964 61.4858 36.169 60.8478 35.952C60.5408 35.846 60.2308 35.88 59.9278 36.051C59.3248 36.393 58.8737 37.227 58.5877 38.53C58.1527 40.507 58.0777 43.664 58.3777 47.42C58.3847 47.511 58.3898 47.567 58.3898 47.582C58.3898 47.669 58.4597 47.739 58.5467 47.739C58.6337 47.739 58.7038 47.669 58.7038 47.582C58.7038 47.569 58.6988 47.504 58.6908 47.395C58.3938 43.67 58.4657 40.545 58.8947 38.597C59.1617 37.385 59.5618 36.62 60.0838 36.323C60.3088 36.196 60.5268 36.172 60.7488 36.248C61.2818 36.43 61.8528 37.209 62.3998 38.501C63.3778 40.823 63.9808 44.064 63.9868 44.096C64.0008 44.171 64.0667 44.224 64.1407 44.224C64.1497 44.224 64.1597 44.223 64.1687 44.221C64.2537 44.205 64.3107 44.123 64.2947 44.038C64.2857 44.007 63.6767 40.733 62.6857 38.379Z" fill="#3A2127"/>
<path d="M81.0149 47.582L75.4219 44.069C75.4219 44.069 76.0229 40.806 77.0189 38.441C77.7019 36.827 78.5669 35.631 79.5559 36.188C80.1719 36.538 80.5709 37.428 80.8209 38.565C81.5589 41.922 81.0149 47.447 81.0149 47.582Z" fill="#F68B79"/>
<path d="M56.7298 73.167V73.17C56.8838 73.9 57.0898 74.489 57.3598 74.9C58.0898 76.006 60.6978 77.009 64.1668 77.877H64.1698C65.3548 78.172 66.6398 78.451 67.9838 78.714C77.4928 80.573 89.9888 81.591 91.1138 81.356C93.5298 80.858 95.3038 79.604 95.7308 77.821C95.7938 77.552 95.8248 77.279 95.8248 77.003C95.8248 76.696 95.7838 76.389 95.7058 76.085C95.1418 73.854 92.5778 71.744 89.1558 70.437C88.2058 70.073 86.8808 69.65 85.2628 69.293C84.3038 69.074 83.2478 68.867 82.1258 68.666V52.212C82.1258 51.895 82.1138 51.579 82.0878 51.269C81.6768 45.834 77.7318 41.35 72.5668 40.118C71.7138 39.911 70.8268 39.798 69.9188 39.783C69.7178 39.78 69.5178 39.78 69.3138 39.786C64.7318 39.924 60.9798 42.588 58.9308 46.393C58.4448 47.302 58.0528 48.273 57.7678 49.295C57.7298 49.439 57.6928 49.583 57.6578 49.727C57.4418 50.598 57.3098 51.501 57.2628 52.426C57.2348 52.981 57.1938 53.614 57.1408 54.306C57.1188 54.635 57.0938 54.98 57.0658 55.337C57.0308 55.769 56.9968 56.218 56.9588 56.681C56.8808 57.69 56.7928 58.762 56.7108 59.869C56.6508 60.681 56.5948 61.511 56.5448 62.342C56.4948 63.176 56.4478 64.012 56.4158 64.837C56.2818 68.083 56.3028 71.152 56.7298 73.167Z" fill="#FFDD95"/>
<path d="M57.7666 49.294C59.9416 49.633 64.2446 49.98 67.9936 48.366C69.1876 47.852 70.5796 48.212 71.3216 49.275C73.1206 51.858 76.8596 55.427 82.0876 51.268C81.6766 45.833 77.7316 41.349 72.5666 40.117C71.7136 39.91 70.8266 39.797 69.9186 39.782C69.7176 39.779 69.5176 39.779 69.3136 39.785C64.7316 39.923 60.9796 42.587 58.9306 46.392C58.4436 47.301 58.0516 48.273 57.7666 49.294Z" fill="#F68B79"/>
<path d="M58.9307 46.549C58.9057 46.549 58.8807 46.543 58.8567 46.53C58.7807 46.489 58.7517 46.394 58.7937 46.318C60.9787 42.262 64.9097 39.761 69.3097 39.629C69.5157 39.623 69.7187 39.623 69.9217 39.626C70.0087 39.627 70.0777 39.699 70.0757 39.785C70.0747 39.871 70.0047 39.939 69.9187 39.939H69.9167C69.7187 39.936 69.5197 39.936 69.3187 39.942C65.0317 40.071 61.1997 42.51 59.0687 46.466C59.0407 46.519 58.9867 46.549 58.9307 46.549Z" fill="#3A2127"/>
<path d="M95.8267 77.159C95.7397 77.159 95.6697 77.089 95.6697 77.002C95.6697 74.626 93.0917 72.1071 89.1017 70.5821C88.3027 70.2771 86.9827 69.8321 85.2317 69.4451C84.0327 69.1741 82.6697 68.911 81.1807 68.663C80.4697 68.544 79.7347 68.428 78.9867 68.316C78.1817 68.194 77.3587 68.078 76.5257 67.965C76.4397 67.954 76.3797 67.8751 76.3917 67.7891C76.4037 67.7031 76.4827 67.639 76.5677 67.655C77.4027 67.768 78.2277 67.884 79.0337 68.006C79.7837 68.119 80.5207 68.2351 81.2327 68.3541C82.7277 68.6031 84.0957 68.8671 85.2997 69.1391C87.0687 69.5301 88.4047 69.9801 89.2137 70.2891C93.3267 71.8601 95.9837 74.4951 95.9837 77.0011C95.9837 77.0891 95.9137 77.159 95.8267 77.159Z" fill="#3A2127"/>
<path d="M90.6835 81.491C90.6515 81.491 90.6185 81.481 90.5905 81.461C90.5205 81.41 90.5055 81.312 90.5565 81.242C90.8635 80.824 90.9465 80.415 90.8095 79.992C90.2705 78.333 86.5775 77.137 86.5405 77.125C86.4575 77.099 86.4125 77.01 86.4385 76.928C86.4645 76.846 86.5525 76.801 86.6355 76.826C86.7935 76.876 90.5185 78.084 91.1075 79.895C91.2765 80.413 91.1755 80.929 90.8095 81.428C90.7785 81.469 90.7315 81.491 90.6835 81.491Z" fill="#3A2127"/>
<path d="M82.1268 68.7651C82.0398 68.7651 81.9698 68.6951 81.9698 68.6081V52.2111C81.9698 49.3871 80.9768 46.6251 79.1738 44.4341C79.1188 44.3671 79.1288 44.2681 79.1948 44.2141C79.2618 44.1591 79.3598 44.1691 79.4158 44.2351C81.2648 46.4821 82.2838 49.3151 82.2838 52.2111V68.6081C82.2838 68.6951 82.2138 68.7651 82.1268 68.7651Z" fill="#3A2127"/>
<path d="M70.8279 49.675C70.8279 50.254 70.3589 50.723 69.7799 50.723C69.2009 50.723 68.7319 50.254 68.7319 49.675C68.7319 49.096 69.7799 50.07 69.7799 50.07C69.7799 50.07 70.8279 49.096 70.8279 49.675Z" fill="#3A2127"/>
<path d="M71.8209 45.64C71.8179 45.64 71.8139 45.64 71.8109 45.64C71.7249 45.635 71.6589 45.56 71.6649 45.473L71.9389 41.242C71.9439 41.156 72.0199 41.087 72.1049 41.096C72.1909 41.101 72.2569 41.176 72.2509 41.262L71.9769 45.493C71.9719 45.577 71.9029 45.64 71.8209 45.64Z" fill="#FFDD95"/>
<path d="M72.3351 45.769C72.3101 45.769 72.2841 45.763 72.2601 45.75C72.1841 45.708 72.1561 45.613 72.1971 45.537L73.2811 43.546C73.3221 43.47 73.4171 43.442 73.4941 43.483C73.5701 43.525 73.5981 43.62 73.5571 43.696L72.4731 45.687C72.4441 45.74 72.3911 45.769 72.3351 45.769Z" fill="#FFDD95"/>
<path d="M67.8449 45.6399C67.7629 45.6399 67.6939 45.5759 67.6889 45.4929L67.4149 41.2619C67.4089 41.1759 67.4749 41.1009 67.5609 41.0959C67.6459 41.0879 67.7219 41.1559 67.7269 41.2419L68.0009 45.4729C68.0069 45.5589 67.9409 45.6339 67.8549 45.6399C67.8519 45.6399 67.8479 45.6399 67.8449 45.6399Z" fill="#FFDD95"/>
<path d="M67.3307 45.769C67.2757 45.769 67.2217 45.739 67.1927 45.687L66.1087 43.696C66.0677 43.62 66.0957 43.525 66.1717 43.483C66.2477 43.442 66.3427 43.47 66.3847 43.546L67.4687 45.537C67.5107 45.613 67.4817 45.708 67.4057 45.75C67.3817 45.763 67.3557 45.769 67.3307 45.769Z" fill="#FFDD95"/>
<path d="M71.8857 48.0011C71.8857 48.7971 72.6567 49.4681 73.7407 49.7281C73.8757 49.7631 74.0137 49.7871 74.1577 49.8061C74.3367 49.8251 74.5247 49.8411 74.7187 49.8411C75.0637 49.8411 75.3927 49.8001 75.6967 49.7251C76.7777 49.4711 77.5487 48.7941 77.5487 48.0011C77.5487 47.2141 76.7807 46.5371 75.6997 46.2801C75.3927 46.2051 75.0637 46.1641 74.7187 46.1641C74.5247 46.1641 74.3367 46.1771 74.1577 46.1991C74.0137 46.2181 73.8757 46.2431 73.7407 46.2771C72.6567 46.5351 71.8857 47.2121 71.8857 48.0011Z" fill="white"/>
<path d="M72.8945 48.0011C72.8945 48.7311 73.2335 49.3681 73.7405 49.7281C73.8755 49.7631 74.0135 49.7871 74.1575 49.8061C74.3365 49.8251 74.5245 49.8411 74.7185 49.8411C75.0635 49.8411 75.3925 49.8001 75.6965 49.7251C76.2045 49.3641 76.5425 48.7281 76.5425 48.0011C76.5425 47.2801 76.2075 46.6441 75.6995 46.2801C75.3925 46.2051 75.0635 46.1641 74.7185 46.1641C74.5245 46.1641 74.3365 46.1771 74.1575 46.1991C74.0135 46.2181 73.8755 46.2431 73.7405 46.2771C73.2335 46.6381 72.8945 47.2771 72.8945 48.0011Z" fill="#3A2127"/>
<path d="M74.7175 49.997C74.5365 49.997 74.3475 49.985 74.1385 49.962C72.7185 49.775 71.7295 48.969 71.7295 48.003C71.7295 47.052 72.7415 46.228 74.1355 46.044C74.3455 46.02 74.5345 46.009 74.7175 46.009C76.3655 46.009 77.7055 46.904 77.7055 48.003C77.7055 49.102 76.3655 49.997 74.7175 49.997ZM74.7175 46.322C74.5465 46.322 74.3695 46.333 74.1745 46.355C72.9405 46.517 72.0435 47.211 72.0435 48.002C72.0435 48.794 72.9405 49.487 74.1775 49.65C74.3715 49.672 74.5495 49.683 74.7185 49.683C76.1935 49.683 77.3935 48.929 77.3935 48.002C77.3925 47.076 76.1925 46.322 74.7175 46.322Z" fill="#3A2127"/>
<path d="M62.0098 48.0011C62.0098 48.7971 62.7808 49.4681 63.8648 49.7281C63.9998 49.7631 64.1378 49.7871 64.2818 49.8061C64.4608 49.8251 64.6488 49.8411 64.8428 49.8411C65.1878 49.8411 65.5168 49.8001 65.8208 49.7251C66.9018 49.4711 67.6728 48.7941 67.6728 48.0011C67.6728 47.2141 66.9048 46.5371 65.8238 46.2801C65.5168 46.2051 65.1878 46.1641 64.8428 46.1641C64.6488 46.1641 64.4608 46.1771 64.2818 46.1991C64.1378 46.2181 63.9998 46.2431 63.8648 46.2771C62.7808 46.5351 62.0098 47.2121 62.0098 48.0011Z" fill="white"/>
<path d="M63.02 48.0011C63.02 48.7311 63.359 49.3681 63.866 49.7281C64.001 49.7631 64.139 49.7871 64.283 49.8061C64.462 49.8251 64.65 49.8411 64.844 49.8411C65.189 49.8411 65.518 49.8001 65.822 49.7251C66.33 49.3641 66.668 48.7281 66.668 48.0011C66.668 47.2801 66.333 46.6441 65.825 46.2801C65.518 46.2051 65.189 46.1641 64.844 46.1641C64.65 46.1641 64.462 46.1771 64.283 46.1991C64.139 46.2181 64.001 46.2431 63.866 46.2771C63.358 46.6381 63.02 47.2771 63.02 48.0011Z" fill="#3A2127"/>
<path d="M64.843 49.997C64.662 49.997 64.473 49.985 64.264 49.962C62.845 49.775 61.855 48.969 61.855 48.003C61.855 47.052 62.867 46.228 64.261 46.044C64.471 46.02 64.66 46.009 64.843 46.009C66.49 46.009 67.831 46.904 67.831 48.003C67.831 49.102 66.49 49.997 64.843 49.997ZM64.843 46.322C64.672 46.322 64.494 46.333 64.299 46.355C63.065 46.517 62.168 47.211 62.168 48.002C62.168 48.794 63.065 49.487 64.302 49.65C64.496 49.672 64.674 49.683 64.843 49.683C66.318 49.683 67.518 48.929 67.518 48.002C67.517 47.076 66.318 46.322 64.843 46.322Z" fill="#3A2127"/>
<path d="M28.1637 70.3539C28.0887 70.3539 28.0227 70.2999 28.0097 70.2239C27.9947 70.1389 28.0517 70.0569 28.1367 70.0419C38.0467 68.3019 45.8057 62.7519 48.3847 55.5569C48.9797 53.9009 49.2817 52.1829 49.2817 50.4479C49.2817 47.0489 48.0997 43.6899 45.8627 40.7329C44.5087 38.9429 42.7937 37.3149 40.7647 35.8969C40.6937 35.8469 40.6767 35.7489 40.7257 35.6789C40.7747 35.6079 40.8727 35.5899 40.9437 35.6399C42.9997 37.0779 44.7387 38.7279 46.1127 40.5439C48.3907 43.5549 49.5947 46.9799 49.5947 50.4479C49.5947 52.2189 49.2867 53.9729 48.6797 55.6629C46.0627 62.9639 38.2117 68.5919 28.1907 70.3509C28.1817 70.3539 28.1727 70.3539 28.1637 70.3539Z" fill="#3A2127"/>
<path d="M69.9236 51.9019C69.9266 51.8909 69.9356 51.8839 69.9356 51.8719V50.7229C69.9356 50.6359 69.8656 50.5659 69.7786 50.5659C69.6916 50.5659 69.6216 50.6359 69.6216 50.7229V51.8719C69.6216 51.8839 69.6316 51.8909 69.6336 51.9019C69.2596 52.0429 68.9766 52.7169 68.9766 53.5299C68.9766 54.4459 69.3356 55.1889 69.7786 55.1889C70.2216 55.1889 70.5806 54.4459 70.5806 53.5299C70.5816 52.7169 70.2976 52.0429 69.9236 51.9019Z" fill="#3A2127"/>
<path d="M57.0657 55.493C57.0617 55.493 57.0577 55.493 57.0537 55.492C56.9677 55.485 56.9027 55.41 56.9097 55.324C56.9827 54.383 57.0627 53.302 57.1087 52.417C57.2177 50.275 57.8017 48.166 58.7957 46.318C58.8367 46.242 58.9317 46.214 59.0077 46.254C59.0837 46.295 59.1127 46.39 59.0717 46.466C58.0987 48.273 57.5287 50.336 57.4217 52.432C57.3757 53.32 57.2957 54.404 57.2227 55.347C57.2147 55.43 57.1467 55.493 57.0657 55.493Z" fill="#3A2127"/>
<path d="M21.7768 44.631C21.7718 44.631 21.7668 44.631 21.7628 44.63C21.6768 44.622 21.6128 44.546 21.6208 44.46C22.7648 31.743 27.4098 24.818 36.6808 22.006C38.0828 21.582 39.5168 21.29 40.9438 21.138C41.0308 21.128 41.1068 21.191 41.1168 21.277C41.1258 21.363 41.0638 21.44 40.9778 21.449C39.5698 21.599 38.1548 21.887 36.7728 22.305C27.6418 25.075 23.0648 31.916 21.9338 44.487C21.9248 44.569 21.8568 44.631 21.7768 44.631Z" fill="#3A2127"/>
<path d="M68.6235 13.6089C70.2975 16.6359 72.6065 20.6169 71.8985 21.9239C72.4565 22.4349 73.0205 22.9679 73.5845 23.5189C75.2585 25.1489 77.9375 25.1169 79.5675 23.4469C81.2005 21.7729 81.1695 19.0939 79.4955 17.4639C77.4865 15.5019 75.5025 13.7659 73.5595 12.2269C72.9165 11.7159 72.2775 11.2299 71.6475 10.7629C69.3285 10.7099 67.3195 11.2589 68.6235 13.6089Z" fill="#F68B79"/>
<path d="M60.0046 9.74487C61.3586 10.7729 62.9506 7.42888 63.6436 5.74588C63.5806 5.71488 63.5186 5.67988 63.4556 5.64888C62.5526 5.18188 61.6696 4.75587 60.8046 4.36987C59.8756 6.30987 58.9236 8.92387 60.0046 9.74487Z" fill="#F68B79"/>
<path d="M50.6426 9.75809C51.7556 10.0311 52.9586 10.3851 54.2376 10.8391C55.8236 8.5291 57.5226 5.19409 56.3406 3.95009C55.0906 2.63009 52.2666 6.96509 50.6426 9.75809Z" fill="#F68B79"/>
<path d="M40.8459 9.03693C42.2159 8.87093 43.7259 8.82092 45.3719 8.92992C45.7039 6.51092 45.9769 2.91893 45.5789 0.458926C44.1939 0.377926 42.8399 0.380932 41.5269 0.461932C40.8399 2.96293 40.7859 6.62293 40.8459 9.03693Z" fill="#F68B79"/>
<path d="M34.7437 1.72498C35.4547 3.64598 36.5487 5.62397 37.8437 4.62097C39.0977 3.64897 38.7647 2.11997 38.1607 0.865967C36.9757 1.07897 35.8347 1.36698 34.7437 1.72498Z" fill="#F68B79"/>
</svg>
