<svg width="97" height="74" viewBox="0 0 97 74" fill="none" xmlns="http://www.w3.org/2000/svg">
<path d="M79.2197 68.1688H32.9927C32.9927 53.7628 40.3117 41.6518 50.2317 38.1638C52.1077 37.5028 54.0767 37.1528 56.1067 37.1528C60.1547 37.1528 63.9607 38.5488 67.2707 41.0048C69.3327 42.5338 71.1977 44.4678 72.8137 46.7348C76.2487 51.5588 78.5387 57.8668 79.0917 64.8698C79.1767 65.9538 79.2197 67.0558 79.2197 68.1688Z" fill="#FFDD95"/>
<path d="M42.0176 10.9438L47.3526 9.81082C47.3526 9.81082 47.6926 7.21082 47.4916 5.17682C47.3526 3.78782 46.9626 2.66282 46.0356 2.81482C45.4576 2.91182 44.9166 3.47082 44.4326 4.25382C43.0036 6.56682 42.0516 10.8428 42.0176 10.9438Z" fill="#FFDD95"/>
<path d="M53.5337 14.8059C53.6057 14.6969 56.8407 8.50486 58.8977 8.71186C60.9557 8.91886 58.4087 15.0659 58.4087 15.0659L53.5337 14.8059Z" fill="#FFDD95"/>
<path d="M36.0576 14.4988L28.8176 36.0898C26.9576 41.6378 29.2706 47.6228 34.0356 50.5958C34.8386 51.0998 35.7136 51.5158 36.6496 51.8298C43.1336 54.0038 58.0986 60.6688 60.2726 54.1848L59.6296 22.4038C60.7956 18.9268 60.3236 15.2778 58.6326 12.3048C58.0696 11.3128 57.3716 10.3978 56.5516 9.59084C55.2486 8.30084 53.6426 7.28384 51.7946 6.66384C48.5526 5.57684 45.1636 5.91484 42.3106 7.33484C39.4586 8.75284 37.1446 11.2568 36.0576 14.4988Z" fill="#F68B79"/>
<path d="M18.1417 73.699L71.2117 73.727C71.2117 73.727 71.4547 71.55 71.4397 68.4C71.4257 65.505 71.1927 61.788 70.3507 58.184C68.1957 48.957 64.2657 43.01 54.7457 37.721C50.3027 35.252 46.5097 31.332 43.3727 27.333L36.0597 14.499C36.0577 14.499 15.6747 73.147 18.1417 73.699Z" fill="#F68B79"/>
<path d="M49.5408 15.796C49.5408 13.47 47.1508 11.584 44.2018 11.584C41.2538 11.584 38.8628 13.47 38.8628 15.796C38.8628 18.122 41.2528 20.008 44.2018 20.008C47.1508 20.008 49.5408 18.122 49.5408 15.796Z" fill="#FFDD95"/>
<path d="M75.8008 70.7489H95.4428C96.4368 70.7489 97.1848 69.8179 96.9438 68.8539C96.5228 67.1629 95.5508 65.6999 94.2398 64.6539C92.6828 63.4109 90.6468 62.7569 88.4878 63.0049L75.8008 64.4679V70.7489Z" fill="#FFDD95"/>
<path d="M64.2139 73.7268H84.6149C85.6469 73.7268 86.4239 72.7598 86.1739 71.7588C85.7359 70.0028 84.7269 68.4838 83.3649 67.3968C81.7479 66.1058 79.6329 65.4258 77.3909 65.6848L64.2139 67.2038V73.7268Z" fill="#F68B79"/>
<path d="M82.0259 73.883C81.9389 73.883 81.8689 73.813 81.8689 73.726C81.8689 72.337 81.2449 71.042 80.1579 70.175C79.2069 69.416 78.0179 69.075 76.8059 69.214C76.7209 69.225 76.6419 69.162 76.6319 69.076C76.6219 68.99 76.6839 68.912 76.7699 68.902C78.0639 68.753 79.3359 69.118 80.3529 69.929C81.5149 70.856 82.1809 72.24 82.1809 73.725C82.1819 73.813 82.1119 73.883 82.0259 73.883Z" fill="#3A2127"/>
<path d="M92.9189 70.906C92.8319 70.906 92.7619 70.836 92.7619 70.749C92.7619 69.36 92.1379 68.065 91.0509 67.198C90.0999 66.439 88.9099 66.099 87.6999 66.237C87.6139 66.249 87.5359 66.185 87.5269 66.099C87.5169 66.013 87.5789 65.935 87.6649 65.925C88.9589 65.776 90.2309 66.14 91.2479 66.952C92.4099 67.879 93.0759 69.263 93.0759 70.748C93.0759 70.836 93.0059 70.906 92.9189 70.906Z" fill="#3A2127"/>
<path d="M50.0688 12.9159C50.0548 12.9159 50.0398 12.9139 50.0248 12.9099C49.9418 12.8859 49.8938 12.7989 49.9178 12.7159L51.1018 8.64492C51.1258 8.56192 51.2128 8.51392 51.2958 8.53792C51.3788 8.56192 51.4268 8.64892 51.4028 8.73192L50.2188 12.8029C50.1988 12.8709 50.1368 12.9159 50.0688 12.9159Z" fill="#3A2127"/>
<path d="M49.5407 12.8619C49.4647 12.8619 49.3977 12.8059 49.3857 12.7289L49.0457 10.4879C49.0327 10.4019 49.0918 10.3219 49.1768 10.3089C49.2618 10.2959 49.3418 10.3549 49.3548 10.4399L49.6948 12.6809C49.7078 12.7659 49.6487 12.8459 49.5637 12.8589C49.5567 12.8609 49.5487 12.8619 49.5407 12.8619Z" fill="#3A2127"/>
<path d="M53.8057 14.271C53.7847 14.271 53.7637 14.267 53.7427 14.258C53.6637 14.223 53.6277 14.131 53.6617 14.052L55.3617 10.168C55.3957 10.089 55.4877 10.052 55.5677 10.087C55.6467 10.122 55.6827 10.214 55.6487 10.293L53.9487 14.177C53.9237 14.236 53.8667 14.271 53.8057 14.271Z" fill="#3A2127"/>
<path d="M54.2455 14.5678C54.2025 14.5678 54.1595 14.5498 54.1285 14.5148C54.0715 14.4498 54.0775 14.3508 54.1415 14.2938L55.8395 12.7918C55.9045 12.7348 56.0035 12.7408 56.0605 12.8048C56.1175 12.8698 56.1115 12.9688 56.0475 13.0258L54.3495 14.5278C54.3195 14.5548 54.2825 14.5678 54.2455 14.5678Z" fill="#3A2127"/>
<path d="M43.7888 13.7368C43.4958 14.7118 44.4708 15.8618 45.9698 16.3128C46.1538 16.3688 46.3388 16.4098 46.5168 16.4418C47.8058 16.6518 48.9518 16.2268 49.2108 15.3698C49.4668 14.5198 48.7478 13.5248 47.5578 12.9878C47.3908 12.9168 47.2148 12.8488 47.0298 12.7938C45.5308 12.3418 44.0808 12.7688 43.7888 13.7368Z" fill="white"/>
<path d="M47.1719 16.6529C46.9539 16.6529 46.7259 16.6349 46.4919 16.5969C46.2819 16.5589 46.0979 16.5149 45.9249 16.4629C45.1709 16.2359 44.519 15.8309 44.088 15.3219C43.641 14.7939 43.481 14.2149 43.639 13.6909C43.796 13.1699 44.2479 12.7759 44.9129 12.5819C45.5549 12.3949 46.323 12.4169 47.075 12.6439C47.25 12.6959 47.4279 12.7619 47.6189 12.8449C48.9029 13.4239 49.6349 14.5049 49.3609 15.4159C49.1289 16.1869 48.2689 16.6529 47.1719 16.6529ZM45.8429 12.7699C45.5459 12.7699 45.262 12.8079 45.001 12.8839C44.442 13.0469 44.0649 13.3659 43.9389 13.7819C43.8129 14.1999 43.9509 14.6759 44.3269 15.1199C44.7189 15.5829 45.319 15.9529 46.015 16.1629C46.177 16.2119 46.35 16.2529 46.545 16.2879C47.772 16.4879 48.8319 16.0829 49.0609 15.3249C49.2889 14.5669 48.63 13.6439 47.493 13.1319C47.315 13.0549 47.1479 12.9939 46.9849 12.9449C46.5999 12.8279 46.2119 12.7699 45.8429 12.7699Z" fill="#3A2127"/>
<path d="M43.7888 13.7369C43.4958 14.7119 44.4708 15.8619 45.9698 16.3129C46.1538 16.3689 46.3388 16.4099 46.5168 16.4419C46.8728 15.9859 47.1638 15.4309 47.3508 14.8099C47.5378 14.1889 47.6018 13.5659 47.5568 12.9889C47.3898 12.9179 47.2138 12.8499 47.0288 12.7949C45.5308 12.3419 44.0808 12.7689 43.7888 13.7369Z" fill="#3A2127"/>
<path d="M53.625 17.303C53.331 18.278 54.307 19.428 55.806 19.879C55.99 19.935 56.175 19.976 56.353 20.008C57.642 20.218 58.789 19.793 59.047 18.936C59.303 18.086 58.584 17.091 57.394 16.554C57.227 16.483 57.051 16.415 56.866 16.36C55.367 15.909 53.917 16.335 53.625 17.303Z" fill="white"/>
<path d="M57.007 20.2189C56.789 20.2189 56.562 20.2009 56.328 20.1629C56.119 20.1249 55.934 20.0809 55.761 20.0289C54.183 19.5539 53.158 18.3109 53.475 17.2579C53.792 16.2049 55.334 15.7349 56.911 16.2099C57.084 16.2619 57.262 16.3279 57.455 16.4099C58.74 16.9889 59.471 18.0699 59.196 18.9809C58.965 19.7529 58.105 20.2189 57.007 20.2189ZM53.775 17.3479C53.508 18.2359 54.439 19.3029 55.851 19.7289C56.013 19.7779 56.187 19.8189 56.381 19.8539C57.609 20.0529 58.668 19.6489 58.897 18.8909C59.125 18.1329 58.466 17.2099 57.329 16.6969C57.149 16.6199 56.982 16.5579 56.821 16.5099C55.409 16.0849 54.043 16.4599 53.775 17.3479Z" fill="#3A2127"/>
<path d="M53.625 17.3029C53.331 18.2779 54.307 19.4279 55.806 19.8789C55.99 19.9349 56.175 19.9759 56.353 20.0079C56.709 19.5509 57 18.9969 57.187 18.3759C57.374 17.7539 57.438 17.1319 57.393 16.5549C57.226 16.4839 57.05 16.4159 56.865 16.3609C55.367 15.9089 53.917 16.3349 53.625 17.3029Z" fill="#3A2127"/>
<path d="M50.8299 18.096C50.6149 18.639 50.8809 19.254 51.4239 19.469C51.9669 19.684 52.5819 19.418 52.7969 18.875C53.0119 18.332 51.6669 18.856 51.6669 18.856C51.6669 18.856 51.0449 17.553 50.8299 18.096Z" fill="#3A2127"/>
<path d="M51.1618 20.5559L51.5698 19.5269C51.6018 19.4469 51.5618 19.3549 51.4818 19.3239C51.4008 19.2919 51.3108 19.3309 51.2788 19.4119L50.8698 20.4439L49.6368 21.2479C49.5638 21.2949 49.5438 21.3919 49.5908 21.4649C49.6208 21.5109 49.6708 21.5359 49.7228 21.5359C49.7518 21.5359 49.7818 21.5279 49.8078 21.5109L50.9038 20.7959L51.2708 22.0949C51.2908 22.1639 51.3528 22.2089 51.4218 22.2089C51.4358 22.2089 51.4508 22.2069 51.4648 22.2029C51.5478 22.1799 51.5968 22.0929 51.5728 22.0099L51.1618 20.5559Z" fill="#3A2127"/>
<path d="M34.9789 17.427C34.9789 17.427 32.3739 18.201 32.8439 20.008C33.3139 21.815 33.5099 22.011 33.5099 22.011C33.5099 22.011 13.4119 50.555 21.8349 56.016C30.4159 61.579 49.3239 33.868 56.4869 38.61L60.5839 41.596C60.5839 41.596 60.3939 23.562 59.6549 23.589C59.6549 23.589 54.9849 29.101 48.9059 28.278C42.8269 27.456 34.9789 17.427 34.9789 17.427Z" fill="#CBAAD5"/>
<mask id="mask0_173_435" style="mask-type:luminance" maskUnits="userSpaceOnUse" x="19" y="17" width="42" height="40">
<path d="M34.9789 17.427C34.9789 17.427 32.3739 18.201 32.8439 20.008C33.3139 21.815 33.5099 22.011 33.5099 22.011C33.5099 22.011 13.4119 50.555 21.8349 56.016C30.4159 61.579 49.3239 33.868 56.4869 38.61L60.5839 41.596C60.5839 41.596 60.3939 23.562 59.6549 23.589C59.6549 23.589 54.9849 29.101 48.9059 28.278C42.8269 27.456 34.9789 17.427 34.9789 17.427Z" fill="white"/>
</mask>
<g mask="url(#mask0_173_435)">
<path d="M29.8857 32.667C26.8187 32.667 24.3228 30.171 24.3228 27.104H26.8297C26.8297 28.789 28.2007 30.16 29.8857 30.16C31.5707 30.16 32.9417 28.789 32.9417 27.104H35.4488C35.4488 30.171 32.9527 32.667 29.8857 32.667Z" fill="#A36AB4"/>
</g>
<mask id="mask1_173_435" style="mask-type:luminance" maskUnits="userSpaceOnUse" x="19" y="17" width="42" height="40">
<path d="M34.9789 17.427C34.9789 17.427 32.3739 18.201 32.8439 20.008C33.3139 21.815 33.5099 22.011 33.5099 22.011C33.5099 22.011 13.4119 50.555 21.8349 56.016C30.4159 61.579 49.3239 33.868 56.4869 38.61L60.5839 41.596C60.5839 41.596 60.3939 23.562 59.6549 23.589C59.6549 23.589 54.9849 29.101 48.9059 28.278C42.8269 27.456 34.9789 17.427 34.9789 17.427Z" fill="white"/>
</mask>
<g mask="url(#mask1_173_435)">
<path d="M47.9381 31.878C47.1141 31.878 46.2951 31.693 45.5311 31.325C44.1921 30.681 43.1841 29.554 42.6931 28.151C42.2021 26.749 42.2861 25.239 42.9301 23.9C43.5741 22.561 44.7011 21.553 46.1041 21.062L46.9331 23.428C46.1631 23.698 45.5441 24.252 45.1901 24.987C44.8361 25.723 44.7901 26.552 45.0601 27.322C45.3301 28.092 45.8841 28.711 46.6191 29.065C47.3541 29.419 48.1841 29.465 48.9541 29.195L49.7831 31.561C49.1801 31.773 48.5581 31.878 47.9381 31.878Z" fill="#A36AB4"/>
</g>
<mask id="mask2_173_435" style="mask-type:luminance" maskUnits="userSpaceOnUse" x="19" y="17" width="42" height="40">
<path d="M34.9789 17.427C34.9789 17.427 32.3739 18.201 32.8439 20.008C33.3139 21.815 33.5099 22.011 33.5099 22.011C33.5099 22.011 13.4119 50.555 21.8349 56.016C30.4159 61.579 49.3239 33.868 56.4869 38.61L60.5839 41.596C60.5839 41.596 60.3939 23.562 59.6549 23.589C59.6549 23.589 54.9849 29.101 48.9059 28.278C42.8269 27.456 34.9789 17.427 34.9789 17.427Z" fill="white"/>
</mask>
<g mask="url(#mask2_173_435)">
<path d="M41.8177 44.8451L40.1807 42.9461C40.7987 42.4131 41.1727 41.6711 41.2327 40.8571C41.2927 40.0431 41.0327 39.2541 40.4997 38.6361C39.3997 37.3601 37.4657 37.2171 36.1897 38.3171L34.5527 36.4181C36.8757 34.4151 40.3957 34.6751 42.3987 36.9981C43.3687 38.1231 43.8427 39.5591 43.7337 41.0411C43.6237 42.5241 42.9427 43.8751 41.8177 44.8451Z" fill="#A36AB4"/>
</g>
<mask id="mask3_173_435" style="mask-type:luminance" maskUnits="userSpaceOnUse" x="19" y="17" width="42" height="40">
<path d="M34.9789 17.427C34.9789 17.427 32.3739 18.201 32.8439 20.008C33.3139 21.815 33.5099 22.011 33.5099 22.011C33.5099 22.011 13.4119 50.555 21.8349 56.016C30.4159 61.579 49.3239 33.868 56.4869 38.61L60.5839 41.596C60.5839 41.596 60.3939 23.562 59.6549 23.589C59.6549 23.589 54.9849 29.101 48.9059 28.278C42.8269 27.456 34.9789 17.427 34.9789 17.427Z" fill="white"/>
</mask>
<g mask="url(#mask3_173_435)">
<path d="M55.1721 35.4629C54.6661 34.0659 54.7351 32.5549 55.3651 31.2099C55.9951 29.8639 57.1121 28.8449 58.5091 28.3389C59.9061 27.8329 61.4171 27.9009 62.7621 28.5319C64.1081 29.1619 65.1271 30.2789 65.6331 31.6759L63.2751 32.5289C62.9971 31.7619 62.4371 31.1479 61.6981 30.8019C60.9591 30.4549 60.1291 30.4179 59.3621 30.6959C58.5941 30.9739 57.9811 31.5339 57.6351 32.2729C57.2891 33.0119 57.2511 33.8419 57.5291 34.6089L55.1721 35.4629Z" fill="#A36AB4"/>
</g>
<mask id="mask4_173_435" style="mask-type:luminance" maskUnits="userSpaceOnUse" x="19" y="17" width="42" height="40">
<path d="M34.9789 17.427C34.9789 17.427 32.3739 18.201 32.8439 20.008C33.3139 21.815 33.5099 22.011 33.5099 22.011C33.5099 22.011 13.4119 50.555 21.8349 56.016C30.4159 61.579 49.3239 33.868 56.4869 38.61L60.5839 41.596C60.5839 41.596 60.3939 23.562 59.6549 23.589C59.6549 23.589 54.9849 29.101 48.9059 28.278C42.8269 27.456 34.9789 17.427 34.9789 17.427Z" fill="white"/>
</mask>
<g mask="url(#mask4_173_435)">
<path d="M27.009 54.7461C25.668 54.1061 24.656 52.9831 24.16 51.5821C23.664 50.1811 23.743 48.6711 24.382 47.3301C25.021 45.9891 26.145 44.9771 27.546 44.4801C28.947 43.9841 30.457 44.0631 31.798 44.7021L30.719 46.9651C29.982 46.6141 29.153 46.5701 28.383 46.8431C27.614 47.1151 26.996 47.6711 26.645 48.4081C26.294 49.1451 26.25 49.9741 26.523 50.7441C26.795 51.5131 27.351 52.1311 28.088 52.4821L27.009 54.7461Z" fill="#A36AB4"/>
</g>
<path d="M71.2116 73.883C71.2056 73.883 71.1996 73.883 71.1936 73.882C71.1076 73.872 71.0456 73.795 71.0556 73.709C71.0576 73.688 71.2976 71.504 71.2826 68.4C71.2636 64.648 70.8986 61.223 70.1976 58.219C70.1776 58.135 70.2306 58.05 70.3146 58.031C70.3986 58.012 70.4836 58.064 70.5026 58.148C71.2096 61.174 71.5776 64.623 71.5956 68.399C71.6116 71.522 71.3696 73.722 71.3676 73.744C71.3576 73.824 71.2896 73.883 71.2116 73.883Z" fill="#3A2127"/>
<path d="M50.7179 29.258C45.4349 29.258 39.9279 25.307 34.3419 17.504C34.0899 17.152 34.1709 16.663 34.5229 16.411C34.8749 16.159 35.3639 16.24 35.6159 16.592C41.0289 24.152 46.2409 27.883 51.0909 27.683C56.4669 27.46 59.6119 22.298 59.6429 22.246C59.8639 21.875 60.3439 21.753 60.7149 21.973H60.7159C61.0879 22.194 61.2099 22.674 60.9889 23.046C60.8449 23.288 57.3969 28.98 51.1699 29.247C51.0199 29.255 50.8689 29.258 50.7179 29.258Z" fill="#CDE6A4"/>
<path d="M21.128 55.4439C21.128 55.4439 19.142 60.5819 21.391 60.7819C23.641 60.9829 36.913 52.4399 41.238 46.3179C41.238 46.3179 28.963 53.5629 21.128 55.4439Z" fill="#CDE6A4"/>
<path d="M34.7628 24.401C34.7118 24.401 34.6609 24.376 34.6309 24.329C33.4189 22.452 32.9799 21.075 32.9619 21.017C32.9359 20.934 32.9818 20.847 33.0648 20.821C33.1478 20.795 33.2358 20.841 33.2618 20.924C33.2658 20.938 33.7088 22.322 34.8958 24.16C34.9428 24.233 34.9218 24.33 34.8488 24.377C34.8218 24.393 34.7928 24.401 34.7628 24.401Z" fill="#3A2127"/>
<path d="M45.3039 42.941C45.2579 42.941 45.2129 42.921 45.1819 42.883C42.6589 39.785 38.8949 33.195 38.8579 33.129C38.8149 33.054 38.8419 32.958 38.9169 32.915C38.9919 32.872 39.0879 32.898 39.1309 32.974C39.1689 33.04 42.9189 39.607 45.4259 42.686C45.4809 42.753 45.4699 42.852 45.4039 42.906C45.3739 42.93 45.3389 42.941 45.3039 42.941Z" fill="#3A2127"/>
<path d="M27.9469 50.3749C27.8679 50.3749 27.7999 50.3159 27.7909 50.2349C27.7819 50.1489 27.8439 50.0719 27.9299 50.0619C27.9859 50.0559 33.6429 49.4079 41.4839 46.0419C41.5629 46.0069 41.6559 46.0449 41.6899 46.1239C41.7239 46.2039 41.6869 46.2959 41.6079 46.3299C33.7199 49.7149 28.0209 50.3669 27.9639 50.3729C27.9579 50.3739 27.9519 50.3749 27.9469 50.3749Z" fill="#3A2127"/>
<path d="M34.3777 54.1459C34.3427 54.1459 34.3077 54.1339 34.2787 54.1109C34.2117 54.0559 34.2017 53.9569 34.2567 53.8899C34.8967 53.1059 49.9997 34.7389 56.5647 38.4739C56.6397 38.5169 56.6667 38.6129 56.6237 38.6879C56.5807 38.7629 56.4847 38.7899 56.4097 38.7469C50.0747 35.1439 34.6547 53.8989 34.4997 54.0889C34.4687 54.1269 34.4237 54.1459 34.3777 54.1459Z" fill="#3A2127"/>
<path d="M27.3478 8.00494V8.00793C27.3288 11.8689 26.9058 15.1909 26.1978 18.0929C24.3298 25.7839 20.4808 30.5259 16.9178 34.4589C16.9178 34.4589 16.9178 34.4589 16.9148 34.4589C16.5358 34.8789 16.1598 35.2929 15.7868 35.6969C14.0758 37.5619 12.5528 39.2199 11.3678 41.0189C10.3048 42.6269 9.51578 44.3539 9.10478 46.4349C8.70078 48.4849 8.59378 50.4179 8.78178 52.2239C8.92278 53.5649 9.22375 54.8349 9.68775 56.0319C10.4208 57.9219 11.5558 59.6329 13.0888 61.1619C14.0318 62.1019 15.0228 62.8699 15.9438 63.4809C18.0278 64.8689 19.7578 65.4709 19.7828 65.4799C22.0018 66.2129 23.1988 68.5979 22.4688 70.8199C21.8828 72.5969 20.2218 73.7249 18.4418 73.7249C18.0028 73.7249 17.5548 73.6559 17.1158 73.5119C16.7868 73.4019 14.8308 72.7279 12.3488 71.2269C10.8818 70.3399 9.23077 69.1679 7.62577 67.6479C7.55377 67.5819 7.48177 67.5129 7.40977 67.4439C4.21277 64.3599 0.818757 59.4799 0.291757 52.4319C0.115757 50.1219 0.250752 47.5839 0.799752 44.7969C0.881752 44.3859 0.968772 43.9879 1.06977 43.5969C2.58677 37.5609 6.12475 33.7089 9.55375 29.9729C9.73875 29.7689 9.92676 29.5689 10.1118 29.3649C12.2058 27.0739 14.2207 24.7829 15.7907 21.8649C17.9347 17.8849 19.2478 12.7379 18.8028 4.85294C18.7588 4.07594 18.9278 3.33593 19.2568 2.68993C19.9178 1.39593 21.2318 0.476934 22.7888 0.389934C25.1178 0.257934 27.1168 2.04194 27.2518 4.37294C27.3228 5.63594 27.3538 6.84594 27.3478 8.00494Z" fill="#F68B79"/>
<path d="M9.10379 46.436C8.69979 48.486 8.5928 50.419 8.7808 52.225C6.3618 53.297 3.29877 53.187 0.290775 52.435C0.114775 50.125 0.249801 47.587 0.798801 44.8C0.880801 44.389 0.96779 43.991 1.06879 43.6C4.99879 43.597 8.4148 42.603 11.3678 41.021C10.3048 42.628 9.51479 44.354 9.10379 46.436Z" fill="#FFDD95"/>
<path d="M26.1978 18.094C24.3298 25.785 20.4808 30.527 16.9178 34.46C16.9178 34.46 16.9179 34.46 16.9149 34.46C13.5769 33.134 11.4578 31.169 10.1108 29.367C12.2048 27.076 14.2199 24.785 15.7899 21.867C21.2829 22.394 24.3608 20.153 26.1978 18.094Z" fill="#FFDD95"/>
<path d="M27.3478 8.00486C25.2538 5.30986 21.9379 3.67086 19.2559 2.69286C19.9169 1.39886 21.2308 0.479864 22.7878 0.392864C25.1168 0.260864 27.1159 2.04486 27.2509 4.37586C27.3229 5.63586 27.3538 6.84586 27.3478 8.00486Z" fill="#FFDD95"/>
<path d="M15.9429 63.482C13.8929 65.438 12.9559 68.631 12.3479 71.229C10.8809 70.342 9.22987 69.17 7.62487 67.65C6.61887 62.46 8.01989 58.614 9.68689 56.032C10.4199 57.922 11.5549 59.633 13.0879 61.162C14.0309 62.103 15.0209 62.871 15.9429 63.482Z" fill="#FFDD95"/>
</svg>
