<svg width="1366" height="768" viewBox="0 0 1366 768" fill="none" xmlns="http://www.w3.org/2000/svg">
<g clip-path="url(#clip0_61_44)">
<rect width="1366" height="768" fill="white"/>
<path d="M227 181.5C169.526 165.825 105.938 68.2557 46.9999 105.5C-24.2963 150.564 46.9241 278.895 75 338.5C88.7526 367.697 -30 561 46.9999 521C191 446.195 101 695.5 289 616C477 536.5 302 378.5 361.5 291.5C421 204.5 458.516 258.777 480.5 228C537.664 151.044 275.372 194.692 227 181.5Z" fill="#CDE6A4"/>
<path d="M323.778 619.979C348.404 618.852 364.38 590.472 374.894 572.495C385.794 553.868 398.165 548.449 414.199 536.042C428.242 525.195 417.527 518.972 403.418 513.909C362.233 499.137 305.847 511.416 290.594 558.04C282.741 582.016 292.414 621.417 323.778 619.979Z" fill="#CBAAD5"/>
<path d="M284.895 167.343C276.973 146.282 254.52 137.786 233.476 139.138C211.715 140.53 199.295 161.275 199.612 181.155C197.979 189.525 199.622 198.618 204.45 205.583C211.966 216.424 225.699 221.189 238.413 221.704C269.206 222.944 296.946 199.39 284.895 167.343ZM229.046 180.69C229.036 180.673 229.033 180.667 229.023 180.65C229.046 180.654 229.063 180.654 229.083 180.65C229.089 180.667 229.099 180.69 229.106 180.71C229.083 180.7 229.066 180.693 229.046 180.69Z" fill="#FFDD95"/>
<path d="M110.515 579.256C110.515 593.203 99.2066 604.512 85.2561 604.512C71.3055 604.512 60 593.2 60 579.256C60 565.309 71.3088 554 85.2561 554C99.2033 553.997 110.515 565.309 110.515 579.256Z" fill="#FFDD95"/>
<path d="M421.347 589.672C421.347 598.323 414.329 605.344 405.672 605.344C397.018 605.344 390 598.323 390 589.672C390 581.015 397.015 574 405.672 574C414.329 574.003 421.347 581.015 421.347 589.672Z" fill="#FFDD95"/>
<path d="M-63.298 362.341C-85.9684 401.449 -36.0466 437.532 -1.11749 441.13C42.3205 445.609 101.177 421.181 124.863 383.435C139.799 359.62 131.492 331.858 131.96 305.032C132.537 271.775 134.592 220.481 84.5349 225.319C41.3871 229.075 46.6244 283.967 25.0027 308.488C6.37887 333.859 -50.4424 340.155 -63.298 362.341Z" fill="#F68B79"/>
<path d="M777.43 183.829C780.931 192.01 794.53 193.194 803.193 194.078C812.17 194.995 815.916 198.381 822.978 201.968C829.155 205.111 830.383 200.55 830.716 195.012C831.686 178.846 819.697 161.56 798.713 163.341C787.92 164.255 772.971 173.41 777.43 183.829Z" fill="#FFDD95"/>
<path d="M603.347 123.672C603.347 132.323 596.329 139.344 587.672 139.344C579.018 139.344 572 132.323 572 123.672C572 115.015 579.015 108 587.672 108C596.329 108.003 603.347 115.015 603.347 123.672Z" fill="#CBAAD5"/>
<path d="M809.949 218.533C800.034 208.8 781.53 201.946 754.674 202.382C675.406 203.687 676.506 282.053 753.06 277.247C812.994 273.501 831.214 239.402 809.949 218.533Z" fill="#F68B79"/>
<path d="M1259.89 197.343C1251.97 176.282 1229.52 167.786 1208.48 169.138C1186.72 170.53 1174.3 191.275 1174.61 211.155C1172.98 219.525 1174.62 228.618 1179.45 235.583C1186.97 246.424 1200.7 251.189 1213.41 251.704C1244.21 252.944 1271.95 229.39 1259.89 197.343ZM1204.05 210.69C1204.04 210.673 1204.03 210.667 1204.02 210.65C1204.05 210.654 1204.06 210.654 1204.08 210.65C1204.09 210.667 1204.1 210.69 1204.11 210.71C1204.08 210.7 1204.07 210.693 1204.05 210.69Z" fill="#FFDD95"/>
<path d="M952.106 746.252C1009.35 757.347 1009.35 624.204 1051.17 604.79C1097.4 582.596 1134.83 657.486 1185.46 638.073C1260.32 607.559 1218.48 524.349 1249.3 477.191C1286.73 421.72 1350.57 493.836 1394.6 457.778C1447.44 413.4 1385.8 346.829 1339.57 327.41C1284.52 299.666 1225.09 330.185 1170.05 307.99C1117.22 285.802 1082 230.336 1033.56 307.996C1004.63 354.379 1010.21 420.647 972.155 460.193C947.385 485.938 907.291 491.875 888.397 526.456C857.237 583.472 893.756 734.95 952.106 746.252Z" fill="#FFDD95"/>
<path d="M1263.9 275.555C1256.98 271.836 1249.43 267.696 1243.07 261.581C1211.51 231.234 1224.66 175.423 1179.23 153.229C1150.89 139.381 1104.07 147.325 1077.62 155.067C995.817 179.007 1041.39 263.507 1087.08 314.686C1135.31 368.701 1235.22 377.047 1274.53 320.904C1294.97 291.681 1281.46 284.986 1263.9 275.555Z" fill="#CDE6A4"/>
<path d="M1104.39 639.865C1102.15 630.947 1097.67 622.735 1090.5 617.725C1072.79 605.348 1041.21 619.394 1037.81 641.454C1032.76 674.213 1097.13 709.973 1105.29 664.138C1106.62 656.724 1106.43 648.001 1104.39 639.865Z" fill="#F68B79"/>
<path d="M1249.51 610.056C1249.97 608.448 1250.5 606.858 1251.11 605.297C1258.5 586.174 1274.51 577.552 1274.64 555.595C1274.74 539.702 1258.42 513.795 1276.8 501.224C1309.57 478.791 1359.12 555.773 1365.07 577.4C1375.75 616.274 1346.27 674.294 1305.51 682.663C1265.88 690.799 1239.02 646.567 1249.51 610.056Z" fill="#CBAAD5"/>
<path d="M1127.52 222.256C1127.52 236.203 1116.21 247.512 1102.26 247.512C1088.31 247.512 1077 236.2 1077 222.256C1077 208.309 1088.31 197 1102.26 197C1116.2 196.997 1127.52 208.309 1127.52 222.256Z" fill="#CBAAD5"/>
<path d="M549.745 568.406C549.728 568.472 549.708 568.541 549.695 568.613C549.771 568.475 549.781 568.406 549.745 568.406Z" fill="#CDE6A4"/>
<path d="M735.347 549.672C735.347 558.323 728.329 565.344 719.672 565.344C711.018 565.344 704 558.323 704 549.672C704 541.015 711.015 534 719.672 534C728.329 534.003 735.347 541.015 735.347 549.672Z" fill="#F68B79"/>
<path d="M769.11 538.205C768.277 537.387 767.485 536.527 766.743 535.629C757.617 524.661 758.583 511.705 744.755 504.394C734.748 499.101 711.825 500.894 711.245 485.138C710.204 457.036 778.744 451.04 794.804 454.395C823.66 460.44 848.525 498.165 837.471 526.69C826.724 554.425 787.988 556.851 769.11 538.205Z" fill="#CDE6A4"/>
<path d="M608.285 559.775C608.229 559.059 608.186 558.34 608.153 557.621C606.903 529.499 652.353 474.36 625.138 458.916C592.435 440.368 550.448 468.889 533.618 496.783C512.702 531.445 533.994 579.108 553.617 611.042C574.649 645.266 581.446 684.561 609.667 714.121C620.112 725.061 636.523 743.434 651.756 746.758C670.98 750.957 683.216 735.271 700.82 731.673C750.676 721.486 823.13 784.953 841.348 701.071C848.647 667.458 836.454 623.753 802.438 609.374C772.288 596.63 744.083 613.321 721.436 632.301C705.606 645.566 694.412 656.829 674.133 644.722C644.078 626.774 611.111 596.01 608.285 559.775Z" fill="#CBAAD5"/>
<path d="M515.759 535.745C506.841 537.988 498.629 542.46 493.62 549.63C481.242 567.347 495.289 598.922 517.349 602.326C550.108 607.378 585.868 543.004 540.032 534.842C532.619 533.519 523.895 533.707 515.759 535.745ZM550.434 565.698C550.734 564.854 550.998 564.319 550.434 565.698V565.698Z" fill="#CDE6A4"/>
</g>
<defs>
<clipPath id="clip0_61_44">
<rect width="1366" height="768" fill="white"/>
</clipPath>
</defs>
</svg>
