<svg width="384" height="45" viewBox="0 0 384 45" fill="none" xmlns="http://www.w3.org/2000/svg">
<rect x="1" y="1" width="382" height="43" rx="8" stroke="#D9D9D9"/>
<rect x="7" y="8" width="179" height="29" rx="5" fill="#FFDD95"/>
<path d="M138.165 28.017V26.5682L144.557 16.4545H145.608V18.6989H144.898L140.068 26.3409V26.4545H148.676V28.017H138.165ZM145.011 31V27.5767V26.902V16.4545H146.688V31H145.011ZM156.082 31.1989C155.012 31.1989 154.1 30.9077 153.348 30.3253C152.595 29.7382 152.02 28.8883 151.622 27.7756C151.224 26.6581 151.025 25.3087 151.025 23.7273C151.025 22.1553 151.224 20.813 151.622 19.7003C152.024 18.5829 152.602 17.7306 153.355 17.1435C154.112 16.5516 155.021 16.2557 156.082 16.2557C157.143 16.2557 158.049 16.5516 158.802 17.1435C159.56 17.7306 160.137 18.5829 160.535 19.7003C160.938 20.813 161.139 22.1553 161.139 23.7273C161.139 25.3087 160.94 26.6581 160.542 27.7756C160.145 28.8883 159.569 29.7382 158.816 30.3253C158.064 30.9077 157.152 31.1989 156.082 31.1989ZM156.082 29.6364C157.143 29.6364 157.967 29.125 158.554 28.1023C159.141 27.0795 159.434 25.6212 159.434 23.7273C159.434 22.4678 159.299 21.3954 159.029 20.5099C158.764 19.6245 158.381 18.9498 157.879 18.4858C157.382 18.0218 156.783 17.7898 156.082 17.7898C155.031 17.7898 154.209 18.3082 153.618 19.3452C153.026 20.3774 152.73 21.8381 152.73 23.7273C152.73 24.9867 152.862 26.0568 153.127 26.9375C153.393 27.8182 153.774 28.4882 154.271 28.9474C154.773 29.4067 155.377 29.6364 156.082 29.6364ZM171.252 28.2727V27.5057C171.252 26.9754 171.361 26.4901 171.579 26.0497C171.802 25.6046 172.124 25.2495 172.545 24.9844C172.971 24.7145 173.487 24.5795 174.093 24.5795C174.709 24.5795 175.225 24.7145 175.642 24.9844C176.058 25.2495 176.373 25.6046 176.586 26.0497C176.799 26.4901 176.906 26.9754 176.906 27.5057V28.2727C176.906 28.803 176.797 29.2907 176.579 29.7358C176.366 30.1761 176.049 30.5312 175.627 30.8011C175.211 31.0663 174.699 31.1989 174.093 31.1989C173.478 31.1989 172.959 31.0663 172.538 30.8011C172.117 30.5312 171.797 30.1761 171.579 29.7358C171.361 29.2907 171.252 28.803 171.252 28.2727ZM172.701 27.5057V28.2727C172.701 28.7131 172.806 29.1084 173.014 29.4588C173.222 29.8045 173.582 29.9773 174.093 29.9773C174.591 29.9773 174.941 29.8045 175.145 29.4588C175.353 29.1084 175.457 28.7131 175.457 28.2727V27.5057C175.457 27.0653 175.358 26.6723 175.159 26.3267C174.96 25.9763 174.605 25.8011 174.093 25.8011C173.596 25.8011 173.239 25.9763 173.021 26.3267C172.808 26.6723 172.701 27.0653 172.701 27.5057ZM164.008 19.9489V19.1818C164.008 18.6515 164.117 18.1662 164.335 17.7259C164.557 17.2808 164.879 16.9257 165.301 16.6605C165.727 16.3906 166.243 16.2557 166.849 16.2557C167.465 16.2557 167.981 16.3906 168.397 16.6605C168.814 16.9257 169.129 17.2808 169.342 17.7259C169.555 18.1662 169.662 18.6515 169.662 19.1818V19.9489C169.662 20.4792 169.553 20.9669 169.335 21.4119C169.122 21.8523 168.805 22.2074 168.383 22.4773C167.967 22.7424 167.455 22.875 166.849 22.875C166.234 22.875 165.715 22.7424 165.294 22.4773C164.872 22.2074 164.553 21.8523 164.335 21.4119C164.117 20.9669 164.008 20.4792 164.008 19.9489ZM165.457 19.1818V19.9489C165.457 20.3892 165.561 20.7846 165.77 21.1349C165.978 21.4806 166.338 21.6534 166.849 21.6534C167.346 21.6534 167.697 21.4806 167.9 21.1349C168.109 20.7846 168.213 20.3892 168.213 19.9489V19.1818C168.213 18.7415 168.113 18.3485 167.914 18.0028C167.716 17.6525 167.36 17.4773 166.849 17.4773C166.352 17.4773 165.994 17.6525 165.777 18.0028C165.564 18.3485 165.457 18.7415 165.457 19.1818ZM164.548 31L174.548 16.4545H176.167L166.167 31H164.548Z" fill="white"/>
</svg>
