<svg width="128" height="128" viewBox="0 0 128 128" fill="none" xmlns="http://www.w3.org/2000/svg">
<path d="M63.9999 127.639C99.1471 127.639 127.64 99.147 127.64 63.9999C127.64 28.8527 99.1471 0.360229 63.9999 0.360229C28.8528 0.360229 0.360352 28.8527 0.360352 63.9999C0.360352 99.147 28.8528 127.639 63.9999 127.639Z" fill="#CBAAD5"/>
<path d="M60.5513 24.7926C53.2132 26.8622 47.1149 31.8881 41.4398 36.9803C36.6827 41.2488 31.9901 45.732 28.7032 51.2142C25.4164 56.6964 23.6451 63.3575 25.1659 69.5657C27.6728 79.7989 37.8955 85.8884 47.196 90.8393C50.7979 92.7563 54.4522 94.6942 58.4275 95.6139C69.248 98.1181 80.8284 92.3427 87.4485 83.4252C94.0685 74.5078 96.3834 63.0373 96.4881 51.9315C96.6469 35.155 77.0494 20.1393 60.5513 24.7926Z" fill="#FFDD95"/>
<path d="M44.2461 69.0552C40.0797 69.892 36.2178 72.4145 34.0338 76.06C29.9895 82.8118 32.9771 92.6236 39.913 96.3424C46.8489 100.061 56.3614 97.4087 60.7364 90.8672C68.9026 78.6576 57.1589 66.462 44.2461 69.0552Z" fill="#F68B79"/>
<path d="M79.837 70.1345C76.4864 70.09 73.0433 71.3736 70.8768 73.9301C67.6152 77.7781 67.8325 83.4139 68.5261 88.4092C68.7417 89.9597 68.9999 91.5469 69.787 92.9002C71.6385 96.0833 75.7561 97.03 79.426 97.3354C81.8125 97.5343 84.2512 97.5893 86.5635 96.9671C91.2177 95.7142 94.9452 91.5399 95.665 86.7741C97.0262 77.765 88.3016 70.2471 79.837 70.1345Z" fill="#F68B79"/>
<path d="M53.2232 74.5437C58.359 65.2083 65.8315 57.1695 74.7682 51.367C77.9652 59.0367 79.6797 67.3207 79.7897 75.63C80.3612 75.507 80.9327 75.3839 81.5042 75.2609C82.2249 66.2466 80.3123 57.0369 76.0613 49.0548C82.3297 46.7259 87.9262 42.618 92.0271 37.3356C90.611 35.7728 88.2098 35.4037 86.1767 35.9622C84.1428 36.5206 82.416 37.8573 80.8742 39.297C78.3892 41.6172 76.2306 44.2863 74.4811 47.2015C75.8641 43.9626 75.3903 40.0038 73.2814 37.1837C71.2047 34.4055 67.8017 32.8184 65.842 29.9564C65.6928 36.2615 68.4866 42.5752 73.2516 46.7067C72.5597 46.1064 61.5011 58.7558 60.4933 59.9922C57.9062 63.1683 49.8743 70.9968 53.2232 74.5437Z" fill="#CDE6A4"/>
<path d="M55.2738 74.8428C55.7005 74.6883 56.2345 74.7904 56.5059 75.1543C56.7781 75.5172 56.6795 76.1271 56.2677 76.32C55.9265 76.4797 55.5277 76.3322 55.1839 76.1778C54.0365 75.6647 52.904 75.0679 52.0052 74.1892C51.1065 73.3114 50.4591 72.1125 50.4774 70.8561C50.7872 70.9573 51.0978 71.0585 51.4075 71.1589C52.1335 72.6919 53.7765 74.047 55.2738 74.8428Z" fill="#544E3A"/>
<path d="M82.8567 75.063C83.1612 74.7262 83.6804 74.5665 84.0914 74.7602C84.5015 74.9539 84.7004 75.5386 84.4273 75.9015C84.2013 76.2026 83.7799 76.2593 83.4038 76.2846C82.1499 76.3692 80.8691 76.3727 79.6632 76.0185C78.4573 75.6642 77.3239 74.9094 76.7515 73.7908C77.0726 73.735 77.3937 73.6783 77.7148 73.6224C79.0742 74.6363 81.1613 75.063 82.8567 75.063Z" fill="#544E3A"/>
<path d="M41.3542 71.7776C39.2697 72.9364 37.371 74.4956 36.0578 76.4868C34.7446 78.4779 34.0518 80.9254 34.3991 83.2848C34.489 83.8947 34.7655 84.6102 35.3754 84.7018C35.8998 84.7812 36.3728 84.3092 36.5168 83.7987C36.6616 83.2883 36.5743 82.7456 36.549 82.2159C36.4408 79.9778 37.4844 77.7746 39.0821 76.2032C40.6797 74.6326 42.7851 73.6501 44.9595 73.1109C45.4403 72.9913 45.9359 72.8884 46.36 72.6318C46.784 72.3753 47.1296 71.9242 47.106 71.4286C47.0004 69.1539 42.2197 71.2968 41.3542 71.7776Z" fill="white"/>
<path d="M37.348 86.9302C36.2154 86.9887 35.5008 88.5418 36.177 89.4519C36.8541 90.362 38.5224 90.1491 38.9674 89.1055C39.4124 88.0619 38.6961 86.8456 37.5644 86.9215L37.348 86.9302Z" fill="white"/>
<path d="M70.3123 78.4301C69.4642 80.6594 69.0157 83.0746 69.2941 85.4436C69.5715 87.8126 70.6177 90.131 72.4038 91.712C72.8654 92.1204 73.5382 92.4895 74.0634 92.1675C74.5154 91.89 74.573 91.2251 74.3548 90.7409C74.1367 90.2575 73.7205 89.898 73.3593 89.5088C71.8349 87.8667 71.2137 85.5091 71.4239 83.278C71.6342 81.0477 72.6124 78.9397 73.9282 77.1265C74.2187 76.7251 74.532 76.3272 74.6908 75.8578C74.8496 75.3884 74.8234 74.8212 74.4866 74.4574C72.9422 72.7864 70.6648 77.5043 70.3123 78.4301Z" fill="white"/>
<path d="M77.0065 92.6019C76.1776 93.3768 76.6313 95.0242 77.735 95.285C78.8388 95.5459 79.9784 94.3078 79.6468 93.2232C79.3153 92.1386 77.9837 91.6692 77.167 92.4562L77.0065 92.6019Z" fill="white"/>
</svg>
