<svg width="127" height="127" viewBox="0 0 127 127" fill="none" xmlns="http://www.w3.org/2000/svg">
<path d="M63.5 126.702C98.4056 126.702 126.702 98.4056 126.702 63.5C126.702 28.5944 98.4056 0.297852 63.5 0.297852C28.5944 0.297852 0.297852 28.5944 0.297852 63.5C0.297852 98.4056 28.5944 126.702 63.5 126.702Z" fill="#FFDD95"/>
<path d="M35.2569 62.7006C31.7378 63.2656 28.7628 65.6036 26.2914 68.173C24.2853 70.2588 22.3788 72.998 23.0192 75.8204C23.287 77.0007 23.9776 78.0337 24.4802 79.1351C26.0374 82.5416 25.7602 86.4541 26.0539 90.1882C26.3477 93.9213 27.5592 98.0367 30.8495 99.827C34.4406 101.781 39.0074 100.182 42.9 101.431C45.1462 102.152 47.0466 103.789 49.3517 104.29C52.3032 104.931 55.2894 103.603 58.0026 102.278C61.8736 100.388 65.793 98.3772 68.781 95.274C71.7689 92.1709 73.7083 87.7358 72.7741 83.5303C71.4656 77.6376 65.4135 74.3421 60.3293 71.0881C58.1629 69.7016 55.9904 68.1591 53.4262 67.6244C51.0024 67.1192 48.4816 67.6132 46.0916 66.7778C42.231 65.4277 39.8203 61.9683 35.2569 62.7006Z" fill="#F68B79"/>
<path d="M88.4106 39.8562C87.5076 39.2166 86.498 38.5554 85.3958 38.649C84.7025 38.708 84.0742 39.0615 83.4711 39.4073C79.153 41.8805 74.834 44.3528 70.5159 46.826C70.0401 47.0989 69.548 47.3858 69.2351 47.8364C68.3538 49.1102 69.3079 50.7871 69.983 52.1805C72.5133 57.4059 71.074 64.3194 74.9181 68.6704C76.8895 70.9019 79.9303 71.9556 82.9035 72.1272C85.8758 72.2979 88.8317 71.6818 91.7434 71.057C93.7738 70.6211 95.9046 70.1271 97.4376 68.7268C98.5962 67.6678 99.2886 66.1903 99.7505 64.6903C103.079 53.879 96.5043 45.592 88.4106 39.8562Z" fill="#F68B79"/>
<path d="M85.5948 82.695C86.1832 75.9505 86.4353 69.1765 86.3513 62.4069C86.3175 59.7231 86.782 57.2413 86.5705 54.5653C86.509 53.7915 86.4041 52.9855 85.9656 52.3451C85.2741 51.3356 83.9578 51.002 82.7541 50.7819C75.1942 49.3962 67.4549 49.4499 59.7693 49.5089C53.8376 49.5539 47.8522 49.6051 42.0627 50.8997C41.5254 51.0202 40.963 51.1649 40.567 51.547C39.8581 52.2308 39.9431 53.3686 40.0739 54.3443C41.4422 64.6002 42.015 74.9617 41.7854 85.3051C41.7351 87.5573 41.6684 89.9127 42.6563 91.937C43.236 93.1259 44.1528 94.1259 45.1867 94.9509C48.0715 97.2525 51.848 98.2204 55.5378 98.2707C59.2277 98.321 62.8742 97.5211 66.4506 96.6069C72.0867 95.1658 77.6466 93.4309 83.1025 91.4109C83.7126 91.1848 84.3356 90.9473 84.8261 90.5192C85.8097 89.6596 86.0497 88.215 85.9362 86.9134C85.8218 85.6136 85.4813 83.9957 85.5948 82.695Z" fill="#CBAAD5"/>
<path d="M77.8834 44.6222C75.6918 44.0199 73.3963 43.9341 71.1242 43.8509C66.7333 43.6915 62.3423 43.5312 57.9514 43.3717C53.291 43.2019 48.3334 43.1048 44.3307 45.4974C42.5335 46.572 40.9494 48.2653 40.6729 50.3407C40.3731 52.5946 41.712 54.8278 43.5517 56.1649C45.3914 57.502 47.6601 58.093 49.8932 58.5219C61.2063 60.6918 72.9205 59.3504 84.1712 56.8781C85.6426 56.5549 87.3246 56.0358 87.8723 54.6328C89.5041 50.4542 80.8332 45.4324 77.8834 44.6222Z" fill="#CBAAD5"/>
<path d="M42.7658 47.7765C41.2761 48.9082 40.9928 51.1656 41.745 52.8788C42.4971 54.5921 44.0648 55.8191 45.726 56.6796C47.07 57.3755 48.4071 57.7498 49.8916 58.0453C59.8857 60.0341 70.217 58.7802 80.2908 57.2472C81.9382 56.9968 83.6565 56.7099 84.998 55.7203C85.589 55.2844 86.1029 54.6909 86.2658 53.9742C86.5067 52.9118 85.9339 51.8268 85.2077 51.0157C83.0837 48.6439 79.705 47.8094 76.5221 47.741C73.3392 47.6725 70.1641 48.241 66.9829 48.1188C64.6545 48.0295 62.358 47.5711 60.04 47.3328C58.1768 47.1413 56.3016 47.0928 54.4298 47.0443C51.6776 46.9732 48.9245 46.9013 46.1723 46.8302C44.9937 46.799 43.7034 47.0642 42.7658 47.7765Z" fill="#544E3A"/>
<path d="M83.9068 68.6149C86.7283 64.8687 92.1184 63.3037 96.5076 64.9572C97.2832 65.2492 98.0336 65.6357 98.6523 66.1868C100.787 68.0872 100.81 71.6375 99.2494 74.0327C97.6896 76.4271 94.9304 77.7997 92.1496 78.4566C89.1158 79.1732 85.2769 78.8119 83.8046 76.0648C82.9917 77.9565 82.6615 80.0528 82.8548 82.1022C87.9286 83.9775 93.5335 84.3908 98.8274 83.279C100.6 82.9072 102.386 82.3422 103.792 81.1992C105.951 79.4427 106.888 76.5995 107.381 73.8611C107.774 71.6809 107.95 69.4243 107.477 67.2596C106.622 63.3479 103.519 60.0116 99.6784 58.8773C98.6368 58.5697 97.557 58.4146 96.4798 58.2742C93.9451 57.9449 91.3506 57.697 88.8497 58.2248C81.6268 59.7508 84.0082 63.2578 83.9068 68.6149Z" fill="#CBAAD5"/>
<path d="M59.8639 65.9744C56.9583 66.36 54.298 68.2665 53.0007 70.8948C52.2347 72.4459 51.9322 74.1938 51.9002 75.9235C51.8447 78.8846 52.7217 82.0935 55.1152 83.8379C56.7928 85.0606 58.9688 85.3855 61.0442 85.3422C63.5633 85.2894 66.2722 84.6273 67.858 82.6689C69.0131 81.2416 69.3979 79.323 69.3598 77.4876C69.3104 75.0881 68.4387 72.5014 66.3736 71.2761C63.8874 69.8012 60.4654 70.9234 58.6534 73.1756C57.9584 74.0395 57.4341 75.082 57.3864 76.1904C57.3387 77.2978 57.837 78.4651 58.7937 79.0249C59.6334 79.5163 60.6707 79.4877 61.6395 79.3924C62.3467 79.323 63.1292 79.1826 63.5529 78.6124C64.1639 77.7892 63.6725 76.6341 63.1725 75.7398C62.8207 77.1055 60.6395 77.4677 59.8648 76.2892C59.4003 75.5829 59.4939 74.5942 59.9844 73.9061C60.4757 73.2181 61.3033 72.8185 62.143 72.7232C64.0677 72.5048 65.9897 73.8896 66.5868 75.7328C67.1838 77.576 66.5356 79.7034 65.1569 81.064C63.7782 82.4253 61.7669 83.0467 59.8327 82.9314C58.623 82.8595 57.389 82.4929 56.4956 81.674C55.9999 81.2199 55.6281 80.6454 55.3188 80.0475C54.1463 77.7797 53.8447 75.0326 54.7009 72.6279C55.5571 70.2232 57.623 68.2353 60.1118 67.6694C62.6907 67.0827 65.2133 68.1426 66.8745 70.1114C70.0773 67.9381 61.3891 65.7716 59.8639 65.9744Z" fill="white"/>
<path d="M47.9201 36.9315C47.9201 35.0051 48.9618 32.9661 48.0926 31.2468C47.6004 30.2719 46.6038 29.6757 45.8352 28.9001C45.0535 28.1124 44.4911 27.1089 44.2268 26.0318C44.0258 25.2129 44.0102 24.2978 44.4487 23.5768C44.8872 22.8567 45.8854 22.4416 46.6203 22.8567C45.6722 23.3922 45.4686 24.7432 45.8785 25.7519C46.2884 26.7606 47.1445 27.5076 47.9634 28.2259C48.7815 28.9443 49.6221 29.7182 49.9808 30.7468C50.5276 32.3144 49.8249 34.0034 49.4783 35.6273C49.1342 37.2409 49.3933 39.0165 50.8561 39.9584C49.064 41.89 47.9201 38.4038 47.9201 36.9315Z" fill="white"/>
<path d="M62.5409 36.6983C63.1302 34.8638 64.7446 33.2407 64.443 31.3386C64.2723 30.2597 63.5063 29.3871 63.0115 28.4139C62.508 27.4252 62.2792 26.2978 62.3572 25.1912C62.417 24.3497 62.6804 23.4736 63.3191 22.9216C63.9569 22.3696 65.034 22.2804 65.6068 22.9C64.5401 23.1192 63.9335 24.3437 64.0158 25.4295C64.0981 26.5153 64.6848 27.4884 65.2446 28.4226C65.8044 29.3568 66.3677 30.3507 66.3945 31.4391C66.4353 33.0986 65.2498 34.492 64.424 35.9323C63.6025 37.363 63.3061 39.1334 64.4118 40.4774C62.1128 41.7686 62.0903 38.1004 62.5409 36.6983Z" fill="white"/>
<path d="M76.1441 36.5502C77.1103 34.8838 79.0341 33.642 79.1459 31.719C79.2091 30.6289 78.6468 29.6133 78.3703 28.5561C78.0896 27.4824 78.106 26.3324 78.4188 25.2674C78.6563 24.4581 79.1017 23.6582 79.8426 23.2553C80.5835 22.8523 81.6546 22.9944 82.0827 23.7215C80.9943 23.7085 80.1399 24.7752 79.9882 25.8532C79.8374 26.9312 80.2031 28.0075 80.5506 29.0387C80.8981 30.0708 81.2369 31.1618 81.0307 32.2312C80.717 33.8621 79.262 34.9704 78.1476 36.2009C77.0401 37.4237 76.3728 39.0901 77.1666 40.6386C74.6458 41.4125 75.4058 37.824 76.1441 36.5502Z" fill="white"/>
</svg>
