<svg width="128" height="128" viewBox="0 0 128 128" fill="none" xmlns="http://www.w3.org/2000/svg">
<path d="M64 127.64C99.1471 127.64 127.64 99.1471 127.64 64C127.64 28.8528 99.1471 0.360352 64 0.360352C28.8528 0.360352 0.360352 28.8528 0.360352 64C0.360352 99.1471 28.8528 127.64 64 127.64Z" fill="#F68B79"/>
<path d="M66.4994 22.0903C66.1006 19.2048 64.5265 15.5287 61.6488 15.979C59.3078 16.3454 58.4335 19.2135 58.1238 21.5633C56.8402 31.3035 56.7469 41.2009 57.8463 50.9638C53.3195 42.069 47.0432 34.0695 39.4817 27.5551C37.8195 26.1232 35.7882 24.6774 33.6304 25.077C31.5171 25.4688 30.073 27.6196 29.8689 29.76C29.6647 31.8995 30.4456 34.0084 31.3714 35.9481C35.9305 45.4929 44.5216 53.0309 54.5795 56.3091C48.3861 55.6834 42.4467 53.4279 36.2551 52.7848C30.0635 52.1426 23.049 53.55 19.4227 58.6091C18.784 59.5 18.2535 60.5584 18.3792 61.6482C18.6671 64.1524 21.8545 64.97 24.3692 65.1471C34.2779 65.8443 44.2214 66.0528 54.151 65.771C43.5182 71.46 31.8164 78.4875 29.0801 90.232C28.4362 92.9971 28.6499 96.4768 31.1009 97.9096C34.181 99.7096 37.8483 96.8852 40.2147 94.2169C45.8225 87.8944 50.9976 81.188 55.6928 74.1614C53.0298 82.9357 51.7175 92.1193 51.8161 101.288C51.8423 103.726 51.9897 106.249 53.0979 108.42C54.2069 110.592 56.52 112.325 58.9396 112.027C62.9376 111.535 64.3694 106.545 64.7822 102.538C65.6617 93.9961 66.1241 85.4112 66.166 76.8235C69.2688 88.3473 74.9622 101.195 86.5191 104.171C87.4493 104.411 88.4509 104.574 89.3566 104.254C92.2203 103.243 91.6174 99.0369 90.3932 96.2578C87.3088 89.253 83.795 82.4375 79.8799 75.8611C85.7993 79.8888 92.4551 82.831 99.418 84.4976C101.616 85.0238 103.961 85.4173 106.102 84.6931C108.242 83.9697 110.043 81.7744 109.574 79.5633C109.218 77.8819 107.739 76.7066 106.336 75.7136C98.7976 70.378 90.5852 65.9978 81.9557 62.7092C87.6395 60.8437 92.989 57.9669 97.679 54.2533C100.598 51.9419 103.283 47.3305 100.416 44.9546C98.2174 43.1327 94.9287 44.7076 92.6322 46.4047C86.6901 50.7963 81.2908 55.9225 76.5982 61.6298C84.685 52.3241 89.7781 40.4566 90.9508 28.1842C91.1619 25.9775 90.9054 23.188 88.8401 22.3826C87.0226 21.6741 85.0925 23.0606 83.7549 24.4811C76.2841 32.4143 73.6865 43.6309 71.3786 54.2812C75.6611 42.1179 78.3451 29.3927 79.3389 16.5365C77.1445 15.76 74.635 16.9091 73.1543 18.7048C71.6736 20.5005 71.0078 22.8163 70.4398 25.0727C68.9913 30.8254 68.3151 36.6758 67.1529 42.4704C67.4757 35.6436 67.4373 28.8752 66.4994 22.0903Z" fill="white"/>
<path d="M58.7073 52.7457C55.0749 55.8083 53.1387 60.5759 52.8709 65.32C52.7278 67.8591 53.055 70.5064 54.3691 72.6834C55.3489 74.3064 56.834 75.5873 58.4884 76.513C64.0962 79.6525 71.7066 78.437 76.2604 73.9015C79.6546 70.5204 81.3483 65.4465 80.4382 60.7426C78.5474 50.9657 66.4469 46.2208 58.7073 52.7457Z" fill="#FFDD95"/>
</svg>
