<svg width="128" height="128" viewBox="0 0 128 128" fill="none" xmlns="http://www.w3.org/2000/svg">
<path d="M64 127.64C99.1471 127.64 127.64 99.1471 127.64 63.9999C127.64 28.8528 99.1471 0.360352 64 0.360352C28.8528 0.360352 0.360352 28.8528 0.360352 63.9999C0.360352 99.1471 28.8528 127.64 64 127.64Z" fill="#CDE6A4"/>
<path d="M86.0474 71.8232C82.8434 72.5762 80.6123 76.3918 81.86 79.4379C79.8907 78.7468 77.6404 78.6936 75.7644 79.608C73.8884 80.5225 72.4862 82.4962 72.5499 84.5816C72.6136 86.6679 74.3491 88.6599 76.4345 88.7341C74.3247 89.4618 73.0455 91.8813 73.3623 94.0906C73.6781 96.2999 75.3927 98.1724 77.4763 98.9717C79.56 99.7709 81.9394 99.5816 84.0135 98.7579C83.3975 100.058 84.1906 101.695 85.4314 102.424C86.6713 103.154 88.2043 103.168 89.6309 102.976C91.2207 102.762 92.8201 102.298 94.0888 101.315C95.3575 100.333 96.2457 98.7623 96.1026 97.1646C98.099 99.8076 102.383 99.8538 105.01 97.8356C106.323 96.8261 107.34 95.3061 107.36 93.65C107.38 91.9939 106.178 90.2941 104.531 90.1083C107.833 90.4111 110.862 86.8433 110.027 83.6349C109.192 80.4265 104.808 78.787 102.073 80.6612C102.811 78.52 101.79 75.9163 99.7944 74.8466C98.7116 74.2663 97.3975 74.173 96.2222 74.501C94.1455 75.0813 94.7537 75.8369 93.1072 74.6686C90.7958 73.0265 89.3037 71.0579 86.0474 71.8232Z" fill="white"/>
<path d="M48.4213 63.3325C61.739 47.2034 97.0833 29.0562 97.0833 29.0562L101.938 43.9802C84.9348 43.3895 56.5718 69.6637 56.5718 69.6637L50.3409 76.0892L43.1589 71.4114L48.4213 63.3325Z" fill="#CBAAD5"/>
<path d="M100.391 46.4347C100.391 46.4347 88.8306 46.96 77.3531 55.3059C65.8756 63.6518 56.6981 70.2361 50.935 77.3177L46.8052 84.9839L51.1985 87.366C51.1985 87.366 73.4807 72.441 83.2943 66.9431C93.1078 61.4443 104.695 61.3212 104.695 61.3212L100.391 46.4347Z" fill="#F68B79"/>
<path d="M104.09 63.2407L104.695 78.2102C104.695 78.2102 94.6689 76.3787 78.0878 82.5511C61.5059 88.7235 53.386 93.5347 53.386 93.5347L50.0127 89.2924C50.0127 89.2924 75.7084 72.659 83.3345 68.9009C90.9614 65.142 104.09 63.2407 104.09 63.2407Z" fill="#ACD2C7"/>
<path d="M43.9705 63.0358L36.2528 74.885L23.3164 76.6877L33.5121 85.3739L30.8046 98.9525L44.268 90.8456L60.0097 95.7284L51.9264 84.5825L63.0017 75.4312L48.972 74.9871L43.9705 63.0358Z" fill="#FFDD95"/>
<path d="M33.9333 26.7639C30.7869 27.5038 28.5959 31.2497 29.821 34.2408C27.8874 33.562 25.6773 33.5096 23.8353 34.4074C21.9934 35.3053 20.6165 37.2432 20.6793 39.2911C20.7421 41.339 22.4454 43.2961 24.4932 43.3685C22.4218 44.0832 21.1662 46.4591 21.476 48.6282C21.7866 50.7974 23.4697 52.6368 25.5158 53.4212C27.562 54.2056 29.8987 54.0197 31.9352 53.2109C31.3305 54.4874 32.1097 56.0947 33.3269 56.811C34.545 57.5274 36.0501 57.5413 37.4506 57.3529C39.0116 57.1426 40.5822 56.6871 41.8281 55.723C43.0733 54.7579 43.9458 53.2161 43.8053 51.6464C45.7651 54.2414 49.9725 54.2867 52.5509 52.3052C53.8405 51.314 54.8396 49.821 54.8588 48.1946C54.8789 46.5682 53.6974 44.8998 52.0815 44.7166C55.323 45.0142 58.2975 41.51 57.4773 38.3592C56.6571 35.2084 52.352 33.5995 49.6671 35.4397C50.3913 33.3368 49.3897 30.7811 47.4299 29.7297C46.3672 29.1599 45.0767 29.0683 43.9223 29.3903C41.8831 29.9601 42.4799 30.7026 40.8631 29.5552C38.5954 27.9454 37.1295 26.0126 33.9333 26.7639Z" fill="white"/>
</svg>
