<svg width="56" height="56" viewBox="0 0 56 56" fill="none" xmlns="http://www.w3.org/2000/svg">
<path d="M27.5988 0C12.3565 0 0 12.3565 0 27.5988C0 42.8406 12.3565 55.1971 27.5988 55.1971C42.8416 55.1971 55.1976 42.8406 55.1976 27.5988C55.1976 12.356 42.8416 0 27.5988 0Z" fill="#F68B79"/>
<path d="M43.2141 16.4901C42.8599 15.5793 42.4374 14.9293 41.7541 14.246C41.0717 13.5626 40.4216 13.1401 39.51 12.7859C38.822 12.5187 37.7883 12.2006 35.8863 12.1137C33.828 12.0194 33.2113 12 28 12C22.7887 12 22.172 12.0194 20.1137 12.1137C18.2108 12.2006 17.1771 12.5187 16.4901 12.7859C15.5793 13.1401 14.9293 13.5626 14.246 14.246C13.5636 14.9293 13.1401 15.5793 12.786 16.4901C12.5187 17.178 12.2006 18.2117 12.1137 20.1137C12.0203 22.172 12 22.7887 12 28C12 33.2113 12.0194 33.828 12.1137 35.8863C12.2006 37.7892 12.5187 38.8229 12.786 39.51C13.1401 40.4207 13.5626 41.0707 14.246 41.7541C14.9293 42.4364 15.5793 42.8599 16.4901 43.2141C17.178 43.4813 18.2108 43.7994 20.1137 43.8863C22.1711 43.9806 22.7887 44 28 44C33.2113 44 33.8289 43.9806 35.8863 43.8863C37.7892 43.7994 38.8229 43.4813 39.51 43.2141C40.4207 42.8599 41.0707 42.4374 41.7541 41.7541C42.4374 41.0707 42.8599 40.4207 43.2141 39.51C43.4813 38.822 43.7994 37.7892 43.8863 35.8863C43.9797 33.828 44 33.2113 44 28C44 22.7887 43.9806 22.172 43.8863 20.1137C43.7994 18.2108 43.4813 17.178 43.2141 16.4901ZM28 38.0222C22.4651 38.0222 17.9778 33.5349 17.9778 28C17.9778 22.4651 22.4651 17.9778 28 17.9778C33.5349 17.9778 38.0222 22.4651 38.0222 28C38.0222 33.5349 33.5349 38.0222 28 38.0222ZM38.4179 19.9242C37.1244 19.9242 36.0758 18.8756 36.0758 17.5821C36.0758 16.2885 37.1244 15.2399 38.4179 15.2399C39.7115 15.2399 40.7601 16.2885 40.7601 17.5821C40.7601 18.8756 39.7115 19.9242 38.4179 19.9242Z" fill="white"/>
<path d="M28 21.4951C24.4069 21.4951 21.4943 24.4077 21.4943 28.0009C21.4943 31.5941 24.4069 34.5067 28 34.5067C31.5932 34.5067 34.5058 31.5941 34.5058 28.0009C34.5058 24.4077 31.5932 21.4951 28 21.4951Z" fill="white"/>
</svg>
