<svg width="384" height="45" viewBox="0 0 384 45" fill="none" xmlns="http://www.w3.org/2000/svg">
<rect x="1" y="1" width="382" height="43" rx="8" stroke="#D9D9D9"/>
<rect x="7" y="8" width="82" height="29" rx="5" fill="#F68B79"/>
<path d="M46.6193 16.4545V31H44.858V18.3011H44.7727L41.2216 20.6591V18.8693L44.858 16.4545H46.6193ZM55.5469 31.1989C54.4768 31.1989 53.5653 30.9077 52.8125 30.3253C52.0597 29.7382 51.4844 28.8883 51.0866 27.7756C50.6889 26.6581 50.4901 25.3087 50.4901 23.7273C50.4901 22.1553 50.6889 20.813 51.0866 19.7003C51.4891 18.5829 52.0668 17.7306 52.8196 17.1435C53.5772 16.5516 54.4863 16.2557 55.5469 16.2557C56.6075 16.2557 57.5142 16.5516 58.267 17.1435C59.0246 17.7306 59.6023 18.5829 60 19.7003C60.4025 20.813 60.6037 22.1553 60.6037 23.7273C60.6037 25.3087 60.4048 26.6581 60.0071 27.7756C59.6094 28.8883 59.0341 29.7382 58.2812 30.3253C57.5284 30.9077 56.617 31.1989 55.5469 31.1989ZM55.5469 29.6364C56.6075 29.6364 57.4313 29.125 58.0185 28.1023C58.6056 27.0795 58.8991 25.6212 58.8991 23.7273C58.8991 22.4678 58.7642 21.3954 58.4943 20.5099C58.2292 19.6245 57.8456 18.9498 57.3438 18.4858C56.8466 18.0218 56.2476 17.7898 55.5469 17.7898C54.4957 17.7898 53.6742 18.3082 53.0824 19.3452C52.4905 20.3774 52.1946 21.8381 52.1946 23.7273C52.1946 24.9867 52.3272 26.0568 52.5923 26.9375C52.8575 27.8182 53.2386 28.4882 53.7358 28.9474C54.2377 29.4067 54.8414 29.6364 55.5469 29.6364ZM70.7173 28.2727V27.5057C70.7173 26.9754 70.8262 26.4901 71.044 26.0497C71.2666 25.6046 71.5885 25.2495 72.0099 24.9844C72.4361 24.7145 72.9522 24.5795 73.5582 24.5795C74.1738 24.5795 74.6899 24.7145 75.1065 24.9844C75.5232 25.2495 75.8381 25.6046 76.0511 26.0497C76.2642 26.4901 76.3707 26.9754 76.3707 27.5057V28.2727C76.3707 28.803 76.2618 29.2907 76.044 29.7358C75.831 30.1761 75.5137 30.5312 75.0923 30.8011C74.6757 31.0663 74.1643 31.1989 73.5582 31.1989C72.9427 31.1989 72.4242 31.0663 72.0028 30.8011C71.5814 30.5312 71.2618 30.1761 71.044 29.7358C70.8262 29.2907 70.7173 28.803 70.7173 28.2727ZM72.1662 27.5057V28.2727C72.1662 28.7131 72.2704 29.1084 72.4787 29.4588C72.687 29.8045 73.0469 29.9773 73.5582 29.9773C74.0554 29.9773 74.4058 29.8045 74.6094 29.4588C74.8177 29.1084 74.9219 28.7131 74.9219 28.2727V27.5057C74.9219 27.0653 74.8224 26.6723 74.6236 26.3267C74.4247 25.9763 74.0696 25.8011 73.5582 25.8011C73.0611 25.8011 72.7036 25.9763 72.4858 26.3267C72.2727 26.6723 72.1662 27.0653 72.1662 27.5057ZM63.473 19.9489V19.1818C63.473 18.6515 63.5819 18.1662 63.7997 17.7259C64.0223 17.2808 64.3442 16.9257 64.7656 16.6605C65.1918 16.3906 65.7079 16.2557 66.3139 16.2557C66.9295 16.2557 67.4455 16.3906 67.8622 16.6605C68.2789 16.9257 68.5938 17.2808 68.8068 17.7259C69.0199 18.1662 69.1264 18.6515 69.1264 19.1818V19.9489C69.1264 20.4792 69.0175 20.9669 68.7997 21.4119C68.5866 21.8523 68.2694 22.2074 67.848 22.4773C67.4313 22.7424 66.92 22.875 66.3139 22.875C65.6984 22.875 65.1799 22.7424 64.7585 22.4773C64.3371 22.2074 64.0175 21.8523 63.7997 21.4119C63.5819 20.9669 63.473 20.4792 63.473 19.9489ZM64.9219 19.1818V19.9489C64.9219 20.3892 65.026 20.7846 65.2344 21.1349C65.4427 21.4806 65.8026 21.6534 66.3139 21.6534C66.8111 21.6534 67.1615 21.4806 67.3651 21.1349C67.5734 20.7846 67.6776 20.3892 67.6776 19.9489V19.1818C67.6776 18.7415 67.5781 18.3485 67.3793 18.0028C67.1804 17.6525 66.8253 17.4773 66.3139 17.4773C65.8168 17.4773 65.4593 17.6525 65.2415 18.0028C65.0284 18.3485 64.9219 18.7415 64.9219 19.1818ZM64.0128 31L74.0128 16.4545H75.6321L65.6321 31H64.0128Z" fill="white"/>
</svg>
