<svg width="103" height="158" viewBox="0 0 103 158" fill="none" xmlns="http://www.w3.org/2000/svg">
<path d="M89.1756 9.59828H72.0885V5.23829C72.0885 2.3444 69.7421 0 66.8507 0H35.2708C32.3794 0 30.0352 2.3444 30.0352 5.23829V9.59828H12.9482C5.80753 9.59828 0 15.4063 0 22.5499V145.051C0 152.19 5.80753 158 12.9482 158H89.1756C96.3162 158 102.124 152.19 102.124 145.051V22.5499C102.124 15.4063 96.3162 9.59828 89.1756 9.59828ZM96.4671 145.438C96.4671 149.424 93.2244 152.667 89.2387 152.667H12.8851C8.89932 152.667 5.65666 149.424 5.65666 145.438V22.1603C5.65666 18.1741 8.89932 14.9312 12.8851 14.9312H89.2387C93.2244 14.9312 96.4671 18.1741 96.4671 22.1603V145.438Z" fill="#F68B79"/>
<path d="M89.2768 85.828H12.8472V112.853H89.2768V85.828Z" fill="#F68B79"/>
<path d="M89.2768 116.91H12.8472V143.935H89.2768V116.91Z" fill="#F68B79"/>
</svg>
