<svg width="427" height="464" viewBox="0 0 427 464" fill="none" xmlns="http://www.w3.org/2000/svg">
<path d="M122.175 278.797C60.2619 312.642 30.0218 287.766 46.2285 255.682C62.1821 224.101 24.931 231.694 41.2755 200.373C60.391 163.739 94.0274 202.966 97.4103 161.574C97.4103 161.574 108.142 175.608 127.129 165.702C127.129 165.702 137.86 216.883 186.565 228.44L180.787 268.065C180.787 268.065 146.115 270.541 122.175 278.797Z" fill="#F68B79"/>
<path d="M325.251 278.797C387.164 312.642 417.405 287.766 401.198 255.682C385.244 224.101 422.495 231.694 406.151 200.373C387.035 163.739 353.399 202.966 350.016 161.574C350.016 161.574 339.284 178.084 320.298 168.178C320.298 168.178 309.566 216.883 260.861 228.44L271.593 268.065C271.593 268.065 301.311 270.541 325.251 278.797Z" fill="#F68B79"/>
<path d="M213.807 2.25078C213.807 2.25078 328.032 -25.8165 335.157 116.277L326.076 125.252L328.032 116.277C328.032 116.277 283.02 123.938 236.921 60.0364C236.921 60.0364 207.867 103.648 119.542 107.916V125.252L109.364 111.326C109.358 111.329 101.538 -13.4339 213.807 2.25078Z" fill="#F68B79"/>
<path d="M119.283 103.789C119.044 118.464 120.094 133.165 123.054 147.569C125.951 161.95 130.739 176.129 138.582 188.944C146.389 201.708 157.408 213.077 171.455 220.615C178.428 224.411 186.026 227.277 193.904 229.3C201.779 231.384 209.998 232.296 218.198 232.829C234.604 233.786 251.399 232.109 266.422 226.212C281.499 220.4 293.975 210.188 303.063 198.119C312.206 186.007 318.163 172.147 322.082 157.964C326.089 143.762 327.978 129.115 328.541 114.447C328.705 129.132 327.132 143.864 323.617 158.279C319.974 172.64 314.23 186.769 305.136 199.308C296.167 211.86 283.166 222.433 267.628 228.56C252.101 234.749 234.784 236.557 218.002 235.65C209.599 235.064 201.168 234.078 193.055 231.891C184.942 229.764 177.103 226.759 169.913 222.796C155.467 214.904 144.036 203.158 136.406 189.955C128.673 176.747 124.113 162.332 121.513 147.795C119.051 133.219 118.32 118.45 119.283 103.789Z" fill="black"/>
<path d="M227.853 275.494C197.25 275.494 180.576 265.851 180.344 265.713L179.961 265.486L186.237 227.615L189.131 227.734L182.954 265.004C186.8 267.13 216.55 282.108 269.312 268.47L260.363 228.721L263.248 228.561L272.418 269.294L271.542 269.524C254.825 273.923 240.204 275.493 227.853 275.494Z" fill="black"/>
<path d="M427 463.264H0L0.42288 461.319C1.259 457.481 1.50248 447.118 3.52391 441.479L4.60988 436.253C5.42998 433.827 6.73703 427.312 7.64043 424.912C10.0495 418.484 10.9305 410.242 13.0961 405.1C19.1476 390.722 23.9275 377.671 30.7446 366.069C35.0149 358.699 39.6697 351.553 44.5775 344.837C52.6152 333.872 62.312 320.379 71.8842 311.42C74.9692 308.526 78.1887 305.687 81.7255 302.736C82.3566 302.182 83.0197 301.644 83.7244 301.105C94.5268 292.227 106.453 286.758 118.873 279.622C135.33 270.099 161.556 271.354 180.787 264.763L182.438 266.414C163.402 272.938 136.756 272.977 120.475 282.394C108.206 289.446 96.4233 294.812 85.7171 303.614C85.0251 304.146 84.4196 304.636 83.811 305.172C80.2903 308.107 77.1187 310.907 74.0786 313.759C64.6505 322.583 55.0851 335.926 47.166 346.728C42.3254 353.351 37.7315 360.403 33.5157 367.68C26.7658 379.167 22.0499 392.094 16.0529 406.34C13.9033 411.444 13.0384 419.647 10.687 425.918C9.75157 428.404 8.45733 434.885 7.64043 437.294L6.53843 442.559C4.94627 447 5.25378 455.83 4.05566 460.057H423.764C423.675 457.119 423.345 450.316 422.105 441.011C420.961 432.77 419.411 424.657 417.492 416.909C414.298 403.685 409.973 390.849 404.63 378.75C401.247 371.156 397.739 364.308 393.911 357.816C385.636 343.683 375.699 330.869 364.374 319.725C340.149 295.802 305.999 278.553 269.116 269.716L269.942 266.414C307.397 275.389 341.978 293.104 366.62 317.44C378.146 328.783 388.256 341.818 396.669 356.192C400.558 362.783 404.12 369.739 407.555 377.446C412.975 389.724 417.364 402.743 420.599 416.143C422.544 423.99 424.12 432.215 425.277 440.575C426.981 453.35 427 461.322 427 461.656V463.264Z" fill="black"/>
<path d="M120.477 127.927C117.75 123.403 114.674 119.253 111.125 116.175C107.634 113.119 103.604 110.832 99.5937 111.464C98.6066 111.661 97.6067 111.728 96.6758 112.272L95.254 112.886C94.7937 113.144 94.3616 113.518 93.9166 113.825C92.0447 114.951 90.5818 116.697 89.4362 118.871C87.1423 123.226 86.4518 129.011 86.838 134.523C87.6051 145.676 92.3873 156.221 99.3176 162.305C102.762 165.439 106.8 167.271 110.943 168.033C115.096 168.923 119.379 168.531 123.591 167.56C119.505 169.311 115.168 170.084 110.818 169.755C106.486 169.321 102.136 167.705 98.2997 164.631C90.5614 158.61 85.1911 147.186 84.2909 134.848C83.9201 128.732 84.6566 122.094 87.4978 116.881C88.8966 114.333 90.8478 112.212 92.9269 111.061C93.4409 110.733 93.9345 110.345 94.4638 110.07L96.1132 109.434C97.1975 108.916 98.3534 108.894 99.4837 108.767C104.095 108.439 108.35 111.291 111.835 114.767C115.278 118.448 118.206 122.923 120.477 127.927Z" fill="black"/>
<path d="M99.0612 135.436C101.309 135.061 103.688 135.09 105.988 135.375C108.3 135.648 110.548 136.23 112.591 137.055C114.61 137.899 116.502 138.932 117.948 140.224C119.481 141.46 120.559 142.925 121.339 144.419C119.847 143.191 118.481 141.973 116.838 140.943C115.266 139.875 113.49 138.982 111.618 138.225C107.87 136.679 103.597 135.821 99.0612 135.436Z" fill="black"/>
<path d="M325.063 129.578C327.789 125.054 330.866 120.904 334.415 117.826C337.906 114.77 341.936 112.483 345.946 113.115C346.933 113.312 347.933 113.379 348.864 113.923L350.286 114.537C350.746 114.795 351.178 115.169 351.623 115.476C353.495 116.602 354.958 118.348 356.104 120.522C358.398 124.877 359.088 130.662 358.702 136.174C357.935 147.327 353.153 157.872 346.222 163.956C342.778 167.09 338.74 168.922 334.597 169.684C330.444 170.574 326.16 170.182 321.949 169.211C326.035 170.962 330.372 171.735 334.722 171.406C339.054 170.972 343.404 169.356 347.24 166.282C354.979 160.261 360.349 148.837 361.249 136.499C361.62 130.383 360.883 123.745 358.042 118.532C356.643 115.984 354.692 113.863 352.613 112.712C352.099 112.384 351.605 111.996 351.076 111.721L349.427 111.085C348.342 110.567 347.187 110.545 346.056 110.418C341.445 110.09 337.19 112.942 333.704 116.418C330.262 120.099 327.334 124.574 325.063 129.578Z" fill="black"/>
<path d="M346.479 137.087C344.231 136.712 341.852 136.741 339.552 137.026C337.24 137.299 334.992 137.881 332.949 138.706C330.929 139.55 329.038 140.583 327.592 141.875C326.059 143.111 324.981 144.576 324.201 146.07C325.693 144.842 327.059 143.624 328.701 142.594C330.274 141.526 332.05 140.633 333.922 139.876C337.67 138.33 341.943 137.472 346.479 137.087Z" fill="black"/>
<path d="M181.825 151.346C181.825 154.816 178.819 157.627 175.114 157.627C171.409 157.627 168.404 154.816 168.404 151.346C168.404 147.875 171.409 145.064 175.114 145.064C178.819 145.064 181.825 147.875 181.825 151.346Z" fill="black"/>
<path d="M268.902 157.068C272.432 157.068 275.293 154.381 275.293 151.066C275.293 147.751 272.432 145.064 268.902 145.064C265.373 145.064 262.512 147.751 262.512 151.066C262.512 154.381 265.373 157.068 268.902 157.068Z" fill="black"/>
<path d="M220.855 164.243C220.855 164.243 221.681 165.894 220.03 166.719C216.728 165.894 217.579 165.068 211.8 165.068C208.498 165.894 207.8 169.587 208.473 173.323C209.129 177.015 214.099 179.035 218.43 179.83C213.996 180.346 208.138 178.917 206.822 174.149C206.257 172.104 206.202 170.021 206.821 167.545C207.441 165.068 209.298 162.592 212.6 161.766C216.728 160.726 220.855 164.243 220.855 164.243Z" fill="black"/>
<path d="M201.657 188.869C202.493 189.637 203.511 190.374 204.783 191.05C206.008 191.733 207.469 192.362 209.176 192.881C210.885 193.396 212.778 193.839 214.907 194.076C215.42 194.152 215.95 194.21 216.5 194.244C217.044 194.284 217.578 194.342 218.131 194.368C219.246 194.388 220.361 194.467 221.47 194.414C225.952 194.388 230.123 193.61 233.402 192.511C235.087 191.971 236.514 191.329 237.803 190.658C239.14 189.993 240.276 189.277 241.281 188.534C240.042 190.12 238.572 191.292 235.27 193.277C233.634 193.9 231.135 194.747 228.899 195.138C226.668 195.512 223.987 195.959 221.469 195.964C216.491 196.063 211.382 195.02 208.028 193.769C204.726 192.118 202.528 190.482 201.657 188.869Z" fill="black"/>
<path d="M75.9467 353.092C69.3425 347.314 54.4837 335.757 54.4837 335.757L52.8326 338.233C52.8326 338.233 67.6915 348.965 75.9467 356.394C84.202 363.824 83.3765 364.649 88.3296 373.73C93.2826 382.811 92.457 379.509 94.9336 391.066C97.4103 402.623 95.7592 411.703 95.7592 411.703V434.818C95.7592 434.818 96.1632 461.906 97.4522 461.234C98.7888 460.569 99.6702 461.977 100.676 461.234C99.4364 462.82 99.0613 434.818 99.0613 434.818V408.401C99.0613 408.401 99.0613 395.193 97.4522 388.589C95.8431 381.985 93.2826 376.207 88.3296 367.951C83.3765 359.696 82.551 358.871 75.9467 353.092Z" fill="black"/>
<path d="M359.886 355.569C366.49 349.79 381.349 338.233 381.349 338.233L383 340.71C383 340.71 368.141 351.441 359.886 358.871C351.631 366.3 352.456 367.126 347.503 376.207C342.55 385.287 343.376 381.985 340.899 393.542C338.423 405.099 340.074 414.18 340.074 414.18V437.294C340.074 437.294 339.67 464.382 338.381 463.711C337.044 463.046 336.163 464.454 335.157 463.711C336.396 465.297 336.772 437.294 336.772 437.294V410.878C336.772 410.878 336.772 397.67 338.381 391.066C339.99 384.462 342.55 378.683 347.503 370.428C352.456 362.173 353.282 361.347 359.886 355.569Z" fill="black"/>
<g opacity="0.4">
<path d="M178.31 170.655C178.31 178.405 168.7 184.688 156.847 184.688C144.994 184.688 135.384 178.405 135.384 170.655C135.384 162.905 144.994 156.621 156.847 156.621C168.7 156.621 178.31 162.905 178.31 170.655Z" fill="#E891A1"/>
</g>
<g opacity="0.4">
<path d="M312.043 169.004C312.043 176.753 302.432 183.037 290.579 183.037C278.727 183.037 269.116 176.753 269.116 169.004C269.116 161.254 278.727 154.97 290.579 154.97C302.432 154.97 312.043 161.254 312.043 169.004Z" fill="#E891A1"/>
</g>
<path d="M284.079 128.106C283.326 130.104 261.618 131.784 259.876 130.59C258.134 129.397 258.134 129.397 258.134 129.397C258.134 129.397 254.541 125.662 259.645 123.759C264.187 122.065 281.405 125.126 282.406 125.208C283.407 125.291 284.832 126.108 284.079 128.106Z" fill="#F68B79"/>
<path d="M159.39 128.106C160.143 130.104 181.851 131.784 183.593 130.59C185.334 129.397 185.334 129.397 185.334 129.397C185.334 129.397 188.928 125.662 183.824 123.759C179.282 122.065 162.063 125.126 161.063 125.208C160.062 125.291 158.637 126.108 159.39 128.106Z" fill="#F68B79"/>
<path d="M213.763 378.966C213.83 379.651 213.896 380.337 213.955 381.015C213.962 383.949 214.707 386.699 216.174 389.235C217.619 391.675 219.565 393.621 222.013 395.074C222.123 395.118 222.226 395.162 222.33 395.214C219.934 392.096 217.538 388.977 215.142 385.859C215.216 386.065 215.282 386.286 215.356 386.493C217.582 393.046 223.059 397.809 230.225 397.809C237.391 397.809 242.868 393.046 245.094 386.493C245.168 386.286 245.242 386.065 245.308 385.859C242.912 388.977 240.516 392.096 238.12 395.214C238.224 395.162 238.334 395.118 238.437 395.074C240.885 393.621 242.831 391.675 244.276 389.235C245.75 386.692 246.488 383.949 246.495 381.015C246.561 380.33 246.628 379.651 246.687 378.966C247.078 374.83 244.696 370.156 241.865 367.318C238.791 364.244 234.567 362.497 230.218 362.497C225.868 362.497 221.644 364.244 218.57 367.318C215.746 370.156 213.365 374.83 213.763 378.966Z" fill="#CDE6A4"/>
<path d="M111.619 419.691C116.396 429.319 130.462 429.319 135.246 419.691C137.465 415.216 137.849 410.313 135.246 405.876C132.806 401.718 128.258 399.101 123.436 399.101C118.608 399.101 114.059 401.71 111.626 405.876C109.017 410.313 109.407 415.216 111.619 419.691Z" fill="#CDE6A4"/>
<path d="M265.688 350.356C265.842 353.725 266.005 357.131 267.958 360.065C270.877 364.48 275.279 367.385 280.712 367.385C286.145 367.385 290.546 364.473 293.465 360.065C295.419 357.131 295.574 353.725 295.736 350.356C296.119 342.173 288.607 335.339 280.712 335.339C272.809 335.339 265.304 342.173 265.688 350.356Z" fill="#CDE6A4"/>
<path d="M276.317 299.472C290.508 299.472 290.508 277.481 276.317 277.481C262.126 277.474 262.126 299.472 276.317 299.472Z" fill="#CDE6A4"/>
<path d="M95.9844 353.464C113.766 353.464 113.766 325.893 95.9844 325.893C78.2104 325.885 78.2104 353.464 95.9844 353.464Z" fill="#CDE6A4"/>
<path d="M185.191 420.582C184.808 420.493 184.424 420.412 184.033 420.346C186.628 422.344 189.223 424.334 191.818 426.332C191.781 426.266 191.745 426.207 191.715 426.148C189.231 421.865 184.49 419.174 179.544 419.174C174.951 419.174 169.385 421.776 167.373 426.148C166.06 429.008 165.286 430.947 165.308 434.176C165.331 438.791 167.881 444.18 172.246 446.266C175.519 447.829 179.411 449.067 183.031 447.674C188.103 445.728 191.391 442.691 192.939 437.368C192.467 438.489 191.995 439.609 191.523 440.73C192.681 438.149 193.949 435.886 193.602 432.9C190.418 437.088 187.233 441.275 184.048 445.462C184.432 445.352 184.822 445.271 185.206 445.182C190.705 443.951 194.568 438.348 194.568 432.886C194.553 427.431 190.69 421.791 185.191 420.582Z" fill="#CDE6A4"/>
<path d="M269.66 438.686C287.574 438.686 287.574 410.908 269.66 410.908C251.746 410.908 251.753 438.686 269.66 438.686Z" fill="#CDE6A4"/>
<path d="M149.196 355.956C147.854 358.5 147.132 361.087 147.928 363.977C148.945 367.663 151.968 370.796 155.646 371.814C163.579 373.996 171.106 366.469 168.923 358.537C166.528 349.808 153.634 347.537 149.196 355.956Z" fill="#CDE6A4"/>
<path d="M317.625 402.321C320.22 401.599 322.697 400.508 324.555 398.495C329.287 393.408 329.287 386.044 324.555 380.949C322.689 378.952 320.212 377.846 317.625 377.131C309.442 374.853 301.097 381.252 301.097 389.73C301.089 398.2 309.434 404.592 317.625 402.321Z" fill="#CDE6A4"/>
<path d="M341.087 352.439C358.198 352.439 358.198 325.893 341.087 325.893C323.977 325.893 323.977 352.439 341.087 352.439Z" fill="#CDE6A4"/>
<path d="M208.647 321.319C225.492 321.319 225.492 295.193 208.647 295.193C191.795 295.193 191.795 321.319 208.647 321.319Z" fill="#CDE6A4"/>
<path d="M136.714 313.26C153.692 313.26 153.692 286.927 136.714 286.927C119.737 286.92 119.737 313.26 136.714 313.26Z" fill="#CDE6A4"/>
</svg>
