<svg width="384" height="45" viewBox="0 0 384 45" fill="none" xmlns="http://www.w3.org/2000/svg">
<rect x="1" y="1" width="382" height="43" rx="8" stroke="#D9D9D9"/>
<rect x="7" y="8" width="308" height="29" rx="5" fill="#CBAAD5"/>
<path d="M267.96 31L274.466 18.1307V18.017H266.966V16.4545H276.284V18.1023L269.807 31H267.96ZM283.282 31.1989C282.448 31.1989 281.698 31.0331 281.03 30.7017C280.363 30.3703 279.828 29.9157 279.425 29.3381C279.023 28.7604 278.802 28.1023 278.765 27.3636H280.469C280.535 28.0218 280.834 28.5663 281.364 28.9972C281.899 29.4233 282.538 29.6364 283.282 29.6364C283.878 29.6364 284.408 29.4967 284.873 29.2173C285.341 28.938 285.708 28.5545 285.973 28.0668C286.243 27.5743 286.378 27.018 286.378 26.3977C286.378 25.7633 286.239 25.1974 285.959 24.7003C285.685 24.1984 285.306 23.803 284.823 23.5142C284.34 23.2254 283.788 23.0786 283.168 23.0739C282.723 23.0691 282.266 23.1378 281.797 23.2798C281.328 23.4171 280.943 23.5947 280.64 23.8125L278.992 23.6136L279.873 16.4545H287.429V18.017H281.35L280.838 22.3068H280.924C281.222 22.0701 281.596 21.8736 282.046 21.7173C282.496 21.5611 282.964 21.483 283.452 21.483C284.342 21.483 285.135 21.696 285.831 22.1222C286.532 22.5436 287.081 23.1212 287.479 23.8551C287.882 24.589 288.083 25.4271 288.083 26.3693C288.083 27.2973 287.874 28.1259 287.458 28.8551C287.046 29.5795 286.478 30.1525 285.753 30.5739C285.029 30.9905 284.205 31.1989 283.282 31.1989ZM298.319 28.2727V27.5057C298.319 26.9754 298.428 26.4901 298.646 26.0497C298.868 25.6046 299.19 25.2495 299.612 24.9844C300.038 24.7145 300.554 24.5795 301.16 24.5795C301.775 24.5795 302.291 24.7145 302.708 24.9844C303.125 25.2495 303.44 25.6046 303.653 26.0497C303.866 26.4901 303.972 26.9754 303.972 27.5057V28.2727C303.972 28.803 303.863 29.2907 303.646 29.7358C303.433 30.1761 303.115 30.5312 302.694 30.8011C302.277 31.0663 301.766 31.1989 301.16 31.1989C300.544 31.1989 300.026 31.0663 299.604 30.8011C299.183 30.5312 298.863 30.1761 298.646 29.7358C298.428 29.2907 298.319 28.803 298.319 28.2727ZM299.768 27.5057V28.2727C299.768 28.7131 299.872 29.1084 300.08 29.4588C300.289 29.8045 300.648 29.9773 301.16 29.9773C301.657 29.9773 302.007 29.8045 302.211 29.4588C302.419 29.1084 302.523 28.7131 302.523 28.2727V27.5057C302.523 27.0653 302.424 26.6723 302.225 26.3267C302.026 25.9763 301.671 25.8011 301.16 25.8011C300.663 25.8011 300.305 25.9763 300.087 26.3267C299.874 26.6723 299.768 27.0653 299.768 27.5057ZM291.075 19.9489V19.1818C291.075 18.6515 291.183 18.1662 291.401 17.7259C291.624 17.2808 291.946 16.9257 292.367 16.6605C292.793 16.3906 293.309 16.2557 293.915 16.2557C294.531 16.2557 295.047 16.3906 295.464 16.6605C295.88 16.9257 296.195 17.2808 296.408 17.7259C296.621 18.1662 296.728 18.6515 296.728 19.1818V19.9489C296.728 20.4792 296.619 20.9669 296.401 21.4119C296.188 21.8523 295.871 22.2074 295.45 22.4773C295.033 22.7424 294.522 22.875 293.915 22.875C293.3 22.875 292.781 22.7424 292.36 22.4773C291.939 22.2074 291.619 21.8523 291.401 21.4119C291.183 20.9669 291.075 20.4792 291.075 19.9489ZM292.523 19.1818V19.9489C292.523 20.3892 292.628 20.7846 292.836 21.1349C293.044 21.4806 293.404 21.6534 293.915 21.6534C294.413 21.6534 294.763 21.4806 294.967 21.1349C295.175 20.7846 295.279 20.3892 295.279 19.9489V19.1818C295.279 18.7415 295.18 18.3485 294.981 18.0028C294.782 17.6525 294.427 17.4773 293.915 17.4773C293.418 17.4773 293.061 17.6525 292.843 18.0028C292.63 18.3485 292.523 18.7415 292.523 19.1818ZM291.614 31L301.614 16.4545H303.234L293.234 31H291.614Z" fill="white"/>
</svg>
