<svg width="628" height="628" viewBox="0 0 628 628" fill="none" xmlns="http://www.w3.org/2000/svg">
<path d="M314 627.956C487.393 627.956 627.955 487.393 627.955 314C627.955 140.607 487.393 0.0446777 314 0.0446777C140.607 0.0446777 0.0449219 140.607 0.0449219 314C0.0449219 487.393 140.607 627.956 314 627.956Z" fill="#CDE6A4"/>
<path d="M355.925 110.54C355.925 110.54 307.206 78.8759 275.542 110.54C243.873 142.209 243.873 188.488 226.823 198.233C209.772 207.979 191.504 212.847 192.722 240.861C193.94 268.875 165.926 281.832 162.271 306.411C162.271 306.411 196.372 349.259 407.077 327.336C482.587 318.808 480.151 306.411 480.151 306.411C480.151 306.411 460.664 304.195 463.1 283.49C465.537 262.785 475.278 245.734 449.705 227.466C424.127 205.542 433.873 165.351 420.472 144.646C407.081 123.941 386.376 97.1445 355.925 110.54Z" fill="#F68B79"/>
<path d="M243.308 240.928C243.721 258.586 247.72 277.121 259.726 290.078C273.182 304.597 295.243 309.509 314.407 304.528C333.571 299.548 349.704 285.692 360.005 268.788C374.589 274.577 393.142 279.687 404.364 268.719C412.573 260.695 412.607 247.678 411.561 236.245C411.247 232.81 410.795 229.147 408.574 226.504C403.731 220.74 394.648 223.34 387.154 224.037C368.123 225.806 350.643 210.977 343.277 193.346C335.908 175.71 336.476 155.887 337.694 136.818C318.556 157.557 309.237 186.992 312.952 214.967C308.329 214.993 303.701 215.019 299.078 215.045C293.71 188.817 297.731 160.764 310.253 137.102C299.754 156.942 276.458 153.313 262.519 165.788C245.706 180.832 242.822 220.253 243.308 240.928Z" fill="white"/>
<path d="M245.193 361.416C239.295 365.846 232.416 370.228 230.501 377.348C229.674 380.417 229.903 383.667 230.38 386.805C234.233 412.12 254.783 433.29 279.25 440.845C303.717 448.395 331.09 443.316 353.065 430.165C370.55 419.705 385.801 402.538 386.852 382.195C387.192 375.635 385.861 368.661 381.514 363.737C376.899 358.507 369.793 356.449 363.439 353.578C343.147 344.401 328.236 324.243 325.408 302.147C322.511 279.492 291.152 284.227 282.892 300.963C271.438 324.178 267.434 344.715 245.193 361.416Z" fill="white"/>
<path d="M245.192 361.416C245.192 361.416 308.009 426.738 363.439 353.582C456.336 388.952 574.953 488.689 574.953 488.689C574.953 488.689 513.699 583.786 403.833 614.921C293.972 646.056 200.95 617.202 119.124 560.141C63.9953 526.333 25.5684 438.106 25.5684 438.106C25.5684 438.106 181.769 354.985 245.192 361.416Z" fill="#CBAAD5"/>
<path d="M429.944 452.26C427.021 463.331 423.668 474.286 419.888 485.095C419.139 487.234 418.326 489.451 416.682 491.01C415.136 492.477 413.04 493.188 411.012 493.855C401 497.161 390.987 500.462 380.971 503.768C392.701 507.991 404.805 511.172 417.095 513.26C412.687 525.881 407.431 538.205 401.379 550.124C412.218 543.254 422.239 535.097 431.166 525.877C438.045 538.833 445.716 551.368 454.114 563.391C454.458 552.479 454.807 541.571 455.152 530.659C467.424 529.557 479.825 529.876 492.024 531.606C481.164 521.047 468.814 512.016 455.461 504.866C464.652 497.841 472.869 489.541 479.799 480.282C469.12 478.479 457.971 479.551 447.834 483.36C452.465 474.82 455.896 465.63 457.997 456.143C456.443 463.159 439.81 476.981 435.962 485.637C434.756 474.557 434.016 463.09 429.944 452.26Z" fill="#FFDD95"/>
<path d="M131.682 423.712C129.922 430.376 127.903 436.975 125.626 443.483C125.178 444.77 124.683 446.105 123.693 447.043C122.763 447.926 121.498 448.356 120.28 448.756C114.253 450.745 108.223 452.734 102.192 454.722C109.256 457.266 116.543 459.182 123.943 460.439C121.287 468.037 118.123 475.458 114.481 482.633C121.007 478.497 127.042 473.585 132.419 468.032C136.56 475.832 141.178 483.382 146.236 490.618C146.443 484.049 146.654 477.481 146.86 470.912C154.251 470.249 161.716 470.439 169.059 471.48C162.52 465.123 155.086 459.686 147.045 455.381C152.581 451.154 157.527 446.157 161.698 440.582C155.267 439.493 148.556 440.139 142.452 442.437C145.242 437.293 147.308 431.762 148.574 426.05C147.639 430.277 137.623 438.598 135.307 443.811C134.584 437.139 134.136 430.234 131.682 423.712Z" fill="#FFDD95"/>
<path d="M265.033 398.011C258.959 401.269 252.756 404.29 246.445 407.063C245.197 407.614 243.884 408.161 242.524 408.079C241.241 408.001 240.07 407.369 238.943 406.753C233.377 403.701 227.811 400.649 222.245 397.593C225.202 404.493 228.771 411.126 232.899 417.398C225.534 420.639 217.945 423.386 210.214 425.616C217.691 427.566 225.396 428.629 233.123 428.775C230.243 437.126 227.871 445.649 226.025 454.284C230.971 449.958 235.916 445.628 240.862 441.302C246.385 446.256 251.34 451.843 255.584 457.926C255.774 448.809 254.68 439.661 252.343 430.846C259.208 432.008 266.238 432.219 273.16 431.47C269.57 426.024 264.521 421.557 258.679 418.66C264.344 417.192 269.798 414.932 274.838 411.957C271.111 414.153 258.197 412.508 252.803 414.363C257.19 409.284 261.933 404.248 265.033 398.011Z" fill="#FFDD95"/>
<path d="M283.834 529.935C282.074 536.603 280.055 543.198 277.778 549.706C277.33 550.993 276.835 552.328 275.845 553.266C274.915 554.148 273.654 554.579 272.431 554.979C266.401 556.968 260.374 558.956 254.344 560.945C261.408 563.489 268.695 565.4 276.095 566.662C273.439 574.259 270.275 581.68 266.633 588.856C273.159 584.719 279.194 579.808 284.57 574.255C288.711 582.055 293.33 589.601 298.388 596.841C298.599 590.272 298.806 583.703 299.012 577.135C306.403 576.472 313.867 576.666 321.211 577.703C314.672 571.345 307.238 565.909 299.197 561.604C304.733 557.377 309.679 552.379 313.85 546.805C307.419 545.716 300.708 546.361 294.604 548.656C297.394 543.512 299.46 537.98 300.726 532.268C299.792 536.495 289.775 544.816 287.459 550.029C286.731 543.361 286.284 536.456 283.834 529.935Z" fill="#FFDD95"/>
<path d="M281.322 303.579C281.322 303.579 300.43 310.961 325.41 302.15C327.734 312.735 331.049 321.275 331.049 321.275L268.469 332.875L281.322 303.579Z" fill="#D9D9D9"/>
</svg>
