<svg width="56" height="56" viewBox="0 0 56 56" fill="none" xmlns="http://www.w3.org/2000/svg">
<path d="M27.5988 0C12.3565 0 0 12.3565 0 27.5988C0 42.8406 12.3565 55.1971 27.5988 55.1971C42.8416 55.1971 55.1976 42.8406 55.1976 27.5988C55.1976 12.356 42.8416 0 27.5988 0Z" fill="#FFDD95"/>
<path d="M43.2806 14.6064C43.1588 14.2514 43.013 14.1542 42.7866 14.0683C42.2907 13.8802 41.45 14.1625 41.45 14.1625C41.45 14.1625 11.7044 24.8544 10.0049 26.0388C9.63862 26.2941 9.51734 26.4419 9.45596 26.6158C9.16183 27.4589 10.0771 27.8306 10.0771 27.8306L17.7442 30.3285C17.7442 30.3285 18.0305 30.3697 18.1321 30.3059C19.8758 29.204 35.6794 19.2247 36.5922 18.8888C36.7356 18.8461 36.8416 18.8952 36.8132 18.9939C36.4483 20.274 22.7223 32.4758 22.7223 32.4758C22.7223 32.4758 22.6708 32.5401 22.6369 32.6177L22.6192 32.6064L21.9033 40.2121C21.9033 40.2121 21.6042 42.5416 23.9337 40.2121C25.5777 38.5676 27.1682 37.1922 27.9637 36.5234C30.6001 38.3427 33.4373 40.357 34.6619 41.4102C35.2767 41.9391 35.7908 42.0245 36.2141 42.0088C37.3769 41.9646 37.701 40.6889 37.701 40.6889C37.701 40.6889 43.1215 18.8721 43.3027 15.9494C43.3199 15.6627 43.3449 15.48 43.3469 15.2836C43.3503 15.0101 43.3248 14.7356 43.2806 14.6064Z" fill="white"/>
</svg>
